# Blender v3.4.1 OBJ File: 'bob.blend'
# www.blender.org
v -0.061898 -0.271759 0.063879
v 0.003540 -0.271597 0.176642
v 0.115677 -0.271672 0.241747
v 0.245228 -0.271667 0.241737
v 0.357418 -0.271667 0.176964
v 0.422191 -0.271667 0.064773
v -0.092937 -0.147592 0.076219
v -0.020822 -0.148110 0.201232
v 0.107081 -0.146785 0.273857
v 0.253847 -0.146839 0.273907
v 0.380968 -0.146839 0.200514
v 0.454361 -0.146839 0.073393
v -0.160275 -0.051709 0.135149
v -0.086086 -0.065297 0.274506
v 0.083491 -0.055036 0.361947
v 0.277475 -0.055208 0.362088
v 0.445520 -0.055207 0.265066
v 0.542541 -0.055207 0.097021
v -0.194781 0.000712 0.159478
v -0.169123 -0.029895 0.366080
v 0.051153 -0.021324 0.482658
v 0.309836 -0.021566 0.482860
v 0.533931 -0.021564 0.353477
v 0.664938 -0.003727 0.127280
v -0.397549 -0.005361 0.243254
v -0.251231 -0.058812 0.449998
v 0.018716 -0.054919 0.603649
v 0.342214 -0.055060 0.603696
v 0.622390 -0.055059 0.441936
v 0.790829 -0.036902 0.163874
v -0.584493 -0.072120 0.227556
v -0.329952 -0.143346 0.514177
v -0.004872 -0.146696 0.691822
v 0.365908 -0.146623 0.692122
v 0.687123 -0.146623 0.506669
v 0.904704 -0.131540 0.183178
v -0.605722 -0.260719 0.243143
v -0.370236 -0.272233 0.551088
v -0.013471 -0.271656 0.723999
v 0.374578 -0.271667 0.724484
v 0.710809 -0.271667 0.530354
v 0.934932 -0.271667 0.194123
v -0.514825 -0.398767 0.185695
v -0.327805 -0.397876 0.507200
v -0.004923 -0.396672 0.691953
v 0.365908 -0.396711 0.692122
v 0.687123 -0.396711 0.506669
v 0.872576 -0.396711 0.185454
v -0.422655 -0.487517 0.161168
v -0.261320 -0.487973 0.441687
v 0.018683 -0.488288 0.603715
v 0.342214 -0.488276 0.603696
v 0.622390 -0.488276 0.441936
v 0.784150 -0.488276 0.161760
v -0.302395 -0.521736 0.129380
v -0.173013 -0.521751 0.353481
v 0.051073 -0.521770 0.482858
v 0.309836 -0.521770 0.482858
v 0.533931 -0.521770 0.353477
v 0.663313 -0.521770 0.129382
v -0.181628 -0.488133 0.097032
v -0.084611 -0.488128 0.265068
v 0.083433 -0.488128 0.362087
v 0.277475 -0.488128 0.362087
v 0.445520 -0.488128 0.265066
v 0.542541 -0.488128 0.097021
v -0.093470 -0.396494 0.073322
v -0.020048 -0.396500 0.200499
v 0.107061 -0.396495 0.273907
v 0.253847 -0.396495 0.273907
v 0.380968 -0.396495 0.200514
v 0.454361 -0.396495 0.073393
v -0.189094 0.191252 0.166899
v -0.462376 0.190994 0.297239
v -0.709070 0.099172 0.205793
v -0.247202 0.402291 0.129663
v -0.502500 0.432450 0.211228
v -0.665797 0.264397 0.067758
v -0.865628 0.073770 0.194803
v -0.910741 0.234375 0.163035
v -0.519703 0.521779 0.000000
v -0.691930 0.357193 0.000000
v -0.243554 0.431881 0.000000
v -0.907991 0.024739 0.000000
v -0.960488 0.213273 0.000000
v -0.147940 0.004434 0.000000
v -0.159764 0.193825 0.000000
v -0.683470 -0.076047 -0.000000
v -0.688987 -0.010480 -0.000000
v -0.100839 -0.146146 -0.000000
v -0.156294 -0.046224 -0.000000
v -0.655461 -0.262694 -0.000000
v -0.538738 -0.398919 -0.000000
v -0.070852 -0.271951 -0.000000
v -0.443697 -0.487464 -0.000000
v -0.319428 -0.521731 -0.000000
v -0.194401 -0.488136 -0.000000
v -0.103174 -0.396480 -0.000000
v -0.061898 -0.271759 -0.063879
v 0.003540 -0.271597 -0.176642
v 0.115677 -0.271672 -0.241747
v 0.245228 -0.271667 -0.241737
v 0.357418 -0.271667 -0.176964
v 0.422191 -0.271667 -0.064773
v -0.092937 -0.147592 -0.076219
v -0.020822 -0.148110 -0.201232
v 0.107081 -0.146785 -0.273857
v 0.253847 -0.146839 -0.273907
v 0.380968 -0.146839 -0.200514
v 0.454361 -0.146839 -0.073393
v -0.160275 -0.051709 -0.135149
v -0.086086 -0.065297 -0.274506
v 0.083491 -0.055036 -0.361947
v 0.277475 -0.055208 -0.362088
v 0.445520 -0.055206 -0.265066
v 0.542541 -0.055206 -0.097021
v -0.194781 0.000712 -0.159478
v -0.169123 -0.029895 -0.366080
v 0.051153 -0.021324 -0.482658
v 0.309836 -0.021566 -0.482860
v 0.533931 -0.021564 -0.353477
v 0.664938 -0.003727 -0.127280
v -0.397549 -0.005361 -0.243254
v -0.251231 -0.058812 -0.449998
v 0.018716 -0.054919 -0.603649
v 0.342214 -0.055060 -0.603696
v 0.622390 -0.055059 -0.441936
v 0.790829 -0.036902 -0.163874
v -0.584493 -0.072120 -0.227556
v -0.329952 -0.143346 -0.514177
v -0.004872 -0.146696 -0.691822
v 0.365908 -0.146623 -0.692122
v 0.687123 -0.146623 -0.506669
v 0.904704 -0.131540 -0.183178
v -0.605722 -0.260719 -0.243143
v -0.370236 -0.272233 -0.551088
v -0.013471 -0.271656 -0.723999
v 0.374578 -0.271667 -0.724484
v 0.710809 -0.271667 -0.530354
v 0.934932 -0.271667 -0.194123
v -0.514825 -0.398767 -0.185695
v -0.327805 -0.397876 -0.507200
v -0.004923 -0.396672 -0.691953
v 0.365908 -0.396711 -0.692122
v 0.687123 -0.396711 -0.506669
v 0.872576 -0.396711 -0.185454
v -0.422655 -0.487517 -0.161168
v -0.261320 -0.487973 -0.441687
v 0.018683 -0.488288 -0.603715
v 0.342214 -0.488276 -0.603696
v 0.622390 -0.488276 -0.441936
v 0.784150 -0.488276 -0.161760
v -0.302395 -0.521736 -0.129380
v -0.173013 -0.521751 -0.353481
v 0.051073 -0.521770 -0.482858
v 0.309836 -0.521770 -0.482858
v 0.533931 -0.521770 -0.353477
v 0.663313 -0.521770 -0.129382
v -0.181628 -0.488133 -0.097032
v -0.084611 -0.488128 -0.265068
v 0.083433 -0.488128 -0.362087
v 0.277475 -0.488128 -0.362087
v 0.445520 -0.488128 -0.265066
v 0.542541 -0.488128 -0.097021
v -0.093470 -0.396494 -0.073322
v -0.020048 -0.396500 -0.200499
v 0.107061 -0.396495 -0.273907
v 0.253847 -0.396495 -0.273907
v 0.380968 -0.396495 -0.200514
v 0.454361 -0.396495 -0.073393
v -0.189094 0.191252 -0.166899
v -0.462376 0.190994 -0.297239
v -0.709070 0.099172 -0.205793
v -0.247202 0.402291 -0.129663
v -0.502500 0.432450 -0.211228
v -0.665797 0.264397 -0.067758
v -0.865628 0.073770 -0.194803
v -0.910741 0.234375 -0.163035
vt 0.859152 0.232110
vt 0.839205 0.269175
vt 0.805868 0.251530
vt 0.823069 0.213650
vt 0.929188 0.938367
vt 0.606418 0.049868
vt 0.579371 0.043338
vt 0.917840 0.958660
vt 0.582863 0.099596
vt 0.560361 0.082164
vt 0.858527 0.938910
vt 0.888950 0.926658
vt 0.886188 0.946916
vt 0.861270 0.948274
vt 0.524409 0.108760
vt 0.515657 0.082277
vt 0.538929 0.064631
vt 0.938146 0.917764
vt 0.631938 0.056693
vt 0.605194 0.114534
vt 0.855450 0.912396
vt 0.890092 0.908871
vt 0.535267 0.141768
vt 0.944375 0.896878
vt 0.655801 0.064470
vt 0.626874 0.126870
vt 0.843646 0.894138
vt 0.889150 0.890903
vt 0.474804 0.142100
vt 0.947789 0.875380
vt 0.678525 0.073651
vt 0.648127 0.137505
vt 0.889321 0.873151
vt 0.845832 0.874255
vt 0.585389 0.198608
vt 0.948150 0.852885
vt 0.700851 0.084665
vt 0.669709 0.147396
vt 0.843306 0.855320
vt 0.890033 0.855257
vt 0.615391 0.209667
vt 0.944214 0.829352
vt 0.723622 0.098026
vt 0.692742 0.157419
vt 0.843575 0.838884
vt 0.889536 0.837016
vt 0.644075 0.216216
vt 0.936221 0.804792
vt 0.747847 0.114262
vt 0.718680 0.168372
vt 0.843344 0.819836
vt 0.887365 0.816256
vt 0.671359 0.222444
vt 0.774834 0.133496
vt 0.749055 0.181066
vt 0.700837 0.227508
vt 0.700837 0.227508
vt 0.733517 0.232292
vt 0.733517 0.232292
vt 0.883169 0.791588
vt 0.924634 0.779069
vt 0.806193 0.154544
vt 0.911507 0.752029
vt 0.784520 0.196151
vt 0.877035 0.762539
vt 0.842438 0.796292
vt 0.840768 0.767304
vt 0.900980 0.723922
vt 0.870646 0.731306
vt 0.842682 0.174671
vt 0.838503 0.735458
vt 0.769287 0.239134
vt 0.552248 0.036458
vt 0.881299 0.966966
vt 0.861398 0.965407
vt 0.904949 0.978378
vt 0.895027 0.696915
vt 0.880920 0.192626
vt 0.837327 0.707399
vt 0.865814 0.703520
vt 0.500566 0.323128
vt 0.353096 0.369530
vt 0.845557 0.952418
vt 0.400620 0.707465
vt 0.500566 0.746207
vt 0.820904 0.891644
vt 0.439777 0.449839
vt 0.418614 0.548633
vt 0.282143 0.557287
vt 0.450099 0.638825
vt 0.469786 0.687920
vt 0.451095 0.708379
vt 0.820904 0.736056
vt 0.822461 0.707905
vt 0.853221 0.968484
vt 0.847826 0.956628
vt 0.474804 0.142100
vt 0.585389 0.198608
vt 0.671359 0.222444
vt 0.820904 0.874108
vt 0.524409 0.108760
vt 0.535267 0.141768
vt 0.820904 0.855074
vt 0.769287 0.239134
vt 0.820904 0.838917
vt 0.515657 0.082277
vt 0.820904 0.820109
vt 0.644075 0.216216
vt 0.820904 0.796747
vt 0.805868 0.251530
vt 0.820904 0.767846
vt 0.615391 0.209667
vt 0.500566 0.450799
vt 0.500566 0.550276
vt 0.500566 0.630653
vt 0.500566 0.723786
vt 0.500566 0.694932
vt 0.839205 0.269175
vt 0.859152 0.232110
vt 0.823069 0.213650
vt 0.929188 0.938367
vt 0.917840 0.958660
vt 0.579371 0.043338
vt 0.606418 0.049868
vt 0.560361 0.082164
vt 0.582863 0.099596
vt 0.858527 0.938910
vt 0.861270 0.948274
vt 0.886188 0.946916
vt 0.888950 0.926658
vt 0.538929 0.064631
vt 0.938146 0.917764
vt 0.631938 0.056693
vt 0.605194 0.114534
vt 0.855450 0.912396
vt 0.890092 0.908871
vt 0.944375 0.896878
vt 0.655801 0.064470
vt 0.626874 0.126870
vt 0.843646 0.894138
vt 0.889150 0.890903
vt 0.947789 0.875380
vt 0.678525 0.073651
vt 0.648127 0.137505
vt 0.889321 0.873151
vt 0.845832 0.874255
vt 0.948150 0.852885
vt 0.700851 0.084665
vt 0.669709 0.147396
vt 0.843306 0.855320
vt 0.890033 0.855257
vt 0.944214 0.829352
vt 0.723622 0.098026
vt 0.692742 0.157419
vt 0.843575 0.838884
vt 0.889536 0.837016
vt 0.936221 0.804792
vt 0.747847 0.114262
vt 0.718680 0.168372
vt 0.843344 0.819836
vt 0.887365 0.816256
vt 0.774834 0.133496
vt 0.749055 0.181066
vt 0.883169 0.791588
vt 0.924634 0.779069
vt 0.806193 0.154544
vt 0.911507 0.752029
vt 0.784520 0.196151
vt 0.877035 0.762539
vt 0.840768 0.767304
vt 0.842438 0.796292
vt 0.900980 0.723922
vt 0.870646 0.731306
vt 0.842682 0.174671
vt 0.838503 0.735458
vt 0.552248 0.036458
vt 0.861398 0.965407
vt 0.881299 0.966966
vt 0.904949 0.978378
vt 0.895027 0.696915
vt 0.880920 0.192626
vt 0.837327 0.707399
vt 0.865814 0.703520
vt 0.353096 0.369530
vt 0.400620 0.707465
vt 0.282143 0.557287
vt 0.418614 0.548633
vt 0.439777 0.449839
vt 0.450099 0.638825
vt 0.451095 0.708379
vt 0.469786 0.687920
vn -0.6048 0.5181 -0.6048
vn -0.8262 0.5181 -0.2214
vn -0.9659 0.0000 -0.2588
vn -0.7071 0.0000 -0.7071
vn -0.0214 0.9994 0.0267
vn 0.0114 0.9991 0.0411
vn -0.1205 0.8839 -0.4519
vn 0.0954 0.8841 -0.4574
vn 0.0021 0.9990 0.0451
vn -0.3516 0.8761 -0.3299
vn 0.7635 0.5122 0.3933
vn 0.0631 0.9954 0.0728
vn 0.4098 0.8590 -0.3069
vn 0.8076 0.5878 -0.0473
vn -0.5033 0.8557 -0.1202
vn -0.1324 0.8543 0.5027
vn 0.1374 0.8472 0.5132
vn 0.3476 0.8498 0.3963
vn -0.0493 0.4843 0.8735
vn -0.2392 0.8759 0.4190
vn -0.0166 0.9995 0.0261
vn -0.2064 0.5036 0.8390
vn 0.2264 0.4819 0.8465
vn 0.5940 0.4827 0.6436
vn -0.7316 0.0311 0.6810
vn -0.5060 0.5201 0.6881
vn 0.4573 0.8738 0.1652
vn -0.2359 -0.0072 0.9717
vn 0.2584 0.0001 0.9661
vn 0.6879 -0.0280 0.7253
vn -0.6414 -0.0918 0.7617
vn -0.8710 -0.2291 0.4345
vn 0.8274 0.5022 0.2514
vn -0.2108 -0.5051 0.8369
vn 0.2265 -0.4819 0.8465
vn 0.6032 -0.5038 0.6184
vn -0.7098 -0.6554 0.2582
vn -0.5521 -0.5821 0.5970
vn 0.9557 -0.0871 0.2812
vn -0.1363 -0.8483 0.5117
vn 0.1374 -0.8474 0.5129
vn 0.3754 -0.8474 0.3754
vn -0.4841 -0.8591 0.1662
vn -0.3691 -0.8519 0.3716
vn 0.8011 -0.5517 0.2320
vn -0.0114 -0.9991 0.0413
vn 0.0110 -0.9991 0.0410
vn 0.0301 -0.9991 0.0301
vn -0.0330 -0.9994 0.0131
vn -0.0319 -0.9990 0.0308
vn 0.5128 -0.8474 0.1374
vn -0.1210 -0.8839 -0.4517
vn -0.3307 -0.8839 -0.3307
vn 0.0411 -0.9991 -0.0110
vn 0.0411 -0.9991 0.0110
vn -0.4517 -0.8839 -0.1210
vn -0.4517 -0.8839 0.1210
vn 0.3306 -0.8840 -0.3306
vn 0.1210 -0.8839 -0.4517
vn -0.2214 -0.5181 -0.8262
vn 0.2216 -0.5184 -0.8260
vn -0.6048 -0.5181 -0.6048
vn 0.6047 -0.5184 -0.6047
vn 0.4516 -0.8790 -0.1531
vn 0.8128 -0.5112 -0.2793
vn 0.2581 0.0012 -0.9661
vn 0.7065 0.0041 -0.7077
vn -0.2588 -0.0001 -0.9659
vn 0.9477 -0.0000 -0.3192
vn -0.8262 -0.5181 -0.2214
vn -0.2211 0.5180 -0.8263
vn 0.5977 0.5397 -0.5928
vn 0.8619 0.4565 -0.2206
vn 0.2042 0.5285 -0.8240
vn 0.9866 0.1630 0.0000
vn 0.7737 0.1503 0.6154
vn 0.9942 0.1080 0.0000
vn -0.3803 -0.1597 0.9110
vn -0.6312 -0.7756 -0.0000
vn -0.9694 -0.2456 -0.0000
vn 0.6165 0.5985 0.5116
vn -0.1919 0.6678 0.7192
vn -0.0441 0.1525 0.9873
vn -0.4555 0.6315 0.6275
vn -0.5243 0.4898 0.6965
vn -0.4067 -0.4133 0.8147
vn 1.0000 -0.0058 0.0000
vn 0.9178 0.3970 0.0000
vn 0.9280 0.3725 0.0000
vn 0.4573 0.8738 -0.1652
vn 0.8274 0.5022 -0.2514
vn 0.5128 -0.8474 -0.1374
vn -0.9467 -0.3220 -0.0000
vn -0.5033 0.8557 0.1202
vn -0.0166 0.9995 -0.0261
vn -0.7371 -0.6757 -0.0000
vn -0.8262 -0.5181 0.2214
vn -0.5023 -0.8647 -0.0000
vn -0.8262 0.5181 0.2214
vn -0.0250 -0.9997 -0.0000
vn 0.8011 -0.5517 -0.2320
vn 0.4847 -0.8747 -0.0000
vn -0.9659 -0.0000 0.2588
vn 0.8625 -0.5061 -0.0000
vn 0.9557 -0.0871 -0.2812
vn 0.6663 0.7457 0.0000
vn -0.2998 0.9540 0.0000
vn -0.6051 0.7962 0.0000
vn -0.6367 -0.7711 -0.0000
vn -0.9224 0.3863 -0.0000
vn -0.6048 0.5181 0.6048
vn -0.7071 -0.0000 0.7071
vn -0.0214 0.9994 -0.0267
vn 0.0954 0.8841 0.4574
vn -0.1205 0.8839 0.4519
vn 0.0114 0.9991 -0.0411
vn -0.3516 0.8761 0.3299
vn 0.0021 0.9990 -0.0451
vn 0.7635 0.5122 -0.3933
vn 0.8076 0.5878 0.0473
vn 0.4098 0.8590 0.3069
vn 0.0631 0.9954 -0.0728
vn -0.1324 0.8543 -0.5027
vn 0.1374 0.8472 -0.5132
vn 0.3476 0.8498 -0.3963
vn -0.0493 0.4843 -0.8735
vn -0.2392 0.8759 -0.4190
vn -0.2064 0.5036 -0.8389
vn 0.2264 0.4819 -0.8465
vn 0.5940 0.4827 -0.6436
vn -0.7316 0.0311 -0.6810
vn -0.5060 0.5201 -0.6881
vn -0.2359 -0.0072 -0.9717
vn 0.2584 0.0001 -0.9661
vn 0.6879 -0.0280 -0.7253
vn -0.6414 -0.0918 -0.7617
vn -0.8710 -0.2291 -0.4345
vn -0.2108 -0.5051 -0.8369
vn 0.2265 -0.4819 -0.8465
vn 0.6032 -0.5038 -0.6184
vn -0.7098 -0.6554 -0.2582
vn -0.5521 -0.5821 -0.5970
vn -0.1363 -0.8483 -0.5117
vn 0.1374 -0.8474 -0.5129
vn 0.3754 -0.8474 -0.3754
vn -0.4841 -0.8591 -0.1662
vn -0.3691 -0.8519 -0.3716
vn -0.0114 -0.9991 -0.0413
vn 0.0110 -0.9991 -0.0410
vn 0.0301 -0.9991 -0.0301
vn -0.0330 -0.9994 -0.0131
vn -0.0319 -0.9990 -0.0308
vn -0.1210 -0.8839 0.4517
vn -0.3307 -0.8839 0.3307
vn 0.3306 -0.8840 0.3306
vn 0.1210 -0.8839 0.4517
vn -0.2214 -0.5181 0.8262
vn 0.2216 -0.5184 0.8260
vn -0.6048 -0.5181 0.6048
vn 0.6047 -0.5184 0.6047
vn 0.8128 -0.5112 0.2793
vn 0.4516 -0.8790 0.1531
vn 0.2581 0.0012 0.9661
vn 0.7065 0.0041 0.7077
vn -0.2588 -0.0001 0.9659
vn 0.9477 -0.0000 0.3192
vn -0.2211 0.5180 0.8263
vn 0.8619 0.4565 0.2206
vn 0.5977 0.5397 0.5928
vn 0.2042 0.5285 0.8240
vn 0.7737 0.1503 -0.6154
vn -0.3803 -0.1597 -0.9110
vn -0.0441 0.1525 -0.9873
vn -0.1919 0.6678 -0.7192
vn 0.6165 0.5985 -0.5116
vn -0.4555 0.6315 -0.6275
vn -0.4067 -0.4133 -0.8147
vn -0.5243 0.4898 -0.6965
s 1
f 11/1/1 12/2/2 6/3/3 5/4/4
f 21/5/5 22/6/6 16/7/7 15/8/8
f 22/6/6 23/9/9 17/10/10 16/7/7
f 19/11/11 20/12/12 14/13/13 13/14/14
f 20/12/12 21/5/5 15/8/8 14/13/13
f 17/10/10 18/15/15 12/16/2 11/17/1
f 27/18/16 28/19/17 22/6/6 21/5/5
f 29/20/18 23/9/9 22/6/6 28/19/17
f 25/21/19 26/22/20 20/12/12 19/11/11
f 26/22/20 27/18/16 21/5/5 20/12/12
f 23/9/9 24/23/21 18/15/15 17/10/10
f 33/24/22 34/25/23 28/19/17 27/18/16
f 34/25/23 35/26/24 29/20/18 28/19/17
f 31/27/25 32/28/26 26/22/20 25/21/19
f 32/28/26 33/24/22 27/18/16 26/22/20
f 29/20/18 30/29/27 24/23/21 23/9/9
f 39/30/28 40/31/29 34/25/23 33/24/22
f 40/31/29 41/32/30 35/26/24 34/25/23
f 38/33/31 32/28/26 31/27/25 37/34/32
f 38/33/31 39/30/28 33/24/22 32/28/26
f 35/26/24 36/35/33 30/29/27 29/20/18
f 45/36/34 46/37/35 40/31/29 39/30/28
f 46/37/35 47/38/36 41/32/30 40/31/29
f 43/39/37 44/40/38 38/33/31 37/34/32
f 44/40/38 45/36/34 39/30/28 38/33/31
f 42/41/39 36/35/33 35/26/24 41/32/30
f 51/42/40 52/43/41 46/37/35 45/36/34
f 52/43/41 53/44/42 47/38/36 46/37/35
f 49/45/43 50/46/44 44/40/38 43/39/37
f 51/42/40 45/36/34 44/40/38 50/46/44
f 47/38/36 48/47/45 42/41/39 41/32/30
f 57/48/46 58/49/47 52/43/41 51/42/40
f 59/50/48 53/44/42 52/43/41 58/49/47
f 55/51/49 56/52/50 50/46/44 49/45/43
f 56/52/50 57/48/46 51/42/40 50/46/44
f 53/44/42 54/53/51 48/47/45 47/38/36
f 64/54/52 65/55/53 59/50/48 58/49/47
f 158/56/54 60/57/55 66/58/56 164/59/57
f 62/60/58 63/61/59 57/48/46 56/52/50
f 64/54/52 58/49/47 57/48/46 63/61/59
f 60/57/55 54/53/51 53/44/42 59/50/48
f 70/62/60 64/54/52 63/61/59 69/63/61
f 71/64/62 65/55/53 64/54/52 70/62/60
f 68/65/63 62/60/58 61/66/64 67/67/65
f 69/63/61 63/61/59 62/60/58 68/65/63
f 65/55/53 66/58/56 60/57/55 59/50/48
f 3/68/66 69/63/61 68/65/63 2/69/67
f 3/68/66 4/70/68 70/62/60 69/63/61
f 4/70/68 5/4/4 71/64/62 70/62/60
f 1/71/69 2/69/67 68/65/63 67/67/65
f 72/72/70 66/58/56 65/55/53 71/64/62
f 16/7/7 17/10/10 11/17/1 10/73/71
f 13/14/14 14/13/13 8/74/72 7/75/73
f 14/13/13 15/8/8 9/76/74 8/74/72
f 16/7/7 10/73/71 9/76/74 15/8/8
f 5/4/4 6/3/3 72/72/70 71/64/62
f 9/77/74 10/78/71 4/70/68 3/68/66
f 10/78/71 11/1/1 5/4/4 4/70/68
f 7/79/73 8/80/72 2/69/67 1/71/69
f 8/80/72 9/77/74 3/68/66 2/69/67
f 87/81/75 73/82/76 19/11/11 86/83/77
f 75/84/78 89/85/79 88/86/80 31/27/25
f 73/82/76 76/87/81 77/88/82 74/89/83
f 74/89/83 77/88/82 78/90/84 75/84/78
f 78/90/84 80/91/85 79/92/86 75/84/78
f 61/66/64 62/60/58 56/52/50 55/51/49
f 94/93/87 90/94/88 7/79/73 1/71/69
f 90/95/88 91/96/89 13/14/14 7/75/73
f 128/97/90 30/29/27 36/35/33 134/98/91
f 91/96/89 86/83/77 19/11/11 13/14/14
f 152/99/92 54/53/51 60/57/55 158/56/54
f 88/86/80 92/100/93 37/34/32 31/27/25
f 116/101/94 18/15/15 24/23/21 122/102/95
f 92/100/93 93/103/96 43/39/37 37/34/32
f 164/59/57 66/58/56 72/72/70 170/104/97
f 93/103/96 95/105/98 49/45/43 43/39/37
f 110/106/99 12/16/2 18/15/15 116/101/94
f 95/105/98 96/107/100 55/51/49 49/45/43
f 146/108/101 48/47/45 54/53/51 152/99/92
f 96/107/100 97/109/102 61/66/64 55/51/49
f 170/104/97 72/72/70 6/3/3 104/110/103
f 97/109/102 98/111/104 67/67/65 61/66/64
f 134/98/91 36/35/33 42/41/39 140/112/105
f 98/111/104 94/93/87 1/71/69 67/67/65
f 128/97/90 122/102/95 24/23/21 30/29/27
f 74/89/83 75/84/78 31/27/25 25/21/19
f 87/81/75 83/113/106 76/87/81 73/82/76
f 83/113/106 81/114/107 77/88/82 76/87/81
f 81/114/107 82/115/108 78/90/84 77/88/82
f 75/84/78 79/92/86 84/116/109 89/85/79
f 82/115/108 85/117/110 80/91/85 78/90/84
f 79/92/86 80/91/85 85/117/110 84/116/109
f 104/110/103 6/3/3 12/2/2 110/118/99
f 73/82/76 74/89/83 25/21/19 19/11/11
f 109/119/111 103/120/112 104/110/103 110/118/99
f 119/121/113 113/122/114 114/123/115 120/124/116
f 120/124/116 114/123/115 115/125/117 121/126/118
f 117/127/119 111/128/120 112/129/121 118/130/122
f 118/130/122 112/129/121 113/122/114 119/121/113
f 115/125/117 109/131/111 110/106/99 116/101/94
f 125/132/123 119/121/113 120/124/116 126/133/124
f 127/134/125 126/133/124 120/124/116 121/126/118
f 123/135/126 117/127/119 118/130/122 124/136/127
f 124/136/127 118/130/122 119/121/113 125/132/123
f 121/126/118 115/125/117 116/101/94 122/102/95
f 131/137/128 125/132/123 126/133/124 132/138/129
f 132/138/129 126/133/124 127/134/125 133/139/130
f 129/140/131 123/135/126 124/136/127 130/141/132
f 130/141/132 124/136/127 125/132/123 131/137/128
f 127/134/125 121/126/118 122/102/95 128/97/90
f 137/142/133 131/137/128 132/138/129 138/143/134
f 138/143/134 132/138/129 133/139/130 139/144/135
f 136/145/136 135/146/137 129/140/131 130/141/132
f 136/145/136 130/141/132 131/137/128 137/142/133
f 133/139/130 127/134/125 128/97/90 134/98/91
f 143/147/138 137/142/133 138/143/134 144/148/139
f 144/148/139 138/143/134 139/144/135 145/149/140
f 141/150/141 135/146/137 136/145/136 142/151/142
f 142/151/142 136/145/136 137/142/133 143/147/138
f 140/112/105 139/144/135 133/139/130 134/98/91
f 149/152/143 143/147/138 144/148/139 150/153/144
f 150/153/144 144/148/139 145/149/140 151/154/145
f 147/155/146 141/150/141 142/151/142 148/156/147
f 149/152/143 148/156/147 142/151/142 143/147/138
f 145/149/140 139/144/135 140/112/105 146/108/101
f 155/157/148 149/152/143 150/153/144 156/158/149
f 157/159/150 156/158/149 150/153/144 151/154/145
f 153/160/151 147/155/146 148/156/147 154/161/152
f 154/161/152 148/156/147 149/152/143 155/157/148
f 151/154/145 145/149/140 146/108/101 152/99/92
f 162/162/153 156/158/149 157/159/150 163/163/154
f 160/164/155 154/161/152 155/157/148 161/165/156
f 162/162/153 161/165/156 155/157/148 156/158/149
f 158/56/54 157/159/150 151/154/145 152/99/92
f 168/166/157 167/167/158 161/165/156 162/162/153
f 169/168/159 168/166/157 162/162/153 163/163/154
f 166/169/160 165/170/161 159/171/162 160/164/155
f 167/167/158 166/169/160 160/164/155 161/165/156
f 163/163/154 157/159/150 158/56/54 164/59/57
f 101/172/163 100/173/164 166/169/160 167/167/158
f 101/172/163 167/167/158 168/166/157 102/174/165
f 102/174/165 168/166/157 169/168/159 103/120/112
f 99/175/166 165/170/161 166/169/160 100/173/164
f 170/104/97 169/168/159 163/163/154 164/59/57
f 114/123/115 108/176/167 109/131/111 115/125/117
f 111/128/120 105/177/168 106/178/169 112/129/121
f 112/129/121 106/178/169 107/179/170 113/122/114
f 114/123/115 113/122/114 107/179/170 108/176/167
f 103/120/112 169/168/159 170/104/97 104/110/103
f 107/180/170 101/172/163 102/174/165 108/181/167
f 108/181/167 102/174/165 103/120/112 109/119/111
f 105/182/168 99/175/166 100/173/164 106/183/169
f 106/183/169 100/173/164 101/172/163 107/180/170
f 87/81/75 86/83/77 117/127/119 171/184/171
f 173/185/172 129/140/131 88/86/80 89/85/79
f 171/184/171 172/186/173 175/187/174 174/188/175
f 172/186/173 173/185/172 176/189/176 175/187/174
f 176/189/176 173/185/172 177/190/177 178/191/178
f 159/171/162 153/160/151 154/161/152 160/164/155
f 94/93/87 99/175/166 105/182/168 90/94/88
f 90/95/88 105/177/168 111/128/120 91/96/89
f 91/96/89 111/128/120 117/127/119 86/83/77
f 88/86/80 129/140/131 135/146/137 92/100/93
f 92/100/93 135/146/137 141/150/141 93/103/96
f 93/103/96 141/150/141 147/155/146 95/105/98
f 95/105/98 147/155/146 153/160/151 96/107/100
f 96/107/100 153/160/151 159/171/162 97/109/102
f 97/109/102 159/171/162 165/170/161 98/111/104
f 98/111/104 165/170/161 99/175/166 94/93/87
f 172/186/173 123/135/126 129/140/131 173/185/172
f 87/81/75 171/184/171 174/188/175 83/113/106
f 83/113/106 174/188/175 175/187/174 81/114/107
f 81/114/107 175/187/174 176/189/176 82/115/108
f 173/185/172 89/85/79 84/116/109 177/190/177
f 82/115/108 176/189/176 178/191/178 85/117/110
f 177/190/177 84/116/109 85/117/110 178/191/178
f 171/184/171 117/127/119 123/135/126 172/186/173
f 140/112/105 42/41/39 48/47/45 146/108/101
