<?xml version="1.0" encoding="UTF-8" standalone="no"?>
<!-- Created with Inkscape (http://www.inkscape.org/) -->

<svg
   version="1.1"
   id="svg1"
   width="816"
   height="1056"
   viewBox="0 0 816 1056"
   sodipodi:docname="bilinear-multi.svg"
   inkscape:version="1.3.2 (091e20ef0f, 2023-11-25, custom)"
   xmlns:inkscape="http://www.inkscape.org/namespaces/inkscape"
   xmlns:sodipodi="http://sodipodi.sourceforge.net/DTD/sodipodi-0.dtd"
   xmlns="http://www.w3.org/2000/svg"
   xmlns:svg="http://www.w3.org/2000/svg">
  <defs
     id="defs1" />
  <sodipodi:namedview
     id="namedview1"
     pagecolor="#ffffff"
     bordercolor="#666666"
     borderopacity="1.0"
     inkscape:showpageshadow="2"
     inkscape:pageopacity="0.0"
     inkscape:pagecheckerboard="0"
     inkscape:deskcolor="#d1d1d1"
     inkscape:zoom="1.0941406"
     inkscape:cx="341.82078"
     inkscape:cy="461.09247"
     inkscape:window-width="1920"
     inkscape:window-height="1021"
     inkscape:window-x="0"
     inkscape:window-y="0"
     inkscape:window-maximized="1"
     inkscape:current-layer="g1">
    <inkscape:page
       x="0"
       y="0"
       inkscape:label="1"
       id="page1"
       width="816"
       height="1056"
       margin="0"
       bleed="0" />
  </sodipodi:namedview>
  <g
     id="g1"
     inkscape:groupmode="layer"
     inkscape:label="1">
    <path
       id="path11"
       d="m 319.94125,480.84954 1.6946,-1.1121 1.69419,-1.11084 1.69459,-1.1121 1.69419,-1.11084 1.69419,-1.11083 1.6946,-1.11211 1.69418,-1.11083 1.6946,-1.11211 1.69419,-1.11083 1.69418,-1.11084 1.6946,-1.1121 1.69546,-1.11043 1.69459,-1.1121 1.69419,-1.11083 1.69419,-1.11084 1.6946,-1.1121 1.69418,-1.11084 1.6946,-1.1121 1.69419,-1.11084 1.6946,-1.1121 1.69418,-1.11084 1.69419,-1.11084 1.6946,-1.1121 1.69418,-1.11083 1.6946,-1.11211 1.69419,-1.11083 1.69418,-1.11084 1.6946,-1.1121 1.69546,-1.11043 1.6946,-1.1121 1.69418,-1.11084 1.69419,-1.11083 1.6946,-1.11211 1.69418,-1.11083 1.6946,-1.11211 1.69419,-1.11083 1.6946,-1.11211 1.69418,-1.11083 1.69419,-1.11084 1.6946,-1.1121 1.69418,-1.11084 1.6946,-1.1121 1.69419,-1.11084 1.69419,-1.11083 1.69459,-1.11211 1.69419,-1.11083 1.69587,-1.11169 1.69418,-1.11084 1.69419,-1.11083 1.6946,-1.11211 1.69418,-1.11083 1.6946,-1.11211 1.69419,-1.11083 1.69419,-1.11084 1.69459,-1.1121 1.69419,-1.11084 1.6946,-1.1121 1.69418,-1.11084 1.6946,-1.1121 1.69419,-1.11084 1.69419,-1.11083 1.69459,-1.11211 1.69419,-1.11083 1.6946,-1.11211 1.69545,-1.11042 1.69419,-1.11084 1.6946,-1.1121 1.69418,-1.11084 1.6946,-1.1121 1.69419,-1.11084 1.69419,-1.11083 1.69459,-1.11211 1.69419,-1.11083 1.6946,-1.11211 1.69419,-1.11083 1.69459,-1.1121 1.69419,-1.11084 1.69419,-1.11084 1.6946,-1.1121 1.69418,-1.11084 1.6946,-1.1121 1.69545,-1.11042 1.69419,-1.11084 1.6946,-1.1121 1.69419,-1.11084 1.69459,-1.1121 1.69419,-1.11084 1.69419,-1.11083 1.6946,-1.11211 1.69418,-1.11083 1.6946,-1.11211 1.69419,-1.11083 1.69418,-1.11084 1.6946,-1.1121 1.69419,-1.11084 1.6946,-1.1121 1.69418,-1.11084 1.6946,-1.1121 1.69419,-1.11084 1.69545,-1.11042"
       style="fill:none;stroke:#c8c8c8;stroke-width:4;stroke-linecap:round;stroke-linejoin:miter;stroke-miterlimit:10;stroke-dasharray:none;stroke-opacity:1" />
    <path
       id="path12"
       d="m 306.60835,439.81298 1.6431,-0.95359 1.64351,-0.95487 1.64351,-0.95486 1.6435,-0.95486 1.64351,-0.95486 1.64351,-0.95487 1.64309,-0.95359 1.64351,-0.95486 1.64351,-0.95487 1.64351,-0.95486 1.6435,-0.95486 1.6431,-0.9536 1.64351,-0.95486 1.64477,-0.95445 1.64351,-0.95486 1.64351,-0.95486 1.64309,-0.9536 1.64351,-0.95486 1.64351,-0.95486 1.64351,-0.95486 1.6435,-0.95487 1.6431,-0.95359 1.64351,-0.95486 1.64351,-0.95487 1.6435,-0.95486 1.64351,-0.95486 1.6431,-0.9536 1.6435,-0.95486 1.64351,-0.95486 1.64351,-0.95486 1.64351,-0.95487 1.64436,-0.95318 1.64351,-0.95486 1.64351,-0.95486 1.6435,-0.95487 1.64351,-0.95486 1.6431,-0.95359 1.6435,-0.95486 1.64351,-0.95487 1.64351,-0.95486 1.64351,-0.95486 1.64309,-0.9536 1.64351,-0.95486 1.64351,-0.95486 1.64351,-0.95486 1.6435,-0.95487 1.6431,-0.95359 1.64351,-0.95486 1.64477,-0.95445 1.64351,-0.95487 1.64351,-0.95486 1.64309,-0.95359 1.64351,-0.95487 1.64351,-0.95486 1.64351,-0.95486 1.6435,-0.95486 1.6431,-0.9536 1.64351,-0.95486 1.6435,-0.95486 1.64351,-0.95487 1.64351,-0.95486 1.64309,-0.95359 1.64351,-0.95486 1.64351,-0.95487 1.64351,-0.95486 1.64351,-0.95486 1.64477,-0.95445 1.6431,-0.9536 1.6435,-0.95486 1.64351,-0.95486 1.64351,-0.95486 1.64351,-0.95487 1.64309,-0.95359 1.64351,-0.95486 1.64351,-0.95487 1.64351,-0.95486 1.6435,-0.95486 1.6431,-0.9536 1.64351,-0.95486 1.6435,-0.95486 1.64351,-0.95486 1.64351,-0.95487 1.64309,-0.95359 1.64351,-0.95486 1.64478,-0.95445 1.64351,-0.95487 1.6435,-0.95486 1.6431,-0.95359 1.64351,-0.95486 1.6435,-0.95487 1.64351,-0.95486 1.64351,-0.95486 1.64309,-0.9536 1.64351,-0.95486 1.64351,-0.95486 1.64351,-0.95486 1.64351,-0.95487 1.64309,-0.95359 1.64351,-0.95486 1.64351,-0.95487"
       style="fill:none;stroke:#c8c8c8;stroke-width:4;stroke-linecap:round;stroke-linejoin:miter;stroke-miterlimit:10;stroke-dasharray:none;stroke-opacity:1" />
    <path
       id="path13"
       d="m 293.27505,398.77769 1.59241,-0.79762 1.59242,-0.79763 1.59283,-0.79888 1.59242,-0.79763 1.59241,-0.79762 1.59242,-0.79762 1.59242,-0.79762 1.59282,-0.79889 1.59242,-0.79762 1.59242,-0.79762 1.59242,-0.79762 1.59241,-0.79762 1.59283,-0.79889 1.59242,-0.79762 1.59241,-0.79762 1.59369,-0.79721 1.59242,-0.79762 1.59282,-0.79889 1.59242,-0.79762 1.59242,-0.79763 1.59242,-0.79762 1.59241,-0.79762 1.59283,-0.79889 1.59242,-0.79762 1.59241,-0.79762 1.59242,-0.79762 1.59242,-0.79762 1.59283,-0.79889 1.59241,-0.79762 1.59242,-0.79762 1.59242,-0.79762 1.59241,-0.79763 1.59283,-0.79888 1.59369,-0.79721 1.59241,-0.79763 1.59242,-0.79762 1.59242,-0.79762 1.59242,-0.79762 1.59282,-0.79889 1.59242,-0.79762 1.59242,-0.79762 1.59241,-0.79762 1.59242,-0.79762 1.59283,-0.79889 1.59242,-0.79762 1.59241,-0.79762 1.59242,-0.79762 1.59242,-0.79763 1.59283,-0.79889 1.59241,-0.79762 1.59242,-0.79762 1.59368,-0.79721 1.59242,-0.79762 1.59283,-0.79889 1.59242,-0.79762 1.59241,-0.79762 1.59242,-0.79762 1.59242,-0.79762 1.59283,-0.79889 1.59241,-0.79762 1.59242,-0.79762 1.59242,-0.79762 1.59241,-0.79763 1.59283,-0.79888 1.59242,-0.79763 1.59242,-0.79762 1.59241,-0.79762 1.59242,-0.79762 1.5941,-0.79848 1.59241,-0.79762 1.59242,-0.79762 1.59242,-0.79762 1.59241,-0.79762 1.59283,-0.79889 1.59242,-0.79762 1.59242,-0.79762 1.59241,-0.79762 1.59242,-0.79762 1.59283,-0.79889 1.59242,-0.79762 1.59241,-0.79763 1.59242,-0.79762 1.59242,-0.79762 1.59282,-0.79889 1.59242,-0.79762 1.59242,-0.79762 1.59368,-0.79721 1.59242,-0.79762 1.59283,-0.79889 1.59242,-0.79762 1.59241,-0.79762 1.59242,-0.79762 1.59242,-0.79762 1.59283,-0.79889 1.59241,-0.79762 1.59242,-0.79763 1.59242,-0.79762 1.59241,-0.79762 1.59242,-0.79762 1.59283,-0.79889"
       style="fill:none;stroke:#c8c8c8;stroke-width:4;stroke-linecap:round;stroke-linejoin:miter;stroke-miterlimit:10;stroke-dasharray:none;stroke-opacity:1" />
    <path
       id="path14"
       d="m 279.94047,357.74198 1.54301,-0.64123 1.54173,-0.64165 1.54133,-0.64038 1.54174,-0.64165 1.54132,-0.64038 1.54174,-0.64165 1.54133,-0.64038 1.54174,-0.64164 1.54173,-0.64165 1.54133,-0.64038 1.54174,-0.64165 1.54132,-0.64038 1.54174,-0.64165 1.54174,-0.64165 1.54133,-0.64038 1.54173,-0.64164 1.54133,-0.64038 1.54174,-0.64165 1.543,-0.64124 1.54133,-0.64038 1.54174,-0.64164 1.54132,-0.64038 1.54174,-0.64165 1.54174,-0.64165 1.54133,-0.64038 1.54173,-0.64165 1.54133,-0.64038 1.54174,-0.64165 1.54132,-0.64038 1.54174,-0.64164 1.54174,-0.64165 1.54133,-0.64038 1.54173,-0.64165 1.54133,-0.64038 1.54174,-0.64165 1.543,-0.64123 1.54133,-0.64038 1.54174,-0.64165 1.54132,-0.64038 1.54174,-0.64165 1.54174,-0.64165 1.54133,-0.64038 1.54173,-0.64164 1.54133,-0.64038 1.54174,-0.64165 1.54132,-0.64038 1.54174,-0.64165 1.54174,-0.64165 1.54133,-0.64038 1.54173,-0.64164 1.54133,-0.64038 1.54174,-0.64165 1.54174,-0.64165 1.54259,-0.63997 1.54174,-0.64165 1.54132,-0.64038 1.54174,-0.64164 1.54174,-0.64165 1.54133,-0.64038 1.54174,-0.64165 1.54132,-0.64038 1.54174,-0.64165 1.54174,-0.64164 1.54132,-0.64038 1.54174,-0.64165 1.54133,-0.64038 1.54174,-0.64165 1.54132,-0.64038 1.54174,-0.64165 1.54174,-0.64165 1.54132,-0.64037 1.54301,-0.64124 1.54133,-0.64038 1.54173,-0.64165 1.54174,-0.64165 1.54133,-0.64038 1.54174,-0.64164 1.54132,-0.64038 1.54174,-0.64165 1.54174,-0.64165 1.54132,-0.64038 1.54174,-0.64165 1.54133,-0.64038 1.54174,-0.64164 1.54132,-0.64038 1.54174,-0.64165 1.54174,-0.64165 1.54132,-0.64038 1.54301,-0.64124 1.54133,-0.64038 1.54173,-0.64164 1.54174,-0.64165 1.54133,-0.64038 1.54174,-0.64165 1.54132,-0.64038 1.54174,-0.64165 1.54174,-0.64164 1.54132,-0.64038 1.54174,-0.64165 1.54133,-0.64038"
       style="fill:none;stroke:#c8c8c8;stroke-width:4;stroke-linecap:round;stroke-linejoin:miter;stroke-miterlimit:10;stroke-dasharray:none;stroke-opacity:1" />
    <path
       id="path16"
       d="m 332.84656,522.72489 -0.6666,-2.05175 -0.6666,-2.05174 -0.66661,-2.05175 -0.6666,-2.05175 -0.6666,-2.05174 -0.6666,-2.05174 -0.6666,-2.05175 -0.66661,-2.05174 -0.66786,-2.05215 -0.6666,-2.05175 -0.66661,-2.05174 -0.6666,-2.05174 -0.6666,-2.05175 -0.6666,-2.05175 -0.66661,-2.05174 -0.6666,-2.05175 -0.6666,-2.05174 -0.6666,-2.05174 -0.6666,-2.05175 -0.6666,-2.05174 -0.66661,-2.05174 -0.6666,-2.05175 -0.6666,-2.05174 -0.6666,-2.05174 -0.6666,-2.05175 -0.66661,-2.05175 -0.66787,-2.05215 -0.6666,-2.05175 -0.66661,-2.05174 -0.66619,-2.05302 -0.6666,-2.05174 -0.6666,-2.05174 -0.6666,-2.05175 -0.6666,-2.05174 -0.66661,-2.05174 -0.6666,-2.05175 -0.6666,-2.05174 -0.6666,-2.05175 -0.6666,-2.05175 -0.66661,-2.05174 -0.6666,-2.05174 -0.6666,-2.05175 -0.6666,-2.05174 -0.66661,-2.05174 -0.66786,-2.05216 -0.6666,-2.05174 -0.66661,-2.05174 -0.6666,-2.05175 -0.6666,-2.05175 -0.6666,-2.05174 -0.6666,-2.05175 -0.66661,-2.05174 -0.6666,-2.05174 -0.6666,-2.05175 -0.6666,-2.05174 -0.6666,-2.05174 -0.6666,-2.05175 -0.66661,-2.05174 -0.6666,-2.05174 -0.6666,-2.05175 -0.6666,-2.05175 -0.66787,-2.05215 -0.6666,-2.05175 -0.6666,-2.05174 -0.66661,-2.05174 -0.6666,-2.05175 -0.6666,-2.05174 -0.6666,-2.05174 -0.6666,-2.05175 -0.66661,-2.05174 -0.6666,-2.05175 -0.6666,-2.05175 -0.6666,-2.05174 -0.66661,-2.05174 -0.6666,-2.05175 -0.6666,-2.05174 -0.6666,-2.05174 -0.6666,-2.05174 -0.6666,-2.05175 -0.66787,-2.05215 -0.66661,-2.05174 -0.6666,-2.05176 -0.6666,-2.05174 -0.6666,-2.05174 -0.6666,-2.05175 -0.6666,-2.05174 -0.66661,-2.05174 -0.6666,-2.05175 -0.66619,-2.05301 -0.6666,-2.05175 -0.6666,-2.05174 -0.66661,-2.05174 -0.6666,-2.05175 -0.6666,-2.05174 -0.6666,-2.05174 -0.6666,-2.05175 -0.6666,-2.05174 -0.66788,-2.05216 -0.6666,-2.05175 -0.66661,-2.05174"
       style="fill:none;stroke:#c8c8c8;stroke-width:4;stroke-linecap:round;stroke-linejoin:miter;stroke-miterlimit:10;stroke-dasharray:none;stroke-opacity:1" />
    <path
       id="path17"
       d="m 367.75337,497.36375 -0.71728,-1.89576 -0.71769,-1.89451 -0.71728,-1.89577 -0.71769,-1.89451 -0.7177,-1.8945 -0.71728,-1.89577 -0.71769,-1.8945 -0.71728,-1.89577 -0.7177,-1.8945 -0.71769,-1.8945 -0.71728,-1.89578 -0.71896,-1.89492 -0.71728,-1.89576 -0.71769,-1.89451 -0.71769,-1.8945 -0.71728,-1.89577 -0.7177,-1.8945 -0.71728,-1.89578 -0.71769,-1.8945 -0.71728,-1.89577 -0.71769,-1.8945 -0.7177,-1.8945 -0.71728,-1.89577 -0.71769,-1.8945 -0.71728,-1.89578 -0.71769,-1.8945 -0.7177,-1.89451 -0.71728,-1.89576 -0.71896,-1.89492 -0.71728,-1.89577 -0.71769,-1.8945 -0.71769,-1.8945 -0.71728,-1.89578 -0.71769,-1.8945 -0.71729,-1.89577 -0.71769,-1.8945 -0.71728,-1.89577 -0.71769,-1.8945 -0.7177,-1.89451 -0.71727,-1.89577 -0.7177,-1.89451 -0.71728,-1.89576 -0.71769,-1.89451 -0.7177,-1.8945 -0.71728,-1.89577 -0.71769,-1.8945 -0.71855,-1.89619 -0.7177,-1.8945 -0.71769,-1.89451 -0.71728,-1.89576 -0.71769,-1.89451 -0.71729,-1.89577 -0.71769,-1.8945 -0.71769,-1.8945 -0.71728,-1.89578 -0.71769,-1.8945 -0.71728,-1.89577 -0.7177,-1.8945 -0.71728,-1.89577 -0.71769,-1.8945 -0.71769,-1.89451 -0.71728,-1.89577 -0.7177,-1.8945 -0.71728,-1.89577 -0.71896,-1.89492 -0.71769,-1.8945 -0.71728,-1.89577 -0.71769,-1.8945 -0.71728,-1.89577 -0.7177,-1.8945 -0.71769,-1.8945 -0.71728,-1.89578 -0.71769,-1.8945 -0.71728,-1.89577 -0.7177,-1.8945 -0.71728,-1.89577 -0.71769,-1.8945 -0.71769,-1.89451 -0.71728,-1.89578 -0.7177,-1.8945 -0.71728,-1.89577 -0.71895,-1.89491 -0.7177,-1.8945 -0.71728,-1.89577 -0.71769,-1.8945 -0.71728,-1.89578 -0.71769,-1.8945 -0.7177,-1.89451 -0.71728,-1.89576 -0.71769,-1.89451 -0.71728,-1.89576 -0.7177,-1.89451 -0.71769,-1.8945 -0.71728,-1.89578 -0.71769,-1.8945 -0.71728,-1.89577 -0.71769,-1.8945 -0.71729,-1.89577 -0.71769,-1.8945 -0.71896,-1.89491"
       style="fill:none;stroke:#c8c8c8;stroke-width:4;stroke-linecap:round;stroke-linejoin:miter;stroke-miterlimit:10;stroke-dasharray:none;stroke-opacity:1" />
    <path
       id="path18"
       d="m 402.6606,472.00136 -0.76878,-1.73727 -0.76837,-1.73853 -0.76837,-1.73853 -0.76837,-1.73853 -0.76837,-1.73853 -0.76838,-1.73853 -0.76878,-1.73725 -0.76837,-1.73853 -0.76837,-1.73853 -0.76838,-1.73853 -0.76837,-1.73853 -0.76878,-1.73726 -0.76837,-1.73853 -0.76965,-1.73895 -0.76837,-1.73853 -0.76837,-1.73853 -0.76878,-1.73726 -0.76838,-1.73853 -0.76837,-1.73853 -0.76837,-1.73853 -0.76837,-1.73853 -0.76879,-1.73725 -0.76837,-1.73853 -0.76837,-1.73853 -0.76837,-1.73853 -0.76837,-1.73853 -0.76878,-1.73727 -0.76838,-1.73853 -0.76837,-1.73853 -0.76837,-1.73853 -0.76837,-1.73853 -0.77005,-1.73767 -0.76837,-1.73853 -0.76837,-1.73853 -0.76837,-1.73853 -0.76838,-1.73853 -0.76878,-1.73725 -0.76837,-1.73853 -0.76837,-1.73853 -0.76838,-1.73853 -0.76837,-1.73853 -0.76878,-1.73727 -0.76837,-1.73853 -0.76837,-1.73853 -0.76837,-1.73853 -0.76838,-1.73853 -0.76878,-1.73725 -0.76837,-1.73853 -0.76964,-1.73894 -0.76837,-1.73853 -0.76837,-1.73853 -0.76879,-1.73726 -0.76837,-1.73853 -0.76837,-1.73853 -0.76837,-1.73853 -0.76837,-1.73853 -0.76878,-1.73727 -0.76838,-1.73853 -0.76837,-1.73853 -0.76837,-1.73853 -0.76837,-1.73853 -0.76879,-1.73725 -0.76837,-1.73853 -0.76837,-1.73853 -0.76837,-1.73853 -0.76837,-1.73853 -0.76965,-1.73894 -0.76878,-1.73727 -0.76837,-1.73853 -0.76838,-1.73853 -0.76837,-1.73853 -0.76837,-1.73853 -0.76878,-1.73726 -0.76837,-1.73853 -0.76837,-1.73853 -0.76838,-1.73853 -0.76837,-1.73853 -0.76878,-1.73725 -0.76837,-1.73853 -0.76838,-1.73853 -0.76837,-1.73853 -0.76837,-1.73853 -0.76878,-1.73727 -0.76837,-1.73853 -0.76964,-1.73894 -0.76837,-1.73853 -0.76837,-1.73853 -0.76879,-1.73726 -0.76837,-1.73853 -0.76837,-1.73853 -0.76837,-1.73853 -0.76837,-1.73853 -0.76879,-1.73725 -0.76837,-1.73853 -0.76837,-1.73853 -0.76837,-1.73853 -0.76837,-1.73853 -0.76879,-1.73727 -0.76837,-1.73853 -0.76837,-1.73853"
       style="fill:none;stroke:#c8c8c8;stroke-width:4;stroke-linecap:round;stroke-linejoin:miter;stroke-miterlimit:10;stroke-dasharray:none;stroke-opacity:1" />
    <path
       id="path19"
       d="m 437.56742,446.64022 -0.81947,-1.58128 -0.81946,-1.58129 -0.81905,-1.58256 -0.81946,-1.58129 -0.81946,-1.58128 -0.81947,-1.58129 -0.81946,-1.58129 -0.81905,-1.58256 -0.81946,-1.58128 -0.81946,-1.58129 -0.81947,-1.58129 -0.81946,-1.58129 -0.81905,-1.58255 -0.81946,-1.58129 -0.81946,-1.58129 -0.82073,-1.5817 -0.81946,-1.58129 -0.81905,-1.58255 -0.81947,-1.5813 -0.81946,-1.58128 -0.81946,-1.58129 -0.81946,-1.58129 -0.81906,-1.58255 -0.81946,-1.58129 -0.81946,-1.58129 -0.81946,-1.58128 -0.81946,-1.58129 -0.81906,-1.58256 -0.81946,-1.58129 -0.81946,-1.58128 -0.81946,-1.58129 -0.81946,-1.5813 -0.81905,-1.58255 -0.82074,-1.5817 -0.81946,-1.58129 -0.81947,-1.58129 -0.81946,-1.58128 -0.81946,-1.58129 -0.81905,-1.58256 -0.81946,-1.58129 -0.81947,-1.58128 -0.81946,-1.5813 -0.81946,-1.58129 -0.81905,-1.58255 -0.81947,-1.58129 -0.81946,-1.58129 -0.81946,-1.58129 -0.81946,-1.58128 -0.81905,-1.58256 -0.81946,-1.58129 -0.81947,-1.58129 -0.82073,-1.58169 -0.81946,-1.58129 -0.81905,-1.58256 -0.81946,-1.58129 -0.81946,-1.58128 -0.81946,-1.58129 -0.81947,-1.5813 -0.81905,-1.58255 -0.81946,-1.58128 -0.81946,-1.5813 -0.81946,-1.58129 -0.81947,-1.58128 -0.81905,-1.58255 -0.81946,-1.5813 -0.81946,-1.58129 -0.81947,-1.58128 -0.81946,-1.58129 -0.82031,-1.58297 -0.81946,-1.58129 -0.81947,-1.58128 -0.81946,-1.58129 -0.81946,-1.58129 -0.81905,-1.58256 -0.81947,-1.58128 -0.81946,-1.58129 -0.81946,-1.5813 -0.81946,-1.58128 -0.81905,-1.58255 -0.81946,-1.5813 -0.81947,-1.58129 -0.81946,-1.58128 -0.81946,-1.58129 -0.81905,-1.58256 -0.81946,-1.58129 -0.81947,-1.58128 -0.82073,-1.5817 -0.81946,-1.5813 -0.81906,-1.58255 -0.81946,-1.58128 -0.81946,-1.5813 -0.81946,-1.58129 -0.81947,-1.58128 -0.81905,-1.58256 -0.81946,-1.58129 -0.81946,-1.58129 -0.81946,-1.58128 -0.81947,-1.58129 -0.81946,-1.58129 -0.81905,-1.58256"
       style="fill:none;stroke:#c8c8c8;stroke-width:4;stroke-linecap:round;stroke-linejoin:miter;stroke-miterlimit:10;stroke-dasharray:none;stroke-opacity:1" />
    <path
       id="path20"
       d="m 472.47549,421.27951 -0.8714,-1.42573 -0.87015,-1.42531 -0.87055,-1.42405 -0.87014,-1.42531 -0.87055,-1.42405 -0.87015,-1.42531 -0.87055,-1.42405 -0.87014,-1.42531 -0.87014,-1.42532 -0.87055,-1.42405 -0.87014,-1.42531 -0.87056,-1.42405 -0.87014,-1.42532 -0.87014,-1.42531 -0.87055,-1.42405 -0.87014,-1.42532 -0.87056,-1.42404 -0.87014,-1.42532 -0.87141,-1.42572 -0.87055,-1.42405 -0.87014,-1.42531 -0.87055,-1.42405 -0.87015,-1.42531 -0.87014,-1.42532 -0.87055,-1.42404 -0.87014,-1.42532 -0.87055,-1.42404 -0.87014,-1.42532 -0.87056,-1.42405 -0.87014,-1.42531 -0.87014,-1.42532 -0.87055,-1.42405 -0.87014,-1.42531 -0.87056,-1.42405 -0.87014,-1.42532 -0.87141,-1.42572 -0.87055,-1.42405 -0.87014,-1.42531 -0.87055,-1.42405 -0.87014,-1.42531 -0.87014,-1.42532 -0.87056,-1.42404 -0.87014,-1.42532 -0.87055,-1.42404 -0.87014,-1.42532 -0.87056,-1.42404 -0.87014,-1.42532 -0.87014,-1.42532 -0.87055,-1.42404 -0.87014,-1.42532 -0.87056,-1.42405 -0.87014,-1.42531 -0.87014,-1.42531 -0.87183,-1.42447 -0.87014,-1.42531 -0.87055,-1.42405 -0.87014,-1.42531 -0.87014,-1.42532 -0.87056,-1.42404 -0.87014,-1.42532 -0.87055,-1.42404 -0.87014,-1.42532 -0.87014,-1.42532 -0.87056,-1.42404 -0.87014,-1.42532 -0.87055,-1.42405 -0.87014,-1.42531 -0.87056,-1.42405 -0.87014,-1.42532 -0.87014,-1.42531 -0.87055,-1.42405 -0.87141,-1.42572 -0.87055,-1.42405 -0.87014,-1.42531 -0.87014,-1.42532 -0.87056,-1.42404 -0.87014,-1.42532 -0.87055,-1.42404 -0.87014,-1.42532 -0.87014,-1.42532 -0.87056,-1.42404 -0.87014,-1.42532 -0.87055,-1.42405 -0.87014,-1.42531 -0.87055,-1.42405 -0.87015,-1.42532 -0.87014,-1.4253 -0.87055,-1.42406 -0.87141,-1.42572 -0.87055,-1.42405 -0.87014,-1.42531 -0.87014,-1.42532 -0.87056,-1.42404 -0.87014,-1.42532 -0.87055,-1.42404 -0.87014,-1.42532 -0.87014,-1.42532 -0.87056,-1.42404 -0.87014,-1.42532 -0.87055,-1.42404"
       style="fill:none;stroke:#c8c8c8;stroke-width:4;stroke-linecap:round;stroke-linejoin:miter;stroke-miterlimit:10;stroke-dasharray:none;stroke-opacity:1" />
    <path
       id="path21"
       d="m 332.73543,521.49336 -0.6666,2.05174 -0.6666,2.05174 -0.66661,2.05175 -0.6666,2.05174 -0.6666,2.05175 -0.6666,2.05174 -0.6666,2.05174 -0.66661,2.05175 -0.66787,2.05215 -0.6666,2.05175 -0.6666,2.05174 -0.6666,2.05175 -0.6666,2.05174 -0.66661,2.05174 -0.6666,2.05175 -0.6666,2.05174 -0.6666,2.05175 -0.6666,2.05174 -0.66661,2.05174 -0.6666,2.05175 -0.6666,2.05174 -0.6666,2.05175 -0.6666,2.05174 -0.66661,2.05174 -0.6666,2.05175 -0.6666,2.05174 -0.66787,2.05216 -0.6666,2.05174 -0.6666,2.05175 -0.66619,2.05301 -0.66661,2.05174 -0.6666,2.05175 -0.6666,2.05174 -0.6666,2.05175 -0.66661,2.05174 -0.6666,2.05174 -0.6666,2.05175 -0.6666,2.05174 -0.6666,2.05175 -0.66661,2.05174 -0.6666,2.05174 -0.6666,2.05175 -0.6666,2.05174 -0.6666,2.05175 -0.66787,2.05215 -0.66661,2.05175 -0.6666,2.05174 -0.6666,2.05174 -0.6666,2.05175 -0.6666,2.05174 -0.66661,2.05175 -0.6666,2.05174 -0.6666,2.05174 -0.6666,2.05175 -0.6666,2.05174 -0.66661,2.05175 -0.6666,2.05174 -0.6666,2.05174 -0.6666,2.05175 -0.6666,2.05174 -0.66661,2.05175 -0.66787,2.05215 -0.6666,2.05175 -0.6666,2.05174 -0.6666,2.05175 -0.6666,2.05174 -0.66661,2.05174 -0.6666,2.05175 -0.6666,2.05174 -0.6666,2.05175 -0.6666,2.05174 -0.66661,2.05174 -0.6666,2.05175 -0.6666,2.05174 -0.6666,2.05175 -0.6666,2.05174 -0.66661,2.05174 -0.6666,2.05175 -0.6666,2.05174 -0.66787,2.05216 -0.6666,2.05174 -0.6666,2.05175 -0.66661,2.05174 -0.6666,2.05174 -0.6666,2.05175 -0.6666,2.05174 -0.6666,2.05175 -0.66661,2.05174 -0.66619,2.05301 -0.6666,2.05175 -0.6666,2.05174 -0.6666,2.05174 -0.6666,2.05175 -0.66661,2.05174 -0.6666,2.05175 -0.6666,2.05174 -0.6666,2.05175 -0.66787,2.05215 -0.66661,2.05175 -0.6666,2.05174"
       style="fill:none;stroke:#c8c8c8;stroke-width:4;stroke-linecap:round;stroke-linejoin:miter;stroke-miterlimit:10;stroke-dasharray:none;stroke-opacity:1" />
    <path
       id="path22"
       d="m 367.64224,546.85448 -0.71728,1.89578 -0.71769,1.8945 -0.71728,1.89577 -0.7177,1.8945 -0.71769,1.8945 -0.71728,1.89578 -0.71769,1.8945 -0.71728,1.89577 -0.7177,1.8945 -0.71769,1.8945 -0.71728,1.89577 -0.71896,1.89492 -0.71728,1.89577 -0.71769,1.8945 -0.7177,1.89451 -0.71728,1.89577 -0.71769,1.8945 -0.71728,1.89577 -0.71769,1.8945 -0.71728,1.89577 -0.7177,1.89451 -0.71769,1.8945 -0.71728,1.89577 -0.71769,1.8945 -0.71728,1.89577 -0.7177,1.89451 -0.71769,1.8945 -0.71728,1.89577 -0.71896,1.89491 -0.71728,1.89578 -0.7177,1.8945 -0.71769,1.8945 -0.71728,1.89577 -0.71769,1.8945 -0.71728,1.89577 -0.7177,1.89451 -0.71728,1.89577 -0.71769,1.8945 -0.71769,1.8945 -0.71728,1.89577 -0.7177,1.89451 -0.71728,1.89577 -0.71769,1.8945 -0.71769,1.8945 -0.71728,1.89577 -0.7177,1.89451 -0.71854,1.89618 -0.7177,1.8945 -0.71769,1.89451 -0.71728,1.89577 -0.71769,1.8945 -0.71728,1.89577 -0.7177,1.8945 -0.71769,1.89451 -0.71728,1.89577 -0.71769,1.8945 -0.71729,1.89577 -0.71769,1.8945 -0.71728,1.89577 -0.71769,1.89451 -0.71769,1.8945 -0.71729,1.89577 -0.71769,1.8945 -0.71728,1.89577 -0.71896,1.89492 -0.71769,1.8945 -0.71728,1.89577 -0.7177,1.8945 -0.71728,1.89577 -0.71769,1.89451 -0.71769,1.8945 -0.71728,1.89577 -0.7177,1.8945 -0.71728,1.89577 -0.71769,1.89451 -0.71728,1.89577 -0.71769,1.8945 -0.7177,1.8945 -0.71728,1.89577 -0.71769,1.89451 -0.71728,1.89577 -0.71896,1.89491 -0.71769,1.89451 -0.71729,1.89577 -0.71769,1.8945 -0.71728,1.89577 -0.71769,1.8945 -0.71769,1.8945 -0.71729,1.89578 -0.71769,1.8945 -0.71728,1.89577 -0.71769,1.8945 -0.71769,1.8945 -0.71729,1.89578 -0.71769,1.8945 -0.71728,1.89577 -0.71769,1.8945 -0.71728,1.89577 -0.7177,1.89451 -0.71896,1.89491"
       style="fill:none;stroke:#c8c8c8;stroke-width:4;stroke-linecap:round;stroke-linejoin:miter;stroke-miterlimit:10;stroke-dasharray:none;stroke-opacity:1" />
    <path
       id="path23"
       d="m 402.54947,572.21688 -0.76879,1.73726 -0.76837,1.73853 -0.76837,1.73853 -0.76837,1.73853 -0.76837,1.73853 -0.76838,1.73853 -0.76878,1.73726 -0.76837,1.73853 -0.76837,1.73853 -0.76837,1.73853 -0.76838,1.73853 -0.76878,1.73726 -0.76837,1.73853 -0.76964,1.73894 -0.76837,1.73853 -0.76837,1.73853 -0.76879,1.73726 -0.76837,1.73853 -0.76837,1.73853 -0.76837,1.73853 -0.76837,1.73853 -0.76879,1.73726 -0.76837,1.73853 -0.76837,1.73853 -0.76837,1.73853 -0.76837,1.73853 -0.76879,1.73726 -0.76837,1.73853 -0.76837,1.73853 -0.76837,1.73853 -0.76837,1.73853 -0.77006,1.73767 -0.76837,1.73853 -0.76837,1.73853 -0.76837,1.73853 -0.76837,1.73853 -0.76879,1.73726 -0.76837,1.73853 -0.76837,1.73853 -0.76837,1.73853 -0.76837,1.73853 -0.76879,1.73726 -0.76837,1.73853 -0.76837,1.73853 -0.76837,1.73853 -0.76837,1.73853 -0.76879,1.73726 -0.76837,1.73853 -0.76964,1.73894 -0.76837,1.73853 -0.76837,1.73853 -0.76878,1.73726 -0.76838,1.73853 -0.76837,1.73853 -0.76837,1.73853 -0.76837,1.73853 -0.76878,1.73726 -0.76838,1.73853 -0.76837,1.73853 -0.76837,1.73853 -0.76837,1.73853 -0.76878,1.73726 -0.76838,1.73853 -0.76837,1.73853 -0.76837,1.73853 -0.76837,1.73853 -0.76964,1.73894 -0.76878,1.73726 -0.76838,1.73853 -0.76837,1.73853 -0.76837,1.73853 -0.76837,1.73853 -0.76878,1.73726 -0.76838,1.73853 -0.76837,1.73853 -0.76837,1.73853 -0.76837,1.73853 -0.76878,1.73726 -0.76838,1.73853 -0.76837,1.73853 -0.76837,1.73853 -0.76837,1.73853 -0.76878,1.73726 -0.76838,1.73853 -0.76964,1.73894 -0.76837,1.73853 -0.76837,1.73853 -0.76878,1.73726 -0.76837,1.73853 -0.76838,1.73853 -0.76837,1.73853 -0.76837,1.73853 -0.76878,1.73726 -0.76837,1.73853 -0.76838,1.73853 -0.76837,1.73853 -0.76837,1.73853 -0.76878,1.73726 -0.76837,1.73853 -0.76838,1.73853"
       style="fill:none;stroke:#c8c8c8;stroke-width:4;stroke-linecap:round;stroke-linejoin:miter;stroke-miterlimit:10;stroke-dasharray:none;stroke-opacity:1" />
    <path
       id="path24"
       d="m 437.45628,597.57801 -0.81946,1.58129 -0.81947,1.58129 -0.81905,1.58255 -0.81946,1.58129 -0.81946,1.58129 -0.81946,1.58129 -0.81947,1.58129 -0.81905,1.58255 -0.81946,1.58129 -0.81946,1.58129 -0.81946,1.58129 -0.81947,1.58129 -0.81905,1.58255 -0.81946,1.58129 -0.81946,1.58129 -0.82073,1.5817 -0.81947,1.58129 -0.81905,1.58255 -0.81946,1.58129 -0.81946,1.58129 -0.81946,1.58129 -0.81947,1.58128 -0.81905,1.58256 -0.81946,1.58129 -0.81946,1.58129 -0.81946,1.58129 -0.81947,1.58128 -0.81905,1.58256 -0.81946,1.58129 -0.81946,1.58129 -0.81946,1.58128 -0.81947,1.58129 -0.81905,1.58256 -0.82073,1.5817 -0.81946,1.58129 -0.81946,1.58128 -0.81946,1.58129 -0.81947,1.58129 -0.81905,1.58256 -0.81946,1.58129 -0.81946,1.58128 -0.81946,1.58129 -0.81947,1.58129 -0.81905,1.58256 -0.81946,1.58128 -0.81946,1.58129 -0.81946,1.58129 -0.81947,1.58129 -0.81905,1.58255 -0.81946,1.58129 -0.81946,1.58129 -0.82073,1.5817 -0.81946,1.58129 -0.81905,1.58256 -0.81947,1.58128 -0.81946,1.58129 -0.81946,1.58129 -0.81946,1.58129 -0.81905,1.58255 -0.81947,1.58129 -0.81946,1.58129 -0.81946,1.58129 -0.81946,1.58129 -0.81905,1.58255 -0.81947,1.58129 -0.81946,1.58129 -0.81946,1.58129 -0.81946,1.58128 -0.82032,1.58297 -0.81946,1.58129 -0.81947,1.58129 -0.81946,1.58129 -0.81946,1.58129 -0.81905,1.58255 -0.81946,1.58129 -0.81947,1.58129 -0.81946,1.58129 -0.81946,1.58128 -0.81905,1.58256 -0.81946,1.58129 -0.81947,1.58129 -0.81946,1.58128 -0.81946,1.58129 -0.81905,1.58256 -0.81947,1.58129 -0.81946,1.58129 -0.82073,1.5817 -0.81946,1.58128 -0.81905,1.58256 -0.81946,1.58129 -0.81947,1.58129 -0.81946,1.58128 -0.81946,1.58129 -0.81905,1.58256 -0.81946,1.58129 -0.81947,1.58128 -0.81946,1.58129 -0.81946,1.58129 -0.81946,1.58129 -0.81905,1.58256"
       style="fill:none;stroke:#c8c8c8;stroke-width:4;stroke-linecap:round;stroke-linejoin:miter;stroke-miterlimit:10;stroke-dasharray:none;stroke-opacity:1" />
    <path
       id="path25"
       d="m 472.36436,622.93873 -0.87141,1.42573 -0.87014,1.42531 -0.87056,1.42405 -0.87014,1.42531 -0.87055,1.42405 -0.87014,1.42531 -0.87055,1.42405 -0.87015,1.42532 -0.87014,1.42531 -0.87055,1.42405 -0.87014,1.42531 -0.87055,1.42405 -0.87015,1.42531 -0.87014,1.42532 -0.87055,1.42405 -0.87014,1.42531 -0.87055,1.42405 -0.87015,1.42531 -0.87141,1.42573 -0.87055,1.42405 -0.87014,1.42531 -0.87055,1.42405 -0.87014,1.42531 -0.87015,1.42532 -0.87055,1.42404 -0.87014,1.42532 -0.87055,1.42405 -0.87014,1.42531 -0.87056,1.42405 -0.87014,1.42531 -0.87014,1.42532 -0.87055,1.42404 -0.87014,1.42532 -0.87056,1.42405 -0.87014,1.42531 -0.87141,1.42573 -0.87055,1.42404 -0.87014,1.42532 -0.87056,1.42405 -0.87014,1.42531 -0.87014,1.42532 -0.87055,1.42404 -0.87014,1.42532 -0.87056,1.42404 -0.87014,1.42532 -0.87055,1.42405 -0.87014,1.42531 -0.87014,1.42531 -0.87056,1.42405 -0.87014,1.42532 -0.87055,1.42404 -0.87014,1.42532 -0.87014,1.42531 -0.87182,1.42446 -0.87014,1.42532 -0.87056,1.42404 -0.87014,1.42532 -0.87014,1.42531 -0.87055,1.42405 -0.87014,1.42531 -0.87056,1.42405 -0.87014,1.42532 -0.87014,1.42531 -0.87055,1.42405 -0.87014,1.42531 -0.87056,1.42405 -0.87014,1.42531 -0.87055,1.42405 -0.87014,1.42532 -0.87014,1.42531 -0.87056,1.42405 -0.87141,1.42572 -0.87055,1.42405 -0.87014,1.42532 -0.87014,1.42531 -0.87056,1.42405 -0.87014,1.42531 -0.87055,1.42405 -0.87014,1.42531 -0.87014,1.42532 -0.87056,1.42405 -0.87014,1.42531 -0.87055,1.42405 -0.87014,1.42531 -0.87055,1.42405 -0.87015,1.42531 -0.87014,1.42532 -0.87055,1.42405 -0.87141,1.42572 -0.87055,1.42405 -0.87014,1.42531 -0.87014,1.42532 -0.87056,1.42405 -0.87014,1.42531 -0.87055,1.42405 -0.87014,1.42531 -0.87014,1.42532 -0.87056,1.42404 -0.87014,1.42532 -0.87055,1.42405"
       style="fill:none;stroke:#c8c8c8;stroke-width:4;stroke-linecap:round;stroke-linejoin:miter;stroke-miterlimit:10;stroke-dasharray:none;stroke-opacity:1" />
    <path
       id="path28"
       d="m 319.25465,561.59747 1.6946,1.1121 1.69419,1.11083 1.6946,1.11211 1.69418,1.11084 1.69419,1.11084 1.6946,1.1121 1.69418,1.11083 1.6946,1.1121 1.69419,1.11084 1.69418,1.11083 1.6946,1.11211 1.69546,1.11043 1.69459,1.1121 1.69419,1.11084 1.69419,1.11083 1.69459,1.1121 1.69419,1.11084 1.6946,1.11211 1.69419,1.11083 1.6946,1.1121 1.69418,1.11084 1.69419,1.11084 1.6946,1.1121 1.69418,1.11083 1.6946,1.11211 1.69419,1.11084 1.69419,1.11083 1.69459,1.1121 1.69545,1.11043 1.6946,1.1121 1.69419,1.11084 1.69419,1.11083 1.6946,1.11211 1.69418,1.11084 1.6946,1.1121 1.69419,1.11083 1.69459,1.1121 1.69419,1.11084 1.69419,1.11084 1.6946,1.11211 1.69418,1.11083 1.6946,1.1121 1.69419,1.11084 1.69418,1.11083 1.6946,1.11211 1.69419,1.11083 1.69587,1.1117 1.69419,1.11083 1.69419,1.11084 1.69459,1.1121 1.69419,1.11083 1.6946,1.11211 1.69418,1.11083 1.69419,1.11084 1.6946,1.11211 1.69419,1.11083 1.6946,1.1121 1.69418,1.11084 1.6946,1.1121 1.69419,1.11084 1.69418,1.11083 1.6946,1.11211 1.69419,1.11083 1.6946,1.11211 1.69545,1.11042 1.69419,1.11084 1.69459,1.1121 1.69419,1.11083 1.6946,1.11211 1.69418,1.11083 1.69419,1.11084 1.6946,1.11211 1.69419,1.11083 1.69459,1.1121 1.69419,1.11084 1.6946,1.1121 1.69419,1.11084 1.69418,1.11083 1.6946,1.11211 1.69419,1.11084 1.6946,1.1121 1.69545,1.11042 1.69418,1.11084 1.6946,1.1121 1.69419,1.11083 1.6946,1.11212 1.69419,1.11083 1.69418,1.11084 1.6946,1.1121 1.69419,1.11083 1.69459,1.1121 1.69419,1.11084 1.69419,1.11084 1.6946,1.11211 1.69418,1.11083 1.6946,1.1121 1.69419,1.11084 1.6946,1.1121 1.69418,1.11083 1.69545,1.11043"
       style="fill:none;stroke:#c8c8c8;stroke-width:4;stroke-linecap:round;stroke-linejoin:miter;stroke-miterlimit:10;stroke-dasharray:none;stroke-opacity:1" />
    <path
       id="path29"
       d="m 305.92175,602.63403 1.6431,0.9536 1.6435,0.95486 1.64351,0.95487 1.64351,0.95486 1.64351,0.95486 1.6435,0.95486 1.6431,0.95359 1.64351,0.95486 1.6435,0.95487 1.64351,0.95486 1.64351,0.95486 1.6431,0.9536 1.6435,0.95486 1.64479,0.95445 1.6435,0.95486 1.64351,0.95487 1.6431,0.95359 1.64351,0.95487 1.6435,0.95486 1.64351,0.95486 1.64351,0.95486 1.64309,0.95359 1.64351,0.95486 1.64351,0.95487 1.64351,0.95486 1.6435,0.95486 1.6431,0.9536 1.64351,0.95486 1.64351,0.95486 1.6435,0.95487 1.64351,0.95486 1.64436,0.95318 1.64351,0.95487 1.64351,0.95486 1.64351,0.95486 1.6435,0.95486 1.6431,0.95359 1.64351,0.95487 1.6435,0.95486 1.64351,0.95486 1.64351,0.95486 1.6431,0.9536 1.6435,0.95486 1.64351,0.95487 1.64351,0.95486 1.64351,0.95486 1.64309,0.95359 1.64351,0.95486 1.64477,0.95445 1.64351,0.95486 1.64351,0.95487 1.64309,0.95359 1.64351,0.95487 1.64351,0.95486 1.64351,0.95486 1.6435,0.95486 1.6431,0.9536 1.64351,0.95486 1.64351,0.95487 1.6435,0.95486 1.64351,0.95486 1.64309,0.95359 1.64351,0.95486 1.64351,0.95487 1.64351,0.95486 1.64351,0.95486 1.64478,0.95445 1.64309,0.9536 1.64351,0.95486 1.64351,0.95486 1.64351,0.95486 1.64351,0.95487 1.64309,0.95359 1.64351,0.95487 1.64351,0.95486 1.64351,0.95486 1.6435,0.95486 1.6431,0.95359 1.6435,0.95486 1.64351,0.95487 1.64351,0.95486 1.64351,0.95486 1.64309,0.9536 1.64351,0.95486 1.64477,0.95445 1.64351,0.95487 1.64351,0.95486 1.6431,0.9536 1.6435,0.95486 1.64351,0.95486 1.64351,0.95486 1.64351,0.95487 1.64309,0.95358 1.64351,0.95487 1.64351,0.95486 1.6435,0.95486 1.64351,0.95486 1.6431,0.9536 1.64351,0.95486 1.6435,0.95487"
       style="fill:none;stroke:#c8c8c8;stroke-width:4;stroke-linecap:round;stroke-linejoin:miter;stroke-miterlimit:10;stroke-dasharray:none;stroke-opacity:1" />
    <path
       id="path30"
       d="m 292.58845,643.66933 1.59241,0.79762 1.59242,0.79762 1.59283,0.79889 1.59242,0.79762 1.59241,0.79762 1.59242,0.79762 1.59242,0.79763 1.59282,0.79889 1.59242,0.79761 1.59242,0.79763 1.59242,0.79762 1.59241,0.79762 1.59283,0.79888 1.59242,0.79763 1.59242,0.79762 1.59368,0.79721 1.59241,0.79762 1.59283,0.79889 1.59242,0.79762 1.59241,0.79762 1.59242,0.79762 1.59242,0.79763 1.59283,0.79888 1.59241,0.79762 1.59242,0.79763 1.59242,0.79761 1.59242,0.79763 1.59282,0.79888 1.59242,0.79763 1.59242,0.79761 1.59241,0.79763 1.59242,0.79762 1.59283,0.79889 1.59369,0.7972 1.59242,0.79763 1.59242,0.79762 1.59241,0.79762 1.59242,0.79762 1.59283,0.79889 1.59242,0.79762 1.59241,0.79762 1.59242,0.79762 1.59242,0.79763 1.59283,0.79889 1.59241,0.79761 1.59242,0.79763 1.59242,0.79762 1.59241,0.79761 1.59283,0.79889 1.59242,0.79763 1.59242,0.79762 1.59368,0.79721 1.59241,0.79762 1.59283,0.79889 1.59242,0.79762 1.59242,0.79762 1.59241,0.79762 1.59242,0.79763 1.59283,0.79889 1.59242,0.79761 1.59241,0.79763 1.59242,0.79762 1.59242,0.79761 1.59283,0.79889 1.59241,0.79763 1.59242,0.79762 1.59242,0.79762 1.59241,0.79762 1.5941,0.79848 1.59242,0.79762 1.59241,0.79762 1.59242,0.79762 1.59242,0.79763 1.59283,0.79889 1.59241,0.79761 1.59242,0.79763 1.59242,0.79762 1.59241,0.79762 1.59283,0.79888 1.59242,0.79763 1.59242,0.79762 1.59241,0.79762 1.59242,0.79762 1.59283,0.79889 1.59242,0.79763 1.59241,0.79761 1.59369,0.79721 1.59242,0.79762 1.59283,0.79889 1.59241,0.79762 1.59242,0.79762 1.59242,0.79763 1.59242,0.79761 1.59282,0.79889 1.59242,0.79763 1.59242,0.79762 1.59242,0.79761 1.59241,0.79763 1.59242,0.79762 1.59283,0.79889"
       style="fill:none;stroke:#c8c8c8;stroke-width:4;stroke-linecap:round;stroke-linejoin:miter;stroke-miterlimit:10;stroke-dasharray:none;stroke-opacity:1" />
    <path
       id="path31"
       d="m 279.25387,684.70503 1.54301,0.64124 1.54173,0.64164 1.54133,0.64039 1.54174,0.64164 1.54133,0.64039 1.54173,0.64164 1.54133,0.64038 1.54174,0.64165 1.54174,0.64165 1.54132,0.64037 1.54174,0.64165 1.54132,0.64038 1.54174,0.64165 1.54174,0.64165 1.54133,0.64038 1.54174,0.64165 1.54132,0.64038 1.54174,0.64165 1.543,0.64123 1.54133,0.64039 1.54174,0.64164 1.54133,0.64038 1.54173,0.64164 1.54174,0.64166 1.54133,0.64037 1.54173,0.64165 1.54133,0.64038 1.54174,0.64165 1.54132,0.64038 1.54174,0.64165 1.54174,0.64165 1.54133,0.64038 1.54174,0.64165 1.54132,0.64037 1.54174,0.64165 1.543,0.64124 1.54133,0.64038 1.54174,0.64164 1.54132,0.64039 1.54174,0.64164 1.54174,0.64165 1.54132,0.64038 1.54174,0.64165 1.54133,0.64038 1.54174,0.64165 1.54132,0.64037 1.54174,0.64165 1.54174,0.64166 1.54133,0.64037 1.54174,0.64165 1.54132,0.64038 1.54174,0.64165 1.54174,0.64164 1.5426,0.63997 1.54173,0.64165 1.54133,0.64038 1.54174,0.64164 1.54174,0.64165 1.54132,0.64038 1.54174,0.64165 1.54133,0.64038 1.54174,0.64165 1.54174,0.64165 1.54132,0.64038 1.54174,0.64165 1.54132,0.64038 1.54174,0.64165 1.54133,0.64037 1.54174,0.64165 1.54173,0.64165 1.54133,0.64038 1.543,0.64123 1.54133,0.64039 1.54174,0.64164 1.54174,0.64165 1.54132,0.64038 1.54174,0.64165 1.54133,0.64038 1.54174,0.64165 1.54173,0.64165 1.54133,0.64037 1.54174,0.64166 1.54132,0.64037 1.54174,0.64165 1.54133,0.64038 1.54174,0.64165 1.54173,0.64164 1.54133,0.64039 1.543,0.64123 1.54133,0.64038 1.54174,0.64165 1.54174,0.64165 1.54132,0.64037 1.54174,0.64165 1.54133,0.64038 1.54173,0.64165 1.54174,0.64165 1.54133,0.64038 1.54174,0.64165 1.54132,0.64038"
       style="fill:none;stroke:#c8c8c8;stroke-width:4;stroke-linecap:round;stroke-linejoin:miter;stroke-miterlimit:10;stroke-dasharray:none;stroke-opacity:1" />
    <path
       id="path1"
       d="M 4500,4000 3118.03,2097.89 881.965,2824.43 V 5175.57 L 3118.03,5902.11 4500,4000"
       style="fill:none;stroke:#000000;stroke-width:30.00000075;stroke-linecap:round;stroke-linejoin:miter;stroke-miterlimit:10;stroke-dasharray:none;stroke-opacity:1"
       transform="matrix(0.13333333,0,0,-0.13333333,0,1056)" />
    <g
       id="g10">
      <path
         id="path2"
         d="m 2500,4000 13.09,-9.51 13.09,-9.51 13.09,-9.51 13.09,-9.51 13.09,-9.51 13.09,-9.51 13.09,-9.51 13.09,-9.51 13.09,-9.52 13.09,-9.51 13.09,-9.51 13.09,-9.51 13.09,-9.51 13.09,-9.51 13.09,-9.51 13.09,-9.51 13.09,-9.51 13.09,-9.51 13.09,-9.51 13.09,-9.51 13.09,-9.51 13.09,-9.51 13.09,-9.51 13.09,-9.51 13.09,-9.51 13.09,-9.51 13.09,-9.52 13.09,-9.51 13.09,-9.51 13.1,-9.51 13.09,-9.51 13.09,-9.51 13.09,-9.51 13.09,-9.51 13.09,-9.51 13.09,-9.51 13.09,-9.51 13.09,-9.51 13.09,-9.51 13.09,-9.51 13.09,-9.51 13.09,-9.51 13.09,-9.51 13.09,-9.51 13.09,-9.52 13.09,-9.51 13.09,-9.51 13.09,-9.51 13.09,-9.51 13.09,-9.51 13.09,-9.51 13.09,-9.51 13.09,-9.51 13.09,-9.51 13.09,-9.51 13.09,-9.51 13.09,-9.51 13.09,-9.51 13.09,-9.51 13.09,-9.51 13.09,-9.51 13.09,-9.52 13.09,-9.51 13.09,-9.51 13.09,-9.51 13.09,-9.51 13.09,-9.51 13.09,-9.51 13.09,-9.51 13.09,-9.51 13.09,-9.51 13.09,-9.51 13.09,-9.51 13.09,-9.51 13.09,-9.51 13.09,-9.51 13.09,-9.51 13.09,-9.51 13.09,-9.51 13.09,-9.52 13.09,-9.51 13.09,-9.51 13.09,-9.51 13.09,-9.51 13.09,-9.51 13.09,-9.51 13.09,-9.51 13.09,-9.51 13.1,-9.51 13.09,-9.51 13.09,-9.51 13.09,-9.51 13.09,-9.51 13.09,-9.51 13.09,-9.51 13.09,-9.51 13.09,-9.51 13.09,-9.52 13.09,-9.51 13.09,-9.51"
         style="fill:none;stroke:#000000;stroke-width:30.00000075;stroke-linecap:round;stroke-linejoin:miter;stroke-miterlimit:10;stroke-dasharray:none;stroke-opacity:1"
         transform="matrix(0.13333333,0,0,-0.13333333,0,1056)" />
      <path
         id="path3"
         d="m 2761.8,4190.21 11.86,-9.51 11.85,-9.51 11.86,-9.51 11.85,-9.51 11.85,-9.51 11.86,-9.51 11.85,-9.51 11.86,-9.51 11.85,-9.51 11.85,-9.51 11.86,-9.51 11.85,-9.52 11.86,-9.51 11.85,-9.51 11.85,-9.51 11.86,-9.51 11.85,-9.51 11.86,-9.51 11.85,-9.51 11.86,-9.51 11.85,-9.51 11.85,-9.51 11.86,-9.51 11.85,-9.51 11.86,-9.51 11.85,-9.51 11.85,-9.51 11.86,-9.51 11.85,-9.52 11.86,-9.51 11.85,-9.51 11.85,-9.51 11.86,-9.51 11.85,-9.51 11.86,-9.51 11.85,-9.51 11.86,-9.51 11.85,-9.51 11.85,-9.51 11.86,-9.51 11.85,-9.51 11.86,-9.51 11.85,-9.51 11.85,-9.51 11.86,-9.51 11.85,-9.51 11.86,-9.52 11.85,-9.51 11.85,-9.51 11.86,-9.51 11.85,-9.51 11.86,-9.51 11.85,-9.51 11.85,-9.51 11.86,-9.51 11.85,-9.51 11.86,-9.51 11.85,-9.51 11.86,-9.51 11.85,-9.51 11.85,-9.51 11.86,-9.51 11.85,-9.51 11.86,-9.51 11.85,-9.52 11.85,-9.51 11.86,-9.51 11.85,-9.51 11.86,-9.51 11.85,-9.51 11.85,-9.51 11.86,-9.51 11.85,-9.51 11.86,-9.51 11.85,-9.51 11.86,-9.51 11.85,-9.51 11.85,-9.51 11.86,-9.51 11.85,-9.51 11.86,-9.51 11.85,-9.52 11.85,-9.51 11.86,-9.51 11.85,-9.51 11.86,-9.51 11.85,-9.51 11.85,-9.51 11.86,-9.51 11.85,-9.51 11.86,-9.51 11.85,-9.51 11.85,-9.51 11.86,-9.51 11.85,-9.51 11.86,-9.51 11.85,-9.51 11.86,-9.51 11.85,-9.51 11.85,-9.52"
         style="fill:none;stroke:#000000;stroke-width:30.00000075;stroke-linecap:round;stroke-linejoin:miter;stroke-miterlimit:10;stroke-dasharray:none;stroke-opacity:1"
         transform="matrix(0.13333333,0,0,-0.13333333,0,1056)" />
      <path
         id="path4"
         d="m 3023.61,4380.42 10.61,-9.51 10.62,-9.51 10.62,-9.51 10.62,-9.51 10.62,-9.51 10.62,-9.51 10.61,-9.51 10.62,-9.51 10.62,-9.51 10.62,-9.51 10.62,-9.51 10.61,-9.51 10.62,-9.51 10.62,-9.52 10.62,-9.51 10.62,-9.51 10.61,-9.51 10.62,-9.51 10.62,-9.51 10.62,-9.51 10.62,-9.51 10.61,-9.51 10.62,-9.51 10.62,-9.51 10.62,-9.51 10.62,-9.51 10.61,-9.51 10.62,-9.51 10.62,-9.51 10.62,-9.51 10.62,-9.51 10.61,-9.52 10.62,-9.51 10.62,-9.51 10.62,-9.51 10.62,-9.51 10.61,-9.51 10.62,-9.51 10.62,-9.51 10.62,-9.51 10.62,-9.51 10.61,-9.51 10.62,-9.51 10.62,-9.51 10.62,-9.51 10.62,-9.51 10.61,-9.51 10.62,-9.51 10.62,-9.52 10.62,-9.51 10.62,-9.51 10.61,-9.51 10.62,-9.51 10.62,-9.51 10.62,-9.51 10.62,-9.51 10.61,-9.51 10.62,-9.51 10.62,-9.51 10.62,-9.51 10.62,-9.51 10.61,-9.51 10.62,-9.51 10.62,-9.51 10.62,-9.51 10.62,-9.51 10.62,-9.52 10.61,-9.51 10.62,-9.51 10.62,-9.51 10.62,-9.51 10.62,-9.51 10.61,-9.51 10.62,-9.51 10.62,-9.51 10.62,-9.51 10.62,-9.51 10.61,-9.51 10.62,-9.51 10.62,-9.51 10.62,-9.51 10.62,-9.51 10.61,-9.51 10.62,-9.51 10.62,-9.52 10.62,-9.51 10.62,-9.51 10.61,-9.51 10.62,-9.51 10.62,-9.51 10.62,-9.51 10.62,-9.51 10.61,-9.51 10.62,-9.51 10.62,-9.51 10.62,-9.51 10.62,-9.51 10.61,-9.51 10.62,-9.51 10.62,-9.51"
         style="fill:none;stroke:#000000;stroke-width:30.00000075;stroke-linecap:round;stroke-linejoin:miter;stroke-miterlimit:10;stroke-dasharray:none;stroke-opacity:1"
         transform="matrix(0.13333333,0,0,-0.13333333,0,1056)" />
      <path
         id="path5"
         d="m 3285.41,4570.63 9.38,-9.51 9.38,-9.51 9.39,-9.51 9.38,-9.51 9.38,-9.51 9.38,-9.51 9.38,-9.51 9.39,-9.51 9.38,-9.51 9.38,-9.51 9.38,-9.51 9.38,-9.51 9.39,-9.51 9.38,-9.51 9.38,-9.51 9.38,-9.52 9.38,-9.51 9.39,-9.51 9.38,-9.51 9.38,-9.51 9.38,-9.51 9.38,-9.51 9.39,-9.51 9.38,-9.51 9.38,-9.51 9.38,-9.51 9.38,-9.51 9.39,-9.51 9.38,-9.51 9.38,-9.51 9.38,-9.51 9.38,-9.51 9.39,-9.51 9.38,-9.52 9.38,-9.51 9.38,-9.51 9.38,-9.51 9.38,-9.51 9.39,-9.51 9.38,-9.51 9.38,-9.51 9.38,-9.51 9.38,-9.51 9.39,-9.51 9.38,-9.51 9.38,-9.51 9.38,-9.51 9.38,-9.51 9.39,-9.51 9.38,-9.51 9.38,-9.51 9.38,-9.52 9.38,-9.51 9.39,-9.51 9.38,-9.51 9.38,-9.51 9.38,-9.51 9.38,-9.51 9.39,-9.51 9.38,-9.51 9.38,-9.51 9.38,-9.51 9.38,-9.51 9.39,-9.51 9.38,-9.51 9.38,-9.51 9.38,-9.51 9.38,-9.51 9.39,-9.52 9.38,-9.51 9.38,-9.51 9.38,-9.51 9.38,-9.51 9.39,-9.51 9.38,-9.51 9.38,-9.51 9.38,-9.51 9.38,-9.51 9.39,-9.51 9.38,-9.51 9.38,-9.51 9.38,-9.51 9.38,-9.51 9.39,-9.51 9.38,-9.51 9.38,-9.51 9.38,-9.52 9.38,-9.51 9.39,-9.51 9.38,-9.51 9.38,-9.51 9.38,-9.51 9.38,-9.51 9.39,-9.51 9.38,-9.51 9.38,-9.51 9.38,-9.51 9.38,-9.51 9.38,-9.51 9.39,-9.51"
         style="fill:none;stroke:#000000;stroke-width:30.00000075;stroke-linecap:round;stroke-linejoin:miter;stroke-miterlimit:10;stroke-dasharray:none;stroke-opacity:1"
         transform="matrix(0.13333333,0,0,-0.13333333,0,1056)" />
      <path
         id="path6"
         d="m 3547.21,4760.85 8.15,-9.52 8.15,-9.51 8.14,-9.51 8.15,-9.51 8.14,-9.51 8.15,-9.51 8.14,-9.51 8.15,-9.51 8.15,-9.51 8.14,-9.51 8.15,-9.51 8.14,-9.51 8.15,-9.51 8.15,-9.51 8.14,-9.51 8.15,-9.51 8.14,-9.51 8.15,-9.51 8.15,-9.52 8.14,-9.51 8.15,-9.51 8.14,-9.51 8.15,-9.51 8.15,-9.51 8.14,-9.51 8.15,-9.51 8.14,-9.51 8.15,-9.51 8.14,-9.51 8.15,-9.51 8.15,-9.51 8.14,-9.51 8.15,-9.51 8.14,-9.51 8.15,-9.51 8.15,-9.52 8.14,-9.51 8.15,-9.51 8.14,-9.51 8.15,-9.51 8.15,-9.51 8.14,-9.51 8.15,-9.51 8.14,-9.51 8.15,-9.51 8.14,-9.51 8.15,-9.51 8.15,-9.51 8.14,-9.51 8.15,-9.51 8.14,-9.51 8.15,-9.51 8.15,-9.51 8.14,-9.52 8.15,-9.51 8.14,-9.51 8.15,-9.51 8.15,-9.51 8.14,-9.51 8.15,-9.51 8.14,-9.51 8.15,-9.51 8.15,-9.51 8.14,-9.51 8.15,-9.51 8.14,-9.51 8.15,-9.51 8.14,-9.51 8.15,-9.51 8.15,-9.51 8.14,-9.51 8.15,-9.52 8.14,-9.51 8.15,-9.51 8.15,-9.51 8.14,-9.51 8.15,-9.51 8.14,-9.51 8.15,-9.51 8.15,-9.51 8.14,-9.51 8.15,-9.51 8.14,-9.51 8.15,-9.51 8.14,-9.51 8.15,-9.51 8.15,-9.51 8.14,-9.51 8.15,-9.52 8.14,-9.51 8.15,-9.51 8.15,-9.51 8.14,-9.51 8.15,-9.51 8.14,-9.51 8.15,-9.51 8.15,-9.51 8.14,-9.51 8.15,-9.51 8.14,-9.51"
         style="fill:none;stroke:#000000;stroke-width:30.00000075;stroke-linecap:round;stroke-linejoin:miter;stroke-miterlimit:10;stroke-dasharray:none;stroke-opacity:1"
         transform="matrix(0.13333333,0,0,-0.13333333,0,1056)" />
      <path
         id="path7"
         d="m 3809.02,4951.06 6.91,-9.51 6.91,-9.51 6.91,-9.52 6.91,-9.51 6.91,-9.51 6.91,-9.51 6.91,-9.51 6.91,-9.51 6.91,-9.51 6.91,-9.51 6.91,-9.51 6.9,-9.51 6.91,-9.51 6.91,-9.51 6.91,-9.51 6.91,-9.51 6.91,-9.51 6.91,-9.51 6.91,-9.51 6.91,-9.51 6.91,-9.52 6.91,-9.51 6.91,-9.51 6.91,-9.51 6.91,-9.51 6.91,-9.51 6.91,-9.51 6.91,-9.51 6.91,-9.51 6.91,-9.51 6.91,-9.51 6.91,-9.51 6.91,-9.51 6.91,-9.51 6.91,-9.51 6.91,-9.51 6.91,-9.51 6.91,-9.51 6.91,-9.52 6.91,-9.51 6.91,-9.51 6.91,-9.51 6.91,-9.51 6.91,-9.51 6.91,-9.51 6.91,-9.51 6.91,-9.51 6.91,-9.51 6.91,-9.51 6.91,-9.51 6.91,-9.51 6.91,-9.51 6.91,-9.51 6.91,-9.51 6.91,-9.51 6.91,-9.52 6.91,-9.51 6.91,-9.51 6.91,-9.51 6.91,-9.51 6.91,-9.51 6.91,-9.51 6.91,-9.51 6.91,-9.51 6.91,-9.51 6.91,-9.51 6.91,-9.51 6.91,-9.51 6.91,-9.51 6.91,-9.51 6.9,-9.51 6.91,-9.51 6.91,-9.51 6.91,-9.52 6.91,-9.51 6.91,-9.51 6.91,-9.51 6.91,-9.51 6.91,-9.51 6.91,-9.51 6.91,-9.51 6.91,-9.51 6.91,-9.51 6.91,-9.51 6.91,-9.51 6.91,-9.51 6.91,-9.51 6.91,-9.51 6.91,-9.51 6.91,-9.51 6.91,-9.51 6.91,-9.52 6.91,-9.51 6.91,-9.51 6.91,-9.51 6.91,-9.51 6.91,-9.51 6.91,-9.51 6.91,-9.51 6.91,-9.51"
         style="fill:none;stroke:#000000;stroke-width:30.00000075;stroke-linecap:round;stroke-linejoin:miter;stroke-miterlimit:10;stroke-dasharray:none;stroke-opacity:1"
         transform="matrix(0.13333333,0,0,-0.13333333,0,1056)" />
      <path
         id="path2-3"
         d="m 332.40215,522.51921 1.74534,-1.268 1.74533,-1.268 1.74533,-1.268 1.74534,-1.268 1.74533,-1.268 1.74533,-1.268 1.74534,-1.268 1.74533,-1.268 1.74533,-1.26933 1.74534,-1.268 1.74533,-1.268 1.74533,-1.268 1.74534,-1.268 1.74533,-1.268 1.74533,-1.268 1.74534,-1.268 1.74533,-1.268 1.74533,-1.268 1.74534,-1.268 1.74533,-1.268 1.74533,-1.268 1.74534,-1.268 1.74533,-1.268 1.74533,-1.268 1.74534,-1.268 1.74533,-1.268 1.74533,-1.26934 1.74534,-1.268 1.74533,-1.268 1.74667,-1.268 1.74533,-1.268 1.74533,-1.268 1.74534,-1.268 1.74533,-1.268 1.74533,-1.268 1.74534,-1.268 1.74533,-1.268 1.74533,-1.268 1.74534,-1.268 1.74533,-1.268 1.74533,-1.268 1.74534,-1.268 1.74533,-1.268 1.74533,-1.268 1.74534,-1.26933 1.74533,-1.268 1.74533,-1.268 1.74534,-1.268 1.74533,-1.268 1.74533,-1.268 1.74534,-1.268 1.74533,-1.268 1.74533,-1.268 1.74534,-1.268 1.74533,-1.268 1.74533,-1.268 1.74534,-1.268 1.74533,-1.268 1.74533,-1.268 1.74534,-1.268 1.74533,-1.268 1.74533,-1.26933 1.74534,-1.268 1.74533,-1.268 1.74533,-1.268 1.74534,-1.268 1.74533,-1.268 1.74533,-1.268 1.74534,-1.268 1.74533,-1.268 1.74533,-1.268 1.74534,-1.268 1.74533,-1.268 1.74533,-1.268 1.74534,-1.268 1.74533,-1.268 1.74533,-1.268 1.74533,-1.268 1.74534,-1.268 1.74533,-1.26933 1.74533,-1.268 1.74534,-1.268 1.74533,-1.268 1.74533,-1.268 1.74534,-1.268 1.74533,-1.268 1.74533,-1.268 1.74534,-1.268 1.74666,-1.268 1.74534,-1.268 1.74533,-1.268 1.74533,-1.268 1.74534,-1.268 1.74533,-1.268 1.74533,-1.268 1.74534,-1.268 1.74533,-1.268 1.74533,-1.26934 1.74534,-1.268 1.74533,-1.268"
         style="fill:none;stroke:#000000;stroke-width:4;stroke-linecap:round;stroke-linejoin:miter;stroke-miterlimit:10;stroke-dasharray:none;stroke-opacity:1" />
      <path
         id="path3-6"
         d="m 367.30882,547.88054 1.58133,-1.268 1.58,-1.268 1.58134,-1.268 1.58,-1.268 1.58,-1.268 1.58133,-1.268 1.58,-1.268 1.58133,-1.268 1.58,-1.268 1.58,-1.268 1.58134,-1.268 1.58,-1.26933 1.58133,-1.268 1.58,-1.268 1.58,-1.268 1.58133,-1.268 1.58,-1.268 1.58134,-1.268 1.58,-1.268 1.58133,-1.268 1.58,-1.268 1.58,-1.268 1.58133,-1.268 1.58,-1.268 1.58134,-1.268 1.58,-1.268 1.58,-1.268 1.58133,-1.268 1.58,-1.26933 1.58133,-1.268 1.58,-1.268 1.58,-1.268 1.58134,-1.268 1.58,-1.268 1.58133,-1.268 1.58,-1.268 1.58133,-1.268 1.58,-1.268 1.58,-1.268 1.58134,-1.268 1.58,-1.268 1.58133,-1.268 1.58,-1.268 1.58,-1.268 1.58133,-1.268 1.58,-1.268 1.58134,-1.26934 1.58,-1.268 1.58,-1.268 1.58133,-1.268 1.58,-1.268 1.58133,-1.268 1.58,-1.268 1.58,-1.268 1.58134,-1.268 1.58,-1.268 1.58133,-1.268 1.58,-1.268 1.58133,-1.268 1.58,-1.268 1.58,-1.268 1.58134,-1.268 1.57999,-1.268 1.58134,-1.268 1.58,-1.26933 1.58,-1.268 1.58133,-1.268 1.58,-1.268 1.58133,-1.268 1.58,-1.268 1.58,-1.268 1.58134,-1.268 1.58,-1.268 1.58133,-1.268 1.58,-1.268 1.58133,-1.268 1.58,-1.268 1.58,-1.268 1.58134,-1.268 1.58,-1.268 1.58133,-1.268 1.58,-1.26933 1.58,-1.268 1.58133,-1.268 1.58,-1.268 1.58134,-1.268 1.58,-1.268 1.58,-1.268 1.58133,-1.268 1.58,-1.268 1.58133,-1.268 1.58,-1.268 1.58,-1.268 1.58134,-1.268 1.58,-1.268 1.58133,-1.268 1.58,-1.268 1.58133,-1.268 1.58,-1.268 1.58,-1.26933"
         style="fill:none;stroke:#000000;stroke-width:4;stroke-linecap:round;stroke-linejoin:miter;stroke-miterlimit:10;stroke-dasharray:none;stroke-opacity:1" />
      <path
         id="path4-0"
         d="m 402.21682,573.24188 1.41467,-1.268 1.416,-1.268 1.416,-1.268 1.416,-1.268 1.416,-1.268 1.416,-1.268 1.41466,-1.268 1.416,-1.268 1.416,-1.268 1.416,-1.268 1.416,-1.268 1.41467,-1.268 1.416,-1.268 1.416,-1.26934 1.416,-1.268 1.416,-1.268 1.41467,-1.268 1.416,-1.268 1.416,-1.268 1.416,-1.268 1.416,-1.268 1.41466,-1.268 1.416,-1.268 1.416,-1.268 1.416,-1.268 1.416,-1.268 1.41467,-1.268 1.416,-1.268 1.416,-1.268 1.416,-1.268 1.416,-1.268 1.41467,-1.26933 1.416,-1.268 1.416,-1.268 1.416,-1.268 1.416,-1.268 1.41466,-1.268 1.416,-1.268 1.416,-1.268 1.416,-1.268 1.416,-1.268 1.41467,-1.268 1.416,-1.268 1.416,-1.268 1.416,-1.268 1.416,-1.268 1.41466,-1.268 1.416,-1.268 1.416,-1.26933 1.416,-1.268 1.416,-1.268 1.41467,-1.268 1.416,-1.268 1.416,-1.268 1.416,-1.268 1.416,-1.268 1.41467,-1.268 1.416,-1.268 1.416,-1.268 1.416,-1.268 1.416,-1.268 1.41466,-1.268 1.416,-1.268 1.416,-1.268 1.416,-1.268 1.416,-1.268 1.416,-1.26934 1.41467,-1.268 1.416,-1.268 1.416,-1.268 1.416,-1.268 1.416,-1.268 1.41467,-1.268 1.416,-1.268 1.416,-1.268 1.416,-1.268 1.416,-1.268 1.41466,-1.268 1.416,-1.268 1.416,-1.268 1.416,-1.268 1.416,-1.268 1.41467,-1.268 1.416,-1.268 1.416,-1.26933 1.416,-1.268 1.416,-1.268 1.41467,-1.268 1.416,-1.268 1.416,-1.268 1.416,-1.268 1.416,-1.268 1.41466,-1.268 1.416,-1.268 1.416,-1.268 1.416,-1.268 1.416,-1.268 1.41467,-1.268 1.416,-1.268 1.416,-1.268"
         style="fill:none;stroke:#000000;stroke-width:4;stroke-linecap:round;stroke-linejoin:miter;stroke-miterlimit:10;stroke-dasharray:none;stroke-opacity:1" />
      <path
         id="path5-6"
         d="m 437.12349,598.60321 1.25066,-1.268 1.25067,-1.268 1.252,-1.268 1.25067,-1.268 1.25066,-1.268 1.25067,-1.268 1.25067,-1.268 1.252,-1.268 1.25066,-1.268 1.25067,-1.268 1.25067,-1.268 1.25066,-1.268 1.252,-1.268 1.25067,-1.268 1.25067,-1.268 1.25066,-1.26933 1.25067,-1.268 1.252,-1.268 1.25067,-1.268 1.25066,-1.268 1.25067,-1.268 1.25067,-1.268 1.25199,-1.268 1.25067,-1.268 1.25067,-1.268 1.25066,-1.268 1.25067,-1.268 1.252,-1.268 1.25067,-1.268 1.25066,-1.268 1.25067,-1.268 1.25067,-1.268 1.252,-1.268 1.25066,-1.26934 1.25067,-1.268 1.25067,-1.268 1.25066,-1.268 1.25067,-1.268 1.252,-1.268 1.25067,-1.268 1.25066,-1.268 1.25067,-1.268 1.25067,-1.268 1.252,-1.268 1.25066,-1.268 1.25067,-1.268 1.25067,-1.268 1.25066,-1.268 1.252,-1.268 1.25067,-1.268 1.25067,-1.268 1.25066,-1.26933 1.25067,-1.268 1.252,-1.268 1.25067,-1.268 1.25066,-1.268 1.25067,-1.268 1.25067,-1.268 1.252,-1.268 1.25066,-1.268 1.25067,-1.268 1.25067,-1.268 1.25066,-1.268 1.252,-1.268 1.25067,-1.268 1.25067,-1.268 1.25066,-1.268 1.25067,-1.268 1.252,-1.26933 1.25067,-1.268 1.25066,-1.268 1.25067,-1.268 1.25067,-1.268 1.252,-1.268 1.25066,-1.268 1.25067,-1.268 1.25067,-1.268 1.25066,-1.268 1.252,-1.268 1.25067,-1.268 1.25067,-1.268 1.25066,-1.268 1.25067,-1.268 1.252,-1.268 1.25067,-1.268 1.25066,-1.268 1.25067,-1.26934 1.25067,-1.268 1.252,-1.268 1.25066,-1.268 1.25067,-1.268 1.25067,-1.268 1.25066,-1.268 1.252,-1.268 1.25067,-1.268 1.25067,-1.268 1.25066,-1.268 1.25067,-1.268 1.25067,-1.268 1.252,-1.268"
         style="fill:none;stroke:#000000;stroke-width:4;stroke-linecap:round;stroke-linejoin:miter;stroke-miterlimit:10;stroke-dasharray:none;stroke-opacity:1" />
      <path
         id="path6-2"
         d="m 472.03015,623.96587 1.08667,-1.26933 1.08666,-1.268 1.08534,-1.268 1.08666,-1.268 1.08534,-1.268 1.08666,-1.268 1.08534,-1.268 1.08666,-1.268 1.08667,-1.268 1.08533,-1.268 1.08667,-1.268 1.08533,-1.268 1.08667,-1.268 1.08667,-1.268 1.08533,-1.268 1.08667,-1.268 1.08533,-1.268 1.08667,-1.268 1.08666,-1.26933 1.08534,-1.268 1.08666,-1.268 1.08534,-1.268 1.08666,-1.268 1.08667,-1.268 1.08533,-1.268 1.08667,-1.268 1.08533,-1.268 1.08667,-1.268 1.08533,-1.268 1.08667,-1.268 1.08667,-1.268 1.08533,-1.268 1.08667,-1.268 1.08533,-1.268 1.08667,-1.268 1.08666,-1.26933 1.08534,-1.268 1.08666,-1.268 1.08534,-1.268 1.08666,-1.268 1.08667,-1.268 1.08533,-1.268 1.08667,-1.268 1.08533,-1.268 1.08667,-1.268 1.08533,-1.268 1.08667,-1.268 1.08667,-1.268 1.08533,-1.268 1.08667,-1.268 1.08533,-1.268 1.08667,-1.268 1.08666,-1.268 1.08534,-1.26934 1.08666,-1.268 1.08534,-1.268 1.08666,-1.268 1.08667,-1.268 1.08533,-1.268 1.08667,-1.268 1.08533,-1.268 1.08667,-1.268 1.08667,-1.268 1.08533,-1.268 1.08667,-1.268 1.08533,-1.268 1.08667,-1.268 1.08533,-1.268 1.08667,-1.268 1.08666,-1.268 1.08534,-1.268 1.08666,-1.26933 1.08534,-1.268 1.08666,-1.268 1.08667,-1.268 1.08533,-1.268 1.08667,-1.268 1.08533,-1.268 1.08667,-1.268 1.08667,-1.268 1.08533,-1.268 1.08667,-1.268 1.08533,-1.268 1.08667,-1.268 1.08533,-1.268 1.08667,-1.268 1.08666,-1.268 1.08534,-1.268 1.08666,-1.26933 1.08534,-1.268 1.08666,-1.268 1.08667,-1.268 1.08533,-1.268 1.08667,-1.268 1.08533,-1.268 1.08667,-1.268 1.08667,-1.268 1.08533,-1.268 1.08667,-1.268 1.08533,-1.268"
         style="fill:none;stroke:#000000;stroke-width:4;stroke-linecap:round;stroke-linejoin:miter;stroke-miterlimit:10;stroke-dasharray:none;stroke-opacity:1" />
    </g>
  </g>
</svg>
