<?xml version="1.0" encoding="UTF-8" standalone="no"?>
<!-- Created with Inkscape (http://www.inkscape.org/) -->

<svg
   version="1.1"
   id="svg1"
   width="816"
   height="1056"
   viewBox="0 0 816 1056"
   sodipodi:docname="bilinear.svg"
   inkscape:version="1.3.2 (091e20ef0f, 2023-11-25, custom)"
   xmlns:inkscape="http://www.inkscape.org/namespaces/inkscape"
   xmlns:sodipodi="http://sodipodi.sourceforge.net/DTD/sodipodi-0.dtd"
   xmlns="http://www.w3.org/2000/svg"
   xmlns:svg="http://www.w3.org/2000/svg">
  <defs
     id="defs1" />
  <sodipodi:namedview
     id="namedview1"
     pagecolor="#ffffff"
     bordercolor="#666666"
     borderopacity="1.0"
     inkscape:showpageshadow="2"
     inkscape:pageopacity="0.0"
     inkscape:pagecheckerboard="0"
     inkscape:deskcolor="#d1d1d1"
     inkscape:zoom="1.0941406"
     inkscape:cx="341.82078"
     inkscape:cy="465.66227"
     inkscape:window-width="1920"
     inkscape:window-height="1021"
     inkscape:window-x="0"
     inkscape:window-y="0"
     inkscape:window-maximized="1"
     inkscape:current-layer="g1">
    <inkscape:page
       x="0"
       y="0"
       inkscape:label="1"
       id="page1"
       width="816"
       height="1056"
       margin="0"
       bleed="0" />
  </sodipodi:namedview>
  <g
     id="g1"
     inkscape:groupmode="layer"
     inkscape:label="1">
    <path
       id="path1"
       d="M 4500,4000 3118.03,2097.89 881.965,2824.43 V 5175.57 L 3118.03,5902.11 4500,4000"
       style="fill:none;stroke:#000000;stroke-width:30.00000075;stroke-linecap:round;stroke-linejoin:miter;stroke-miterlimit:10;stroke-dasharray:none;stroke-opacity:1"
       transform="matrix(0.13333333,0,0,-0.13333333,0,1056)" />
    <path
       id="path2"
       d="m 2500,4000 13.09,-9.51 13.09,-9.51 13.09,-9.51 13.09,-9.51 13.09,-9.51 13.09,-9.51 13.09,-9.51 13.09,-9.51 13.09,-9.52 13.09,-9.51 13.09,-9.51 13.09,-9.51 13.09,-9.51 13.09,-9.51 13.09,-9.51 13.09,-9.51 13.09,-9.51 13.09,-9.51 13.09,-9.51 13.09,-9.51 13.09,-9.51 13.09,-9.51 13.09,-9.51 13.09,-9.51 13.09,-9.51 13.09,-9.51 13.09,-9.52 13.09,-9.51 13.09,-9.51 13.1,-9.51 13.09,-9.51 13.09,-9.51 13.09,-9.51 13.09,-9.51 13.09,-9.51 13.09,-9.51 13.09,-9.51 13.09,-9.51 13.09,-9.51 13.09,-9.51 13.09,-9.51 13.09,-9.51 13.09,-9.51 13.09,-9.51 13.09,-9.52 13.09,-9.51 13.09,-9.51 13.09,-9.51 13.09,-9.51 13.09,-9.51 13.09,-9.51 13.09,-9.51 13.09,-9.51 13.09,-9.51 13.09,-9.51 13.09,-9.51 13.09,-9.51 13.09,-9.51 13.09,-9.51 13.09,-9.51 13.09,-9.51 13.09,-9.52 13.09,-9.51 13.09,-9.51 13.09,-9.51 13.09,-9.51 13.09,-9.51 13.09,-9.51 13.09,-9.51 13.09,-9.51 13.09,-9.51 13.09,-9.51 13.09,-9.51 13.09,-9.51 13.09,-9.51 13.09,-9.51 13.09,-9.51 13.09,-9.51 13.09,-9.51 13.09,-9.52 13.09,-9.51 13.09,-9.51 13.09,-9.51 13.09,-9.51 13.09,-9.51 13.09,-9.51 13.09,-9.51 13.09,-9.51 13.1,-9.51 13.09,-9.51 13.09,-9.51 13.09,-9.51 13.09,-9.51 13.09,-9.51 13.09,-9.51 13.09,-9.51 13.09,-9.51 13.09,-9.52 13.09,-9.51 13.09,-9.51"
       style="fill:none;stroke:#000000;stroke-width:30.00000075;stroke-linecap:round;stroke-linejoin:miter;stroke-miterlimit:10;stroke-dasharray:none;stroke-opacity:1"
       transform="matrix(0.13333333,0,0,-0.13333333,0,1056)" />
    <path
       id="path3"
       d="m 2761.8,4190.21 11.86,-9.51 11.85,-9.51 11.86,-9.51 11.85,-9.51 11.85,-9.51 11.86,-9.51 11.85,-9.51 11.86,-9.51 11.85,-9.51 11.85,-9.51 11.86,-9.51 11.85,-9.52 11.86,-9.51 11.85,-9.51 11.85,-9.51 11.86,-9.51 11.85,-9.51 11.86,-9.51 11.85,-9.51 11.86,-9.51 11.85,-9.51 11.85,-9.51 11.86,-9.51 11.85,-9.51 11.86,-9.51 11.85,-9.51 11.85,-9.51 11.86,-9.51 11.85,-9.52 11.86,-9.51 11.85,-9.51 11.85,-9.51 11.86,-9.51 11.85,-9.51 11.86,-9.51 11.85,-9.51 11.86,-9.51 11.85,-9.51 11.85,-9.51 11.86,-9.51 11.85,-9.51 11.86,-9.51 11.85,-9.51 11.85,-9.51 11.86,-9.51 11.85,-9.51 11.86,-9.52 11.85,-9.51 11.85,-9.51 11.86,-9.51 11.85,-9.51 11.86,-9.51 11.85,-9.51 11.85,-9.51 11.86,-9.51 11.85,-9.51 11.86,-9.51 11.85,-9.51 11.86,-9.51 11.85,-9.51 11.85,-9.51 11.86,-9.51 11.85,-9.51 11.86,-9.51 11.85,-9.52 11.85,-9.51 11.86,-9.51 11.85,-9.51 11.86,-9.51 11.85,-9.51 11.85,-9.51 11.86,-9.51 11.85,-9.51 11.86,-9.51 11.85,-9.51 11.86,-9.51 11.85,-9.51 11.85,-9.51 11.86,-9.51 11.85,-9.51 11.86,-9.51 11.85,-9.52 11.85,-9.51 11.86,-9.51 11.85,-9.51 11.86,-9.51 11.85,-9.51 11.85,-9.51 11.86,-9.51 11.85,-9.51 11.86,-9.51 11.85,-9.51 11.85,-9.51 11.86,-9.51 11.85,-9.51 11.86,-9.51 11.85,-9.51 11.86,-9.51 11.85,-9.51 11.85,-9.52"
       style="fill:none;stroke:#000000;stroke-width:30.00000075;stroke-linecap:round;stroke-linejoin:miter;stroke-miterlimit:10;stroke-dasharray:none;stroke-opacity:1"
       transform="matrix(0.13333333,0,0,-0.13333333,0,1056)" />
    <path
       id="path4"
       d="m 3023.61,4380.42 10.61,-9.51 10.62,-9.51 10.62,-9.51 10.62,-9.51 10.62,-9.51 10.62,-9.51 10.61,-9.51 10.62,-9.51 10.62,-9.51 10.62,-9.51 10.62,-9.51 10.61,-9.51 10.62,-9.51 10.62,-9.52 10.62,-9.51 10.62,-9.51 10.61,-9.51 10.62,-9.51 10.62,-9.51 10.62,-9.51 10.62,-9.51 10.61,-9.51 10.62,-9.51 10.62,-9.51 10.62,-9.51 10.62,-9.51 10.61,-9.51 10.62,-9.51 10.62,-9.51 10.62,-9.51 10.62,-9.51 10.61,-9.52 10.62,-9.51 10.62,-9.51 10.62,-9.51 10.62,-9.51 10.61,-9.51 10.62,-9.51 10.62,-9.51 10.62,-9.51 10.62,-9.51 10.61,-9.51 10.62,-9.51 10.62,-9.51 10.62,-9.51 10.62,-9.51 10.61,-9.51 10.62,-9.51 10.62,-9.52 10.62,-9.51 10.62,-9.51 10.61,-9.51 10.62,-9.51 10.62,-9.51 10.62,-9.51 10.62,-9.51 10.61,-9.51 10.62,-9.51 10.62,-9.51 10.62,-9.51 10.62,-9.51 10.61,-9.51 10.62,-9.51 10.62,-9.51 10.62,-9.51 10.62,-9.51 10.62,-9.52 10.61,-9.51 10.62,-9.51 10.62,-9.51 10.62,-9.51 10.62,-9.51 10.61,-9.51 10.62,-9.51 10.62,-9.51 10.62,-9.51 10.62,-9.51 10.61,-9.51 10.62,-9.51 10.62,-9.51 10.62,-9.51 10.62,-9.51 10.61,-9.51 10.62,-9.51 10.62,-9.52 10.62,-9.51 10.62,-9.51 10.61,-9.51 10.62,-9.51 10.62,-9.51 10.62,-9.51 10.62,-9.51 10.61,-9.51 10.62,-9.51 10.62,-9.51 10.62,-9.51 10.62,-9.51 10.61,-9.51 10.62,-9.51 10.62,-9.51"
       style="fill:none;stroke:#000000;stroke-width:30.00000075;stroke-linecap:round;stroke-linejoin:miter;stroke-miterlimit:10;stroke-dasharray:none;stroke-opacity:1"
       transform="matrix(0.13333333,0,0,-0.13333333,0,1056)" />
    <path
       id="path5"
       d="m 3285.41,4570.63 9.38,-9.51 9.38,-9.51 9.39,-9.51 9.38,-9.51 9.38,-9.51 9.38,-9.51 9.38,-9.51 9.39,-9.51 9.38,-9.51 9.38,-9.51 9.38,-9.51 9.38,-9.51 9.39,-9.51 9.38,-9.51 9.38,-9.51 9.38,-9.52 9.38,-9.51 9.39,-9.51 9.38,-9.51 9.38,-9.51 9.38,-9.51 9.38,-9.51 9.39,-9.51 9.38,-9.51 9.38,-9.51 9.38,-9.51 9.38,-9.51 9.39,-9.51 9.38,-9.51 9.38,-9.51 9.38,-9.51 9.38,-9.51 9.39,-9.51 9.38,-9.52 9.38,-9.51 9.38,-9.51 9.38,-9.51 9.38,-9.51 9.39,-9.51 9.38,-9.51 9.38,-9.51 9.38,-9.51 9.38,-9.51 9.39,-9.51 9.38,-9.51 9.38,-9.51 9.38,-9.51 9.38,-9.51 9.39,-9.51 9.38,-9.51 9.38,-9.51 9.38,-9.52 9.38,-9.51 9.39,-9.51 9.38,-9.51 9.38,-9.51 9.38,-9.51 9.38,-9.51 9.39,-9.51 9.38,-9.51 9.38,-9.51 9.38,-9.51 9.38,-9.51 9.39,-9.51 9.38,-9.51 9.38,-9.51 9.38,-9.51 9.38,-9.51 9.39,-9.52 9.38,-9.51 9.38,-9.51 9.38,-9.51 9.38,-9.51 9.39,-9.51 9.38,-9.51 9.38,-9.51 9.38,-9.51 9.38,-9.51 9.39,-9.51 9.38,-9.51 9.38,-9.51 9.38,-9.51 9.38,-9.51 9.39,-9.51 9.38,-9.51 9.38,-9.51 9.38,-9.52 9.38,-9.51 9.39,-9.51 9.38,-9.51 9.38,-9.51 9.38,-9.51 9.38,-9.51 9.39,-9.51 9.38,-9.51 9.38,-9.51 9.38,-9.51 9.38,-9.51 9.38,-9.51 9.39,-9.51"
       style="fill:none;stroke:#000000;stroke-width:30.00000075;stroke-linecap:round;stroke-linejoin:miter;stroke-miterlimit:10;stroke-dasharray:none;stroke-opacity:1"
       transform="matrix(0.13333333,0,0,-0.13333333,0,1056)" />
    <path
       id="path6"
       d="m 3547.21,4760.85 8.15,-9.52 8.15,-9.51 8.14,-9.51 8.15,-9.51 8.14,-9.51 8.15,-9.51 8.14,-9.51 8.15,-9.51 8.15,-9.51 8.14,-9.51 8.15,-9.51 8.14,-9.51 8.15,-9.51 8.15,-9.51 8.14,-9.51 8.15,-9.51 8.14,-9.51 8.15,-9.51 8.15,-9.52 8.14,-9.51 8.15,-9.51 8.14,-9.51 8.15,-9.51 8.15,-9.51 8.14,-9.51 8.15,-9.51 8.14,-9.51 8.15,-9.51 8.14,-9.51 8.15,-9.51 8.15,-9.51 8.14,-9.51 8.15,-9.51 8.14,-9.51 8.15,-9.51 8.15,-9.52 8.14,-9.51 8.15,-9.51 8.14,-9.51 8.15,-9.51 8.15,-9.51 8.14,-9.51 8.15,-9.51 8.14,-9.51 8.15,-9.51 8.14,-9.51 8.15,-9.51 8.15,-9.51 8.14,-9.51 8.15,-9.51 8.14,-9.51 8.15,-9.51 8.15,-9.51 8.14,-9.52 8.15,-9.51 8.14,-9.51 8.15,-9.51 8.15,-9.51 8.14,-9.51 8.15,-9.51 8.14,-9.51 8.15,-9.51 8.15,-9.51 8.14,-9.51 8.15,-9.51 8.14,-9.51 8.15,-9.51 8.14,-9.51 8.15,-9.51 8.15,-9.51 8.14,-9.51 8.15,-9.52 8.14,-9.51 8.15,-9.51 8.15,-9.51 8.14,-9.51 8.15,-9.51 8.14,-9.51 8.15,-9.51 8.15,-9.51 8.14,-9.51 8.15,-9.51 8.14,-9.51 8.15,-9.51 8.14,-9.51 8.15,-9.51 8.15,-9.51 8.14,-9.51 8.15,-9.52 8.14,-9.51 8.15,-9.51 8.15,-9.51 8.14,-9.51 8.15,-9.51 8.14,-9.51 8.15,-9.51 8.15,-9.51 8.14,-9.51 8.15,-9.51 8.14,-9.51"
       style="fill:none;stroke:#000000;stroke-width:30.00000075;stroke-linecap:round;stroke-linejoin:miter;stroke-miterlimit:10;stroke-dasharray:none;stroke-opacity:1"
       transform="matrix(0.13333333,0,0,-0.13333333,0,1056)" />
    <path
       id="path7"
       d="m 3809.02,4951.06 6.91,-9.51 6.91,-9.51 6.91,-9.52 6.91,-9.51 6.91,-9.51 6.91,-9.51 6.91,-9.51 6.91,-9.51 6.91,-9.51 6.91,-9.51 6.91,-9.51 6.9,-9.51 6.91,-9.51 6.91,-9.51 6.91,-9.51 6.91,-9.51 6.91,-9.51 6.91,-9.51 6.91,-9.51 6.91,-9.51 6.91,-9.52 6.91,-9.51 6.91,-9.51 6.91,-9.51 6.91,-9.51 6.91,-9.51 6.91,-9.51 6.91,-9.51 6.91,-9.51 6.91,-9.51 6.91,-9.51 6.91,-9.51 6.91,-9.51 6.91,-9.51 6.91,-9.51 6.91,-9.51 6.91,-9.51 6.91,-9.51 6.91,-9.52 6.91,-9.51 6.91,-9.51 6.91,-9.51 6.91,-9.51 6.91,-9.51 6.91,-9.51 6.91,-9.51 6.91,-9.51 6.91,-9.51 6.91,-9.51 6.91,-9.51 6.91,-9.51 6.91,-9.51 6.91,-9.51 6.91,-9.51 6.91,-9.51 6.91,-9.52 6.91,-9.51 6.91,-9.51 6.91,-9.51 6.91,-9.51 6.91,-9.51 6.91,-9.51 6.91,-9.51 6.91,-9.51 6.91,-9.51 6.91,-9.51 6.91,-9.51 6.91,-9.51 6.91,-9.51 6.91,-9.51 6.9,-9.51 6.91,-9.51 6.91,-9.51 6.91,-9.52 6.91,-9.51 6.91,-9.51 6.91,-9.51 6.91,-9.51 6.91,-9.51 6.91,-9.51 6.91,-9.51 6.91,-9.51 6.91,-9.51 6.91,-9.51 6.91,-9.51 6.91,-9.51 6.91,-9.51 6.91,-9.51 6.91,-9.51 6.91,-9.51 6.91,-9.51 6.91,-9.52 6.91,-9.51 6.91,-9.51 6.91,-9.51 6.91,-9.51 6.91,-9.51 6.91,-9.51 6.91,-9.51 6.91,-9.51"
       style="fill:none;stroke:#000000;stroke-width:30.00000075;stroke-linecap:round;stroke-linejoin:miter;stroke-miterlimit:10;stroke-dasharray:none;stroke-opacity:1"
       transform="matrix(0.13333333,0,0,-0.13333333,0,1056)" />
    <path
       id="path2-3"
       d="m 332.40215,522.51921 1.74534,-1.268 1.74533,-1.268 1.74533,-1.268 1.74534,-1.268 1.74533,-1.268 1.74533,-1.268 1.74534,-1.268 1.74533,-1.268 1.74533,-1.26933 1.74534,-1.268 1.74533,-1.268 1.74533,-1.268 1.74534,-1.268 1.74533,-1.268 1.74533,-1.268 1.74534,-1.268 1.74533,-1.268 1.74533,-1.268 1.74534,-1.268 1.74533,-1.268 1.74533,-1.268 1.74534,-1.268 1.74533,-1.268 1.74533,-1.268 1.74534,-1.268 1.74533,-1.268 1.74533,-1.26934 1.74534,-1.268 1.74533,-1.268 1.74667,-1.268 1.74533,-1.268 1.74533,-1.268 1.74534,-1.268 1.74533,-1.268 1.74533,-1.268 1.74534,-1.268 1.74533,-1.268 1.74533,-1.268 1.74534,-1.268 1.74533,-1.268 1.74533,-1.268 1.74534,-1.268 1.74533,-1.268 1.74533,-1.268 1.74534,-1.26933 1.74533,-1.268 1.74533,-1.268 1.74534,-1.268 1.74533,-1.268 1.74533,-1.268 1.74534,-1.268 1.74533,-1.268 1.74533,-1.268 1.74534,-1.268 1.74533,-1.268 1.74533,-1.268 1.74534,-1.268 1.74533,-1.268 1.74533,-1.268 1.74534,-1.268 1.74533,-1.268 1.74533,-1.26933 1.74534,-1.268 1.74533,-1.268 1.74533,-1.268 1.74534,-1.268 1.74533,-1.268 1.74533,-1.268 1.74534,-1.268 1.74533,-1.268 1.74533,-1.268 1.74534,-1.268 1.74533,-1.268 1.74533,-1.268 1.74534,-1.268 1.74533,-1.268 1.74533,-1.268 1.74533,-1.268 1.74534,-1.268 1.74533,-1.26933 1.74533,-1.268 1.74534,-1.268 1.74533,-1.268 1.74533,-1.268 1.74534,-1.268 1.74533,-1.268 1.74533,-1.268 1.74534,-1.268 1.74666,-1.268 1.74534,-1.268 1.74533,-1.268 1.74533,-1.268 1.74534,-1.268 1.74533,-1.268 1.74533,-1.268 1.74534,-1.268 1.74533,-1.268 1.74533,-1.26934 1.74534,-1.268 1.74533,-1.268"
       style="fill:none;stroke:#000000;stroke-width:4;stroke-linecap:round;stroke-linejoin:miter;stroke-miterlimit:10;stroke-dasharray:none;stroke-opacity:1" />
    <path
       id="path3-6"
       d="m 367.30882,547.88054 1.58133,-1.268 1.58,-1.268 1.58134,-1.268 1.58,-1.268 1.58,-1.268 1.58133,-1.268 1.58,-1.268 1.58133,-1.268 1.58,-1.268 1.58,-1.268 1.58134,-1.268 1.58,-1.26933 1.58133,-1.268 1.58,-1.268 1.58,-1.268 1.58133,-1.268 1.58,-1.268 1.58134,-1.268 1.58,-1.268 1.58133,-1.268 1.58,-1.268 1.58,-1.268 1.58133,-1.268 1.58,-1.268 1.58134,-1.268 1.58,-1.268 1.58,-1.268 1.58133,-1.268 1.58,-1.26933 1.58133,-1.268 1.58,-1.268 1.58,-1.268 1.58134,-1.268 1.58,-1.268 1.58133,-1.268 1.58,-1.268 1.58133,-1.268 1.58,-1.268 1.58,-1.268 1.58134,-1.268 1.58,-1.268 1.58133,-1.268 1.58,-1.268 1.58,-1.268 1.58133,-1.268 1.58,-1.268 1.58134,-1.26934 1.58,-1.268 1.58,-1.268 1.58133,-1.268 1.58,-1.268 1.58133,-1.268 1.58,-1.268 1.58,-1.268 1.58134,-1.268 1.58,-1.268 1.58133,-1.268 1.58,-1.268 1.58133,-1.268 1.58,-1.268 1.58,-1.268 1.58134,-1.268 1.57999,-1.268 1.58134,-1.268 1.58,-1.26933 1.58,-1.268 1.58133,-1.268 1.58,-1.268 1.58133,-1.268 1.58,-1.268 1.58,-1.268 1.58134,-1.268 1.58,-1.268 1.58133,-1.268 1.58,-1.268 1.58133,-1.268 1.58,-1.268 1.58,-1.268 1.58134,-1.268 1.58,-1.268 1.58133,-1.268 1.58,-1.26933 1.58,-1.268 1.58133,-1.268 1.58,-1.268 1.58134,-1.268 1.58,-1.268 1.58,-1.268 1.58133,-1.268 1.58,-1.268 1.58133,-1.268 1.58,-1.268 1.58,-1.268 1.58134,-1.268 1.58,-1.268 1.58133,-1.268 1.58,-1.268 1.58133,-1.268 1.58,-1.268 1.58,-1.26933"
       style="fill:none;stroke:#000000;stroke-width:4;stroke-linecap:round;stroke-linejoin:miter;stroke-miterlimit:10;stroke-dasharray:none;stroke-opacity:1" />
    <path
       id="path4-0"
       d="m 402.21682,573.24188 1.41467,-1.268 1.416,-1.268 1.416,-1.268 1.416,-1.268 1.416,-1.268 1.416,-1.268 1.41466,-1.268 1.416,-1.268 1.416,-1.268 1.416,-1.268 1.416,-1.268 1.41467,-1.268 1.416,-1.268 1.416,-1.26934 1.416,-1.268 1.416,-1.268 1.41467,-1.268 1.416,-1.268 1.416,-1.268 1.416,-1.268 1.416,-1.268 1.41466,-1.268 1.416,-1.268 1.416,-1.268 1.416,-1.268 1.416,-1.268 1.41467,-1.268 1.416,-1.268 1.416,-1.268 1.416,-1.268 1.416,-1.268 1.41467,-1.26933 1.416,-1.268 1.416,-1.268 1.416,-1.268 1.416,-1.268 1.41466,-1.268 1.416,-1.268 1.416,-1.268 1.416,-1.268 1.416,-1.268 1.41467,-1.268 1.416,-1.268 1.416,-1.268 1.416,-1.268 1.416,-1.268 1.41466,-1.268 1.416,-1.268 1.416,-1.26933 1.416,-1.268 1.416,-1.268 1.41467,-1.268 1.416,-1.268 1.416,-1.268 1.416,-1.268 1.416,-1.268 1.41467,-1.268 1.416,-1.268 1.416,-1.268 1.416,-1.268 1.416,-1.268 1.41466,-1.268 1.416,-1.268 1.416,-1.268 1.416,-1.268 1.416,-1.268 1.416,-1.26934 1.41467,-1.268 1.416,-1.268 1.416,-1.268 1.416,-1.268 1.416,-1.268 1.41467,-1.268 1.416,-1.268 1.416,-1.268 1.416,-1.268 1.416,-1.268 1.41466,-1.268 1.416,-1.268 1.416,-1.268 1.416,-1.268 1.416,-1.268 1.41467,-1.268 1.416,-1.268 1.416,-1.26933 1.416,-1.268 1.416,-1.268 1.41467,-1.268 1.416,-1.268 1.416,-1.268 1.416,-1.268 1.416,-1.268 1.41466,-1.268 1.416,-1.268 1.416,-1.268 1.416,-1.268 1.416,-1.268 1.41467,-1.268 1.416,-1.268 1.416,-1.268"
       style="fill:none;stroke:#000000;stroke-width:4;stroke-linecap:round;stroke-linejoin:miter;stroke-miterlimit:10;stroke-dasharray:none;stroke-opacity:1" />
    <path
       id="path5-6"
       d="m 437.12349,598.60321 1.25066,-1.268 1.25067,-1.268 1.252,-1.268 1.25067,-1.268 1.25066,-1.268 1.25067,-1.268 1.25067,-1.268 1.252,-1.268 1.25066,-1.268 1.25067,-1.268 1.25067,-1.268 1.25066,-1.268 1.252,-1.268 1.25067,-1.268 1.25067,-1.268 1.25066,-1.26933 1.25067,-1.268 1.252,-1.268 1.25067,-1.268 1.25066,-1.268 1.25067,-1.268 1.25067,-1.268 1.25199,-1.268 1.25067,-1.268 1.25067,-1.268 1.25066,-1.268 1.25067,-1.268 1.252,-1.268 1.25067,-1.268 1.25066,-1.268 1.25067,-1.268 1.25067,-1.268 1.252,-1.268 1.25066,-1.26934 1.25067,-1.268 1.25067,-1.268 1.25066,-1.268 1.25067,-1.268 1.252,-1.268 1.25067,-1.268 1.25066,-1.268 1.25067,-1.268 1.25067,-1.268 1.252,-1.268 1.25066,-1.268 1.25067,-1.268 1.25067,-1.268 1.25066,-1.268 1.252,-1.268 1.25067,-1.268 1.25067,-1.268 1.25066,-1.26933 1.25067,-1.268 1.252,-1.268 1.25067,-1.268 1.25066,-1.268 1.25067,-1.268 1.25067,-1.268 1.252,-1.268 1.25066,-1.268 1.25067,-1.268 1.25067,-1.268 1.25066,-1.268 1.252,-1.268 1.25067,-1.268 1.25067,-1.268 1.25066,-1.268 1.25067,-1.268 1.252,-1.26933 1.25067,-1.268 1.25066,-1.268 1.25067,-1.268 1.25067,-1.268 1.252,-1.268 1.25066,-1.268 1.25067,-1.268 1.25067,-1.268 1.25066,-1.268 1.252,-1.268 1.25067,-1.268 1.25067,-1.268 1.25066,-1.268 1.25067,-1.268 1.252,-1.268 1.25067,-1.268 1.25066,-1.268 1.25067,-1.26934 1.25067,-1.268 1.252,-1.268 1.25066,-1.268 1.25067,-1.268 1.25067,-1.268 1.25066,-1.268 1.252,-1.268 1.25067,-1.268 1.25067,-1.268 1.25066,-1.268 1.25067,-1.268 1.25067,-1.268 1.252,-1.268"
       style="fill:none;stroke:#000000;stroke-width:4;stroke-linecap:round;stroke-linejoin:miter;stroke-miterlimit:10;stroke-dasharray:none;stroke-opacity:1" />
    <path
       id="path6-2"
       d="m 472.03015,623.96587 1.08667,-1.26933 1.08666,-1.268 1.08534,-1.268 1.08666,-1.268 1.08534,-1.268 1.08666,-1.268 1.08534,-1.268 1.08666,-1.268 1.08667,-1.268 1.08533,-1.268 1.08667,-1.268 1.08533,-1.268 1.08667,-1.268 1.08667,-1.268 1.08533,-1.268 1.08667,-1.268 1.08533,-1.268 1.08667,-1.268 1.08666,-1.26933 1.08534,-1.268 1.08666,-1.268 1.08534,-1.268 1.08666,-1.268 1.08667,-1.268 1.08533,-1.268 1.08667,-1.268 1.08533,-1.268 1.08667,-1.268 1.08533,-1.268 1.08667,-1.268 1.08667,-1.268 1.08533,-1.268 1.08667,-1.268 1.08533,-1.268 1.08667,-1.268 1.08666,-1.26933 1.08534,-1.268 1.08666,-1.268 1.08534,-1.268 1.08666,-1.268 1.08667,-1.268 1.08533,-1.268 1.08667,-1.268 1.08533,-1.268 1.08667,-1.268 1.08533,-1.268 1.08667,-1.268 1.08667,-1.268 1.08533,-1.268 1.08667,-1.268 1.08533,-1.268 1.08667,-1.268 1.08666,-1.268 1.08534,-1.26934 1.08666,-1.268 1.08534,-1.268 1.08666,-1.268 1.08667,-1.268 1.08533,-1.268 1.08667,-1.268 1.08533,-1.268 1.08667,-1.268 1.08667,-1.268 1.08533,-1.268 1.08667,-1.268 1.08533,-1.268 1.08667,-1.268 1.08533,-1.268 1.08667,-1.268 1.08666,-1.268 1.08534,-1.268 1.08666,-1.26933 1.08534,-1.268 1.08666,-1.268 1.08667,-1.268 1.08533,-1.268 1.08667,-1.268 1.08533,-1.268 1.08667,-1.268 1.08667,-1.268 1.08533,-1.268 1.08667,-1.268 1.08533,-1.268 1.08667,-1.268 1.08533,-1.268 1.08667,-1.268 1.08666,-1.268 1.08534,-1.268 1.08666,-1.26933 1.08534,-1.268 1.08666,-1.268 1.08667,-1.268 1.08533,-1.268 1.08667,-1.268 1.08533,-1.268 1.08667,-1.268 1.08667,-1.268 1.08533,-1.268 1.08667,-1.268 1.08533,-1.268"
       style="fill:none;stroke:#000000;stroke-width:4;stroke-linecap:round;stroke-linejoin:miter;stroke-miterlimit:10;stroke-dasharray:none;stroke-opacity:1" />
    <text
       xml:space="preserve"
       style="font-size:32px;line-height:1.25;font-family:sans-serif;-inkscape-font-specification:sans-serif;letter-spacing:0px;word-spacing:0px"
       x="258.22934"
       y="533.8667"
       id="text7"><tspan
         sodipodi:role="line"
         id="tspan7"
         x="258.22934"
         y="533.8667">(0,0)</tspan></text>
    <text
       xml:space="preserve"
       style="font-size:32px;line-height:1.25;font-family:sans-serif;-inkscape-font-specification:sans-serif;letter-spacing:0px;word-spacing:0px"
       x="515.86932"
       y="665.47467"
       id="text8"><tspan
         sodipodi:role="line"
         id="tspan8"
         x="515.86932"
         y="665.47467">(c,-s)</tspan></text>
    <text
       xml:space="preserve"
       style="font-size:32px;line-height:1.25;font-family:sans-serif;-inkscape-font-specification:sans-serif;letter-spacing:0px;word-spacing:0px"
       x="514.81604"
       y="394.80267"
       id="text9"><tspan
         sodipodi:role="line"
         id="tspan9"
         x="514.81604"
         y="394.80267">(c,s)</tspan></text>
    <text
       xml:space="preserve"
       style="font-size:32px;line-height:1.25;font-family:sans-serif;-inkscape-font-specification:sans-serif;letter-spacing:0px;word-spacing:0px"
       x="606"
       y="530.66669"
       id="text10"><tspan
         sodipodi:role="line"
         id="tspan10"
         x="606"
         y="530.66669">(1,0)</tspan></text>
  </g>
</svg>
