<?xml version="1.0" encoding="UTF-8" standalone="no"?>
<!-- Created with Inkscape (http://www.inkscape.org/) -->

<svg
   width="65.33477mm"
   height="68.318375mm"
   viewBox="0 0 65.33477 68.318376"
   version="1.1"
   id="svg1"
   inkscape:version="1.3.2 (091e20ef0f, 2023-11-25, custom)"
   sodipodi:docname="blend.svg"
   xmlns:inkscape="http://www.inkscape.org/namespaces/inkscape"
   xmlns:sodipodi="http://sodipodi.sourceforge.net/DTD/sodipodi-0.dtd"
   xmlns="http://www.w3.org/2000/svg"
   xmlns:svg="http://www.w3.org/2000/svg">
  <sodipodi:namedview
     id="namedview1"
     pagecolor="#ffffff"
     bordercolor="#666666"
     borderopacity="1.0"
     inkscape:showpageshadow="2"
     inkscape:pageopacity="0.0"
     inkscape:pagecheckerboard="0"
     inkscape:deskcolor="#d1d1d1"
     inkscape:document-units="mm"
     showguides="false"
     inkscape:zoom="2.9113076"
     inkscape:cx="108.37055"
     inkscape:cy="129.32333"
     inkscape:window-width="1920"
     inkscape:window-height="1021"
     inkscape:window-x="0"
     inkscape:window-y="0"
     inkscape:window-maximized="1"
     inkscape:current-layer="layer1"
     showgrid="false" />
  <defs
     id="defs1" />
  <g
     inkscape:groupmode="layer"
     id="layer7"
     inkscape:label="Layer 7">
    <g
       id="g1"
       style="display:inline;stroke:#000000;stroke-opacity:0.3;stroke-width:0.3;stroke-dasharray:none">
      <path
         style="fill:none;stroke:#000000;stroke-width:0.3;stroke-linecap:butt;stroke-linejoin:miter;stroke-opacity:0.3;stroke-dasharray:none"
         d="M 11.543832,33.65905 21.193409,16.07534 37.807934,21.7865 24.329968,44.05706 Z"
         id="path2-2"
         sodipodi:nodetypes="ccccc" />
      <path
         style="fill:none;fill-opacity:1;stroke:#000000;stroke-width:0.3;stroke-linecap:butt;stroke-linejoin:miter;stroke-dasharray:none;stroke-opacity:0.3"
         d="m 24.329965,44.05706 18.777189,1.20496 4.51276,-14.4672 -9.81198,-9.00832"
         id="path3"
         sodipodi:nodetypes="cccc" />
      <path
         style="fill:none;stroke:#000000;stroke-width:0.3;stroke-linecap:butt;stroke-linejoin:miter;stroke-opacity:0.3;stroke-dasharray:none"
         d="m 43.107154,45.26202 4.4227,13.96305 -19.77497,2.67549 -3.424921,-17.8435"
         id="path4-3" />
      <path
         style="fill:none;stroke:#000000;stroke-width:0.3;stroke-linecap:butt;stroke-linejoin:miter;stroke-opacity:0.3;stroke-dasharray:none"
         d="M 27.754884,61.90056 14.399896,68.160379 6.2030394,60.420186 24.329965,44.05706"
         id="path5-7"
         sodipodi:nodetypes="cccc" />
      <path
         style="fill:none;stroke:#000000;stroke-width:0.3;stroke-linecap:butt;stroke-linejoin:miter;stroke-opacity:0.3;stroke-dasharray:none"
         d="M 5.8235918,60.56429 0.41990194,41.034571 11.543831,33.65905"
         id="path6-5"
         sodipodi:nodetypes="ccc" />
      <path
         style="fill:none;stroke:#000000;stroke-width:0.3;stroke-linecap:butt;stroke-linejoin:miter;stroke-opacity:0.3;stroke-dasharray:none"
         d="M 47.619914,30.79482 63.415014,26.70026 47.526614,7.5667304 37.807934,21.7865"
         id="path7-9"
         sodipodi:nodetypes="cccc" />
      <path
         style="fill:none;stroke:#000000;stroke-width:0.3;stroke-linecap:butt;stroke-linejoin:miter;stroke-opacity:0.3;stroke-dasharray:none"
         d="m 43.107154,45.26202 21.62461,-0.13263 -1.31675,-18.42913"
         id="path8-2"
         sodipodi:nodetypes="ccc" />
      <path
         style="fill:none;stroke:#000000;stroke-width:0.3;stroke-linecap:butt;stroke-linejoin:miter;stroke-opacity:0.3;stroke-dasharray:none"
         d="M 47.529854,59.22507 65.076404,60.662 64.731764,45.12939"
         id="path9" />
      <path
         style="fill:none;stroke:#000000;stroke-width:0.3;stroke-linecap:butt;stroke-linejoin:miter;stroke-opacity:0.3;stroke-dasharray:none"
         d="M 47.526614,7.5667304 27.886674,0.35179044 21.193407,16.07534"
         id="path10-2" />
    </g>
  </g>
  <g
     inkscape:label="Layer 1"
     inkscape:groupmode="layer"
     id="layer1"
     transform="translate(-73.963486,-113.62649)"
     style="display:inline">
    <path
       style="display:inline;fill:#ff0000;fill-opacity:0.2;stroke:#ff0000;stroke-width:0.5;stroke-linecap:butt;stroke-linejoin:miter;stroke-dasharray:none;stroke-opacity:1"
       d="m 121.49526,172.74977 c 0,0 -21.499204,-0.17776 -33.168595,8.87529 0,0 -11.734894,-4.46629 -14.091599,-26.97592 0,0 15.706895,-3.68574 21.282266,-24.78597 0,0 18.147498,2.24911 26.067988,14.45635 0,0 -10.44446,13.09953 -0.0901,28.43025 z"
       id="path2"
       sodipodi:nodetypes="ccccccc" />
    <path
       style="fill:none;stroke:#ff0000;stroke-width:0.5;stroke-linecap:butt;stroke-linejoin:miter;stroke-dasharray:none;stroke-opacity:1"
       d="m 117.01495,158.75917 c 0,0 -8.49989,-1.37151 -18.719581,-1.17741 0,0 5.104701,-11.50895 13.477971,-22.27056"
       id="path4"
       sodipodi:nodetypes="ccc" />
    <circle
       style="fill:#ff0000;fill-opacity:1;stroke:none;stroke-width:0.6313;stroke-linecap:round;stroke-dasharray:none;stroke-opacity:1"
       id="path12"
       cx="107.13192"
       cy="155.2999"
       r="0.75" />
  </g>
  <g
     inkscape:groupmode="layer"
     id="layer2"
     inkscape:label="Layer 2"
     style="display:inline"
     transform="translate(-27.733856,-20.786561)">
    <path
       style="display:inline;fill:#00ff00;fill-opacity:0.2;stroke:#00c800;stroke-width:0.5;stroke-linecap:butt;stroke-linejoin:miter;stroke-dasharray:none;stroke-opacity:1"
       d="m 39.279607,54.343821 c 0,0 12.36671,-20.65527 16.342842,-33.30726 0,0 21.933438,-0.04065 34.933551,25.59424 0,0 -20.521407,-2.290009 -19.71307,19.31599 0,0 -21.608843,4.668455 -31.563323,-11.60297 z"
       id="path5"
       sodipodi:nodetypes="ccccc" />
    <path
       style="display:inline;fill:none;stroke:#00c800;stroke-width:0.5;stroke-linecap:butt;stroke-linejoin:miter;stroke-dasharray:none;stroke-opacity:1"
       d="m 75.342807,51.326154 c 0,0 -2.630357,-5.512653 -9.799097,-8.854883 0,0 -7.650237,4.224318 -13.477971,22.27056"
       id="path6"
       sodipodi:nodetypes="ccc" />
    <circle
       style="display:inline;fill:#00c800;fill-opacity:1;stroke:none;stroke-width:0.6313;stroke-linecap:round;stroke-dasharray:none;stroke-opacity:1"
       id="path12-6"
       cx="60.694679"
       cy="60.366749"
       r="0.75" />
  </g>
  <g
     inkscape:groupmode="layer"
     id="layer3"
     inkscape:label="Layer 3"
     style="display:inline"
     transform="translate(-27.733856,-20.786561)">
    <path
       style="display:inline;fill:#00ffff;fill-opacity:0.2;stroke:#00ffff;stroke-width:0.5;stroke-linecap:butt;stroke-linejoin:miter;stroke-dasharray:none;stroke-opacity:1"
       d="m 65.54371,42.471271 c 0,0 6.75519,17.440349 25.607078,4.913759 0,0 1.788175,15.251296 1.661402,33.961741 0,0 -16.712865,-4.261679 -37.32153,1.23856 0,0 -13.704507,-16.512708 10.05305,-40.11406 z"
       id="path7" />
    <path
       style="display:inline;fill:none;stroke:#00ffff;stroke-width:0.5;stroke-linecap:butt;stroke-linejoin:miter;stroke-dasharray:none;stroke-opacity:1"
       d="m 52.06574,64.741829 c 0,0 12.679746,-0.962033 18.77719,1.20496 0,0 1.326336,-8.127373 4.51276,-14.467198"
       id="path8" />
    <circle
       style="display:inline;fill:#00ffff;fill-opacity:1;stroke:none;stroke-width:0.6313;stroke-linecap:round;stroke-dasharray:none;stroke-opacity:1"
       id="path12-3"
       cx="58.982285"
       cy="60.502209"
       r="0.75" />
  </g>
  <g
     inkscape:groupmode="layer"
     id="layer5"
     inkscape:label="Layer 5"
     style="display:inline"
     transform="translate(-27.733856,-20.786561)">
    <path
       style="fill:#ff00ff;fill-opacity:0.2;stroke:#ff00ff;stroke-width:0.5;stroke-linecap:butt;stroke-linejoin:miter;stroke-dasharray:none;stroke-opacity:1"
       d="M 91.540381,65.730342 C 75.089115,67.348801 52.06574,64.741829 52.06574,64.741829 61.202864,45.676041 75.11281,29.732491 75.11281,29.732491 c 0,0 20.168018,10.567601 16.427569,35.99785"
       id="path10"
       sodipodi:nodetypes="cccc" />
    <path
       style="display:inline;fill:none;stroke:#ff00ff;stroke-width:0.5;stroke-linecap:butt;stroke-linejoin:miter;stroke-dasharray:none;stroke-opacity:1"
       d="m 65.54371,42.471271 c 0,0 6.673455,5.028684 9.81198,9.008319 0,0 -0.791796,7.128668 -4.51276,14.467199"
       id="path11"
       sodipodi:nodetypes="ccc" />
    <circle
       style="display:inline;fill:#ff00ff;fill-opacity:1;stroke:none;stroke-width:0.6313;stroke-linecap:round;stroke-dasharray:none;stroke-opacity:1"
       id="path12-2"
       cx="58.201263"
       cy="62.873402"
       r="0.75" />
  </g>
  <g
     inkscape:groupmode="layer"
     id="layer6"
     inkscape:label="Layer 6"
     style="display:inline">
    <path
       style="fill:#000000;fill-opacity:0.2;stroke:#000000;stroke-width:0.5;stroke-linecap:butt;stroke-linejoin:miter;stroke-dasharray:none;stroke-opacity:1"
       d="m 37.809855,21.68471 c 0,0 5.024861,5.503363 9.811977,9.008319 0,0 -2.647079,6.580993 -4.512758,14.467199 0,0 -9.163174,-0.08235 -18.77719,-1.20496 0,0 6.884723,-12.585737 13.477971,-22.270558 z"
       id="path13"
       sodipodi:nodetypes="ccccc" />
    <circle
       style="display:inline;fill:#000000;fill-opacity:1;stroke:none;stroke-width:0.6313;stroke-linecap:round;stroke-dasharray:none;stroke-opacity:1"
       id="path12-7"
       cx="31.947073"
       cy="40.979801"
       r="0.75" />
  </g>
  <g
     inkscape:groupmode="layer"
     id="layer4"
     inkscape:label="Layer 4"
     style="display:none"
     transform="translate(-27.733856,-20.786561)">
    <path
       style="display:inline;fill:#ff0000;fill-opacity:0.2;stroke:#ff0000;stroke-width:1;stroke-linecap:butt;stroke-linejoin:miter;stroke-dasharray:none;stroke-opacity:1"
       d="m 74.235066,154.64914 11.757599,-6.98791 9.883185,-17.53492 15.25355,5.70693 9.52289,8.92516 -4.3611,13.22397 4.41806,13.93745 -18.81816,2.69828 -13.564425,7.00696 -7.998865,-7.77369 z"
       id="path31"
       sodipodi:nodetypes="ccccccccccc"
       transform="translate(-46.22963,-92.839929)" />
    <path
       style="display:inline;fill:#00c800;fill-opacity:0.2;stroke:#00c800;stroke-width:1;stroke-linecap:butt;stroke-linejoin:miter;stroke-dasharray:none;stroke-opacity:1"
       d="m 85.509237,147.18375 c 4.262044,3.466 8.524088,6.93201 12.786132,10.39801 6.259061,0.40165 12.518131,0.80331 18.777191,1.20496 1.57876,-5.1099 3.15751,-10.21981 4.73627,-15.32971 4.99227,-1.32876 9.98453,-2.65752 14.9768,-3.98628 -5.09787,-6.12643 -10.19574,-12.25287 -15.29361,-18.3793 -6.54665,-2.40498 -13.09329,-4.80996 -19.63994,-7.21494 -2.337267,5.39709 -4.542292,10.85841 -6.962959,16.21499 -3.126628,5.69742 -6.253256,11.39485 -9.379884,17.09227 z"
       id="path34"
       transform="translate(-46.22963,-92.839929)" />
    <path
       style="display:inline;fill:#00ffff;fill-opacity:0.2;stroke:#00ffff;stroke-width:1;stroke-linecap:butt;stroke-linejoin:miter;stroke-dasharray:none;stroke-opacity:1"
       d="m 139.04182,174.1867 -17.54656,-1.43693 -19.77497,2.67549 -3.424921,-17.8435 13.477971,-22.27056 9.81198,9.00832 15.7951,-4.09456 1.31675,18.42913 z"
       id="path35"
       transform="translate(-46.22963,-92.839929)" />
    <path
       style="display:inline;fill:#ff00ff;fill-opacity:0.2;stroke:#ff00ff;stroke-width:1;stroke-linecap:butt;stroke-linejoin:miter;stroke-dasharray:none;stroke-opacity:1"
       d="m 75.545701,29.535502 -9.05843,13.45781 -12.687441,21.21541 16.717271,1.26272 21.02328,0.2589 -1.14079,-17.65276 -15.28678,-18.34509"
       id="path33"
       sodipodi:nodetypes="ccccccc" />
  </g>
</svg>
