<?xml version="1.0" encoding="UTF-8" standalone="no"?>
<!-- Created with Inkscape (http://www.inkscape.org/) -->

<svg
   version="1.1"
   id="svg1"
   width="816"
   height="1056"
   viewBox="0 0 816 1056"
   sodipodi:docname="rational.svg"
   inkscape:version="1.3.2 (091e20ef0f, 2023-11-25, custom)"
   xmlns:inkscape="http://www.inkscape.org/namespaces/inkscape"
   xmlns:sodipodi="http://sodipodi.sourceforge.net/DTD/sodipodi-0.dtd"
   xmlns="http://www.w3.org/2000/svg"
   xmlns:svg="http://www.w3.org/2000/svg">
  <defs
     id="defs1" />
  <sodipodi:namedview
     id="namedview1"
     pagecolor="#ffffff"
     bordercolor="#666666"
     borderopacity="1.0"
     inkscape:showpageshadow="2"
     inkscape:pageopacity="0.0"
     inkscape:pagecheckerboard="0"
     inkscape:deskcolor="#d1d1d1"
     showguides="false"
     inkscape:zoom="0.77367424"
     inkscape:cx="347.69156"
     inkscape:cy="609.42962"
     inkscape:window-width="1920"
     inkscape:window-height="1021"
     inkscape:window-x="0"
     inkscape:window-y="0"
     inkscape:window-maximized="1"
     inkscape:current-layer="g1"
     showgrid="false">
    <inkscape:page
       x="0"
       y="0"
       inkscape:label="1"
       id="page1"
       width="816"
       height="1056"
       margin="0"
       bleed="0" />
  </sodipodi:namedview>
  <g
     id="g1"
     inkscape:groupmode="layer"
     inkscape:label="1">
    <path
       id="path1"
       d="M 4500,4000 3118.03,2097.89 881.965,2824.43 V 5175.57 L 3118.03,5902.11 4500,4000"
       style="fill:none;stroke:#000000;stroke-width:30.00000075;stroke-linecap:round;stroke-linejoin:miter;stroke-miterlimit:10;stroke-dasharray:none;stroke-opacity:1"
       transform="matrix(0.13333333,0,0,-0.13333333,0,1056)" />
    <path
       id="path2"
       d="M 2000,5538.84 2500,4000 3809.02,3048.94"
       style="fill:none;stroke:#000000;stroke-width:30.00000075;stroke-linecap:round;stroke-linejoin:miter;stroke-miterlimit:10;stroke-dasharray:none;stroke-opacity:1"
       transform="matrix(0.13333333,0,0,-0.13333333,0,1056)" />
    <path
       id="path3"
       d="m 2223.61,5611.5 45.98,-133.18 39.24,-113.22 33.94,-97.47 29.67,-84.81 26.21,-74.51 23.36,-66 20.96,-58.9 18.96,-52.9 17.26,-47.8 15.8,-43.42 14.54,-39.64 13.45,-36.34 12.5,-33.47 11.66,-30.93 10.94,-28.69 10.28,-26.7 9.71,-24.92 9.21,-23.33 8.74,-21.91 8.34,-20.61 7.98,-19.45 7.65,-18.4 7.36,-17.44 7.1,-16.56 6.86,-15.77 6.65,-15.04 6.47,-14.37 6.29,-13.75 6.15,-13.2 6.01,-12.67 5.89,-12.2 5.79,-11.77 5.7,-11.35 5.62,-10.99 5.56,-10.64 5.49,-10.33 5.46,-10.03 5.42,-9.77 5.4,-9.52 5.38,-9.29 5.37,-9.09 5.38,-8.89 5.39,-8.73 5.41,-8.57 5.43,-8.43 5.48,-8.3 5.52,-8.2 5.57,-8.09 5.63,-8.01 5.71,-7.94 5.79,-7.88 5.87,-7.83 5.98,-7.81 6.09,-7.78 6.2,-7.77 6.34,-7.77 6.48,-7.79 6.63,-7.83 6.8,-7.86 6.98,-7.92 7.18,-7.99 7.39,-8.07 7.61,-8.18 7.86,-8.29 8.12,-8.42 8.4,-8.57 8.71,-8.74 9.04,-8.93 9.4,-9.14 9.78,-9.37 10.2,-9.64 10.65,-9.92 11.14,-10.24 11.67,-10.58 12.24,-10.98 12.88,-11.4 13.56,-11.87 14.31,-12.38 15.13,-12.97 16.03,-13.59 17.03,-14.31 18.13,-15.08 19.35,-15.97 20.7,-16.93 22.22,-18.04 23.9,-19.26 25.81,-20.65 27.97,-22.23 30.41,-24.03 33.21,-26.07 36.41,-28.44 40.13,-31.19 44.45,-34.38 49.53,-38.14 55.56,-42.6 62.76,-47.95 71.49,-54.44 82.21,-62.39 95.55,-72.31 112.45,-84.89"
       style="fill:none;stroke:#000000;stroke-width:30.00000075;stroke-linecap:round;stroke-linejoin:miter;stroke-miterlimit:10;stroke-dasharray:none;stroke-opacity:1"
       transform="matrix(0.13333333,0,0,-0.13333333,0,1056)" />
    <path
       id="path4"
       d="m 2447.21,5684.15 22.5,-66.79 21.13,-62.24 19.91,-58.16 18.81,-54.48 17.83,-51.15 16.94,-48.15 16.14,-45.4 15.4,-42.92 14.75,-40.63 14.14,-38.55 13.59,-36.63 13.1,-34.86 12.64,-33.25 12.22,-31.74 11.83,-30.35 11.49,-29.07 11.17,-27.88 10.88,-26.77 10.61,-25.74 10.37,-24.77 10.15,-23.89 9.94,-23.05 9.76,-22.26 9.59,-21.54 9.44,-20.86 9.31,-20.22 9.18,-19.62 9.08,-19.06 8.98,-18.54 8.9,-18.04 8.83,-17.58 8.77,-17.15 8.72,-16.75 8.68,-16.36 8.65,-16.02 8.63,-15.67 8.62,-15.37 8.63,-15.08 8.63,-14.81 8.64,-14.56 8.68,-14.32 8.7,-14.11 8.76,-13.9 8.8,-13.73 8.86,-13.55 8.94,-13.4 9.01,-13.26 9.11,-13.14 9.19,-13.03 9.31,-12.93 9.42,-12.84 9.55,-12.77 9.68,-12.72 9.82,-12.67 9.99,-12.64 10.15,-12.62 10.33,-12.61 10.52,-12.62 10.73,-12.65 10.94,-12.67 11.17,-12.72 11.42,-12.79 11.68,-12.85 11.95,-12.95 12.24,-13.06 12.56,-13.17 12.88,-13.32 13.23,-13.46 13.6,-13.64 13.99,-13.83 14.42,-14.04 14.85,-14.27 15.32,-14.52 15.82,-14.8 16.36,-15.1 16.92,-15.43 17.52,-15.77 18.16,-16.17 18.85,-16.58 19.58,-17.03 20.36,-17.51 21.2,-18.05 22.09,-18.62 23.06,-19.24 24.1,-19.91 25.21,-20.63 26.41,-21.44 27.71,-22.29 29.12,-23.22 30.63,-24.25 32.29,-25.36 34.09,-26.58 36.05,-27.92 38.2,-29.37 40.56,-30.99 43.14,-32.76 46,-34.73 49.15,-36.91 52.67,-39.33 56.57,-42.03"
       style="fill:none;stroke:#000000;stroke-width:30.00000075;stroke-linecap:round;stroke-linejoin:miter;stroke-miterlimit:10;stroke-dasharray:none;stroke-opacity:1"
       transform="matrix(0.13333333,0,0,-0.13333333,0,1056)" />
    <path
       id="path5"
       d="m 2670.82,5756.8 14.71,-42.81 14.36,-41.29 14.02,-39.88 13.7,-38.53 13.42,-37.26 13.15,-36.07 12.89,-34.94 12.67,-33.87 12.44,-32.86 12.24,-31.91 12.05,-30.99 11.88,-30.13 11.71,-29.32 11.57,-28.54 11.43,-27.8 11.3,-27.1 11.18,-26.44 11.08,-25.8 10.98,-25.2 10.9,-24.63 10.81,-24.08 10.75,-23.56 10.69,-23.07 10.63,-22.59 10.58,-22.15 10.55,-21.72 10.52,-21.31 10.49,-20.93 10.47,-20.56 10.47,-20.2 10.46,-19.87 10.46,-19.56 10.47,-19.25 10.49,-18.97 10.51,-18.69 10.54,-18.43 10.57,-18.2 10.62,-17.95 10.66,-17.74 10.71,-17.54 10.77,-17.34 10.84,-17.15 10.9,-16.98 10.99,-16.83 11.07,-16.67 11.16,-16.53 11.25,-16.41 11.36,-16.28 11.47,-16.17 11.59,-16.08 11.7,-15.99 11.84,-15.9 11.98,-15.84 12.12,-15.77 12.28,-15.72 12.44,-15.68 12.6,-15.65 12.78,-15.62 12.97,-15.61 13.16,-15.6 13.36,-15.61 13.58,-15.62 13.8,-15.64 14.04,-15.68 14.27,-15.71 14.53,-15.78 14.8,-15.83 15.07,-15.91 15.37,-16 15.66,-16.09 15.99,-16.19 16.31,-16.32 16.66,-16.44 17.02,-16.59 17.4,-16.74 17.79,-16.91 18.2,-17.1 18.64,-17.29 19.09,-17.5 19.56,-17.73 20.05,-17.97 20.58,-18.23 21.11,-18.51 21.69,-18.81 22.28,-19.12 22.91,-19.46 23.57,-19.82 24.26,-20.2 24.99,-20.61 25.75,-21.04 26.56,-21.5 27.41,-21.98 28.3,-22.51 29.24,-23.06 30.24,-23.65 31.3,-24.28 32.41,-24.94 33.59,-25.66 34.84,-26.41 36.17,-27.22"
       style="fill:none;stroke:#000000;stroke-width:30.00000075;stroke-linecap:round;stroke-linejoin:miter;stroke-miterlimit:10;stroke-dasharray:none;stroke-opacity:1"
       transform="matrix(0.13333333,0,0,-0.13333333,0,1056)" />
    <path
       id="path6"
       d="m 2894.43,5829.46 12.41,-29.29 12.33,-28.82 12.27,-28.38 12.19,-27.93 12.14,-27.52 12.08,-27.1 12.03,-26.71 11.98,-26.33 11.93,-25.96 11.89,-25.59 11.86,-25.26 11.82,-24.91 11.8,-24.59 11.77,-24.28 11.74,-23.97 11.73,-23.67 11.72,-23.39 11.7,-23.12 11.69,-22.84 11.69,-22.59 11.69,-22.34 11.69,-22.1 11.69,-21.86 11.7,-21.63 11.71,-21.42 11.73,-21.21 11.75,-21 11.76,-20.8 11.79,-20.62 11.81,-20.43 11.85,-20.25 11.88,-20.09 11.91,-19.92 11.95,-19.76 12,-19.61 12.03,-19.46 12.09,-19.33 12.14,-19.19 12.19,-19.06 12.25,-18.93 12.31,-18.82 12.37,-18.71 12.44,-18.59 12.51,-18.5 12.59,-18.4 12.65,-18.31 12.74,-18.21 12.82,-18.14 12.91,-18.06 13,-17.99 13.09,-17.92 13.19,-17.85 13.28,-17.8 13.4,-17.75 13.49,-17.69 13.61,-17.66 13.73,-17.61 13.84,-17.58 13.97,-17.55 14.09,-17.52 14.23,-17.5 14.36,-17.48 14.5,-17.48 14.64,-17.46 14.79,-17.47 14.94,-17.47 15.1,-17.47 15.27,-17.49 15.43,-17.5 15.6,-17.52 15.78,-17.55 15.96,-17.58 16.16,-17.62 16.34,-17.66 16.54,-17.71 16.75,-17.76 16.97,-17.81 17.17,-17.88 17.41,-17.94 17.63,-18.02 17.87,-18.1 18.11,-18.18 18.37,-18.27 18.63,-18.37 18.89,-18.47 19.17,-18.58 19.45,-18.69 19.74,-18.82 20.04,-18.94 20.35,-19.08 20.67,-19.22 21,-19.38 21.34,-19.52 21.69,-19.7 22.04,-19.86 22.42,-20.05 22.8,-20.23 23.19,-20.43 23.6,-20.64 24.02,-20.85"
       style="fill:none;stroke:#000000;stroke-width:30.00000075;stroke-linecap:round;stroke-linejoin:miter;stroke-miterlimit:10;stroke-dasharray:none;stroke-opacity:1"
       transform="matrix(0.13333333,0,0,-0.13333333,0,1056)" />
    <path
       id="path7"
       d="m 3118.03,5902.11 13.82,-19.02 13.82,-19.02 13.82,-19.02 13.82,-19.02 13.82,-19.02 13.82,-19.02 13.82,-19.02 13.82,-19.03 13.82,-19.02 13.82,-19.02 13.82,-19.02 13.82,-19.02 13.82,-19.02 13.82,-19.02 13.82,-19.02 13.82,-19.03 13.82,-19.02 13.82,-19.02 13.82,-19.02 13.82,-19.02 13.82,-19.02 13.82,-19.02 13.82,-19.02 13.82,-19.02 13.82,-19.03 13.82,-19.02 13.81,-19.02 13.82,-19.02 13.82,-19.02 13.82,-19.02 13.82,-19.02 13.82,-19.02 13.82,-19.02 13.82,-19.03 13.82,-19.02 13.82,-19.02 13.82,-19.02 13.82,-19.02 13.82,-19.02 13.82,-19.02 13.82,-19.02 13.82,-19.02 13.82,-19.03 13.82,-19.02 13.82,-19.02 13.82,-19.02 13.82,-19.02 13.82,-19.02 13.82,-19.02 13.82,-19.02 13.82,-19.02 13.82,-19.03 13.82,-19.02 13.82,-19.02 13.82,-19.02 13.81,-19.02 13.82,-19.02 13.82,-19.02 13.82,-19.02 13.82,-19.02 13.82,-19.03 13.82,-19.02 13.82,-19.02 13.82,-19.02 13.82,-19.02 13.82,-19.02 13.82,-19.02 13.82,-19.02 13.82,-19.02 13.82,-19.03 13.82,-19.02 13.82,-19.02 13.82,-19.02 13.82,-19.02 13.82,-19.02 13.82,-19.02 13.82,-19.02 13.82,-19.03 13.82,-19.02 13.82,-19.02 13.82,-19.02 13.82,-19.02 13.82,-19.02 13.82,-19.02 13.82,-19.02 13.81,-19.02 13.82,-19.03 13.82,-19.02 13.82,-19.02 13.82,-19.02 13.82,-19.02 13.82,-19.02 13.82,-19.02 13.82,-19.02 13.82,-19.02 13.82,-19.03 13.82,-19.02 13.82,-19.02 13.82,-19.02 L 4500,4000"
       style="fill:none;stroke:#000000;stroke-width:30.00000075;stroke-linecap:round;stroke-linejoin:miter;stroke-miterlimit:10;stroke-dasharray:none;stroke-opacity:1"
       transform="matrix(0.13333333,0,0,-0.13333333,0,1056)" />
    <path
       id="path2-2"
       d="m 266.66599,727.84467 66.66666,-205.17866 174.536,-126.808"
       style="fill:none;stroke:#000000;stroke-width:4;stroke-linecap:round;stroke-linejoin:miter;stroke-miterlimit:10;stroke-dasharray:none;stroke-opacity:1" />
    <path
       id="path3-0"
       d="m 296.48066,737.53267 6.13066,-17.75733 5.232,-15.096 4.52534,-12.996 3.956,-11.308 3.49466,-9.93467 3.11467,-8.8 2.79467,-7.85333 2.528,-7.05333 2.30133,-6.37334 2.10667,-5.78933 1.93866,-5.28533 1.79333,-4.84534 1.66667,-4.46266 1.55467,-4.124 1.45866,-3.82534 1.37067,-3.56 1.29467,-3.32266 1.228,-3.11067 1.16533,-2.92133 1.112,-2.748 1.064,-2.59334 1.02,-2.45333 0.98133,-2.32533 0.94667,-2.208 0.91467,-2.10267 0.88666,-2.00533 0.86267,-1.916 0.83867,-1.83333 0.82,-1.76 0.80133,-1.68934 0.78533,-1.62666 0.772,-1.56934 0.76,-1.51333 0.74934,-1.46533 0.74133,-1.41867 0.732,-1.37733 0.728,-1.33734 0.72267,-1.30266 0.72,-1.26934 0.71733,-1.23866 0.716,-1.212 0.71733,-1.18534 0.71867,-1.164 0.72133,-1.14266 0.724,-1.124 0.73067,-1.10667 0.736,-1.09333 0.74267,-1.07867 0.75066,-1.068 0.76134,-1.05867 0.772,-1.05066 0.78266,-1.044 0.79734,-1.04134 0.812,-1.03733 0.82666,-1.036 0.84534,-1.036 0.864,-1.03867 0.884,-1.044 0.90666,-1.048 0.93067,-1.056 0.95733,-1.06533 0.98534,-1.076 1.01466,-1.09067 1.048,-1.10533 1.08267,-1.12267 1.12,-1.14266 1.16133,-1.16534 1.20534,-1.19066 1.25333,-1.21867 1.304,-1.24933 1.36,-1.28534 1.42,-1.32266 1.48533,-1.36534 1.556,-1.41066 1.632,-1.464 1.71734,-1.52 1.808,-1.58267 1.908,-1.65067 2.01733,-1.72933 2.13733,-1.812 2.27067,-1.908 2.41733,-2.01067 2.58,-2.12933 2.76,-2.25733 2.96267,-2.40534 3.18667,-2.568 3.44133,-2.75333 3.72933,-2.964 4.05467,-3.204 4.428,-3.476 4.85467,-3.792 5.35066,-4.15867 5.92667,-4.584 6.604,-5.08533 7.408,-5.68 8.368,-6.39333 9.532,-7.25867 10.96133,-8.31866 12.74,-9.64134 14.99333,-11.31866"
       style="fill:none;stroke:#000000;stroke-width:4;stroke-linecap:round;stroke-linejoin:miter;stroke-miterlimit:10;stroke-dasharray:none;stroke-opacity:1" />
    <path
       id="path4-2"
       d="m 326.29399,747.21934 3,-8.90534 2.81733,-8.29866 2.65467,-7.75467 2.508,-7.264 2.37733,-6.82 2.25867,-6.42 2.152,-6.05333 2.05333,-5.72267 1.96667,-5.41733 1.88533,-5.14 1.812,-4.884 1.74667,-4.648 1.68533,-4.43333 1.62933,-4.232 1.57734,-4.04667 1.532,-3.876 1.48933,-3.71733 1.45067,-3.56934 1.41466,-3.432 1.38267,-3.30266 1.35333,-3.18534 1.32534,-3.07333 1.30133,-2.968 1.27867,-2.872 1.25866,-2.78133 1.24134,-2.696 1.224,-2.616 1.21066,-2.54134 1.19734,-2.472 1.18666,-2.40533 1.17734,-2.344 1.16933,-2.28667 1.16267,-2.23333 1.15733,-2.18133 1.15333,-2.136 1.15067,-2.08934 1.14933,-2.04933 1.15067,-2.01067 1.15067,-1.97466 1.152,-1.94134 1.15733,-1.90933 1.16,-1.88133 1.168,-1.85333 1.17333,-1.83067 1.18134,-1.80667 1.192,-1.78666 1.20133,-1.768 1.21467,-1.752 1.22533,-1.73734 1.24133,-1.724 1.256,-1.712 1.27334,-1.70266 1.29066,-1.696 1.30934,-1.68934 1.332,-1.68533 1.35333,-1.68267 1.37733,-1.68133 1.40267,-1.68267 1.43067,-1.68666 1.45866,-1.68934 1.48934,-1.696 1.52266,-1.70533 1.55734,-1.71333 1.59333,-1.72667 1.632,-1.74133 1.67467,-1.756 1.71733,-1.776 1.764,-1.79467 1.81333,-1.81867 1.86534,-1.844 1.92266,-1.872 1.98,-1.90266 2.04267,-1.936 2.10933,-1.97334 2.18134,-2.01333 2.256,-2.05733 2.336,-2.10267 2.42133,-2.156 2.51333,-2.21067 2.61067,-2.27066 2.71467,-2.33467 2.82666,-2.40667 2.94534,-2.48266 3.07466,-2.56534 3.21333,-2.65466 3.36134,-2.75067 3.52133,-2.85867 3.69467,-2.972 3.88266,-3.096 4.084,-3.23333 4.30534,-3.38133 4.54533,-3.544 4.80667,-3.72267 5.09333,-3.916 5.408,-4.132 5.752,-4.368 6.13333,-4.63067 6.55334,-4.92133 7.02266,-5.244 7.54267,-5.604"
       style="fill:none;stroke:#000000;stroke-width:4;stroke-linecap:round;stroke-linejoin:miter;stroke-miterlimit:10;stroke-dasharray:none;stroke-opacity:1" />
    <path
       id="path5-3"
       d="m 356.10865,756.906 1.96134,-5.708 1.91466,-5.50533 1.86934,-5.31733 1.82666,-5.13734 1.78934,-4.968 1.75333,-4.80933 1.71867,-4.65866 1.68933,-4.516 1.65867,-4.38134 1.632,-4.25466 1.60666,-4.132 1.584,-4.01734 1.56134,-3.90933 1.54266,-3.80533 1.524,-3.70667 1.50667,-3.61333 1.49067,-3.52534 1.47733,-3.44 1.464,-3.36 1.45333,-3.284 1.44134,-3.21066 1.43333,-3.14134 1.42533,-3.076 1.41734,-3.012 1.41066,-2.95333 1.40667,-2.896 1.40267,-2.84133 1.39866,-2.79067 1.396,-2.74133 1.396,-2.69334 1.39467,-2.64933 1.39467,-2.608 1.396,-2.56667 1.39866,-2.52933 1.40134,-2.492 1.40533,-2.45733 1.40933,-2.42667 1.416,-2.39333 1.42134,-2.36534 1.428,-2.33866 1.436,-2.312 1.44533,-2.28667 1.45333,-2.264 1.46534,-2.244 1.476,-2.22267 1.488,-2.204 1.5,-2.188 1.51466,-2.17066 1.52934,-2.156 1.54533,-2.144 1.56,-2.132 1.57867,-2.12 1.59733,-2.112 1.616,-2.10267 1.63733,-2.096 1.65867,-2.09066 1.68,-2.08667 1.704,-2.08267 1.72933,-2.08133 1.75467,-2.08 1.78133,-2.08133 1.81067,-2.08267 1.84,-2.08533 1.872,-2.09067 1.90267,-2.09467 1.93733,-2.104 1.97333,-2.11066 2.00934,-2.12134 2.04933,-2.13333 2.088,-2.14533 2.132,-2.15867 2.17466,-2.176 2.22134,-2.192 2.26933,-2.212 2.32,-2.232 2.372,-2.25467 2.42667,-2.28 2.48533,-2.30533 2.54533,-2.33333 2.608,-2.364 2.67334,-2.396 2.744,-2.43067 2.81466,-2.468 2.892,-2.508 2.97067,-2.54933 3.05467,-2.59467 3.14266,-2.64267 3.23467,-2.69333 3.332,-2.748 3.43333,-2.80533 3.54134,-2.86667 3.65466,-2.93067 3.77334,-3.00133 3.89866,-3.07467 4.032,-3.15333 4.17334,-3.23733 4.32133,-3.32534 4.47867,-3.42133 4.64533,-3.52133 4.82267,-3.62934"
       style="fill:none;stroke:#000000;stroke-width:4;stroke-linecap:round;stroke-linejoin:miter;stroke-miterlimit:10;stroke-dasharray:none;stroke-opacity:1" />
    <path
       id="path6-7"
       d="m 385.92332,766.594 1.65467,-3.90533 1.644,-3.84267 1.636,-3.784 1.62533,-3.724 1.61867,-3.66933 1.61066,-3.61333 1.604,-3.56134 1.59734,-3.51066 1.59066,-3.46134 1.58534,-3.412 1.58133,-3.368 1.576,-3.32133 1.57333,-3.27866 1.56934,-3.23734 1.56533,-3.196 1.564,-3.156 1.56267,-3.11866 1.56,-3.08267 1.55866,-3.04533 1.55867,-3.012 1.55867,-2.97867 1.55866,-2.94667 1.55867,-2.91466 1.56,-2.884 1.56133,-2.856 1.564,-2.828 1.56667,-2.8 1.568,-2.77334 1.572,-2.74933 1.57467,-2.724 1.58,-2.7 1.584,-2.67867 1.588,-2.656 1.59333,-2.63466 1.6,-2.61467 1.604,-2.59467 1.612,-2.57733 1.61867,-2.55867 1.62533,-2.54133 1.63333,-2.524 1.64134,-2.50933 1.64933,-2.49467 1.65867,-2.47867 1.668,-2.46666 1.67866,-2.45334 1.68667,-2.44133 1.69867,-2.428 1.70933,-2.41867 1.72133,-2.408 1.73334,-2.39866 1.74533,-2.38934 1.75866,-2.38 1.77067,-2.37333 1.78667,-2.36667 1.79866,-2.35866 1.81467,-2.35467 1.83067,-2.348 1.84533,-2.344 1.86267,-2.34 1.87866,-2.336 1.89734,-2.33333 1.91466,-2.33067 1.93334,-2.33066 1.952,-2.328 1.972,-2.32934 1.992,-2.32933 2.01333,-2.32933 2.036,-2.332 2.05733,-2.33334 2.08,-2.336 2.104,-2.34 2.128,-2.344 2.15467,-2.34933 2.17867,-2.35467 2.20533,-2.36133 2.23333,-2.368 2.26267,-2.37467 2.28933,-2.384 2.32134,-2.392 2.35066,-2.40266 2.38267,-2.41334 2.41467,-2.424 2.44933,-2.436 2.484,-2.44933 2.51867,-2.46267 2.556,-2.47733 2.59333,-2.492 2.632,-2.50933 2.672,-2.52534 2.71333,-2.544 2.756,-2.56266 2.8,-2.584 2.84534,-2.60267 2.892,-2.62667 2.93866,-2.648 2.98934,-2.67333 3.04,-2.69733 3.092,-2.724 3.14666,-2.752 3.20267,-2.78"
       style="fill:none;stroke:#000000;stroke-width:4;stroke-linecap:round;stroke-linejoin:miter;stroke-miterlimit:10;stroke-dasharray:none;stroke-opacity:1" />
    <text
       xml:space="preserve"
       style="font-size:32px;line-height:1.25;font-family:sans-serif;-inkscape-font-specification:sans-serif;letter-spacing:0px;word-spacing:0px"
       x="226.38905"
       y="753.41272"
       id="text1"><tspan
         sodipodi:role="line"
         id="tspan1"
         x="226.38905"
         y="753.41272">V<tspan
   style="font-size:65%;baseline-shift:sub"
   id="tspan2">0</tspan></tspan></text>
    <text
       xml:space="preserve"
       style="font-size:32px;line-height:1.25;font-family:sans-serif;-inkscape-font-specification:sans-serif;letter-spacing:0px;word-spacing:0px"
       x="442.86331"
       y="770.60291"
       id="text4"><tspan
         sodipodi:role="line"
         id="tspan4"
         x="442.86331"
         y="770.60291">V<tspan
   style="font-size:65%;baseline-shift:sub"
   id="tspan3">1</tspan></tspan></text>
    <text
       xml:space="preserve"
       style="font-size:32px;line-height:1.25;font-family:sans-serif;-inkscape-font-specification:sans-serif;letter-spacing:0px;word-spacing:0px"
       x="517.66827"
       y="669.72937"
       id="text6"><tspan
         sodipodi:role="line"
         id="tspan6"
         x="517.66827"
         y="669.72937">V<tspan
   style="font-size:65%;baseline-shift:sub"
   id="tspan5">2</tspan></tspan></text>
    <text
       xml:space="preserve"
       style="font-size:32px;line-height:1.25;font-family:sans-serif;-inkscape-font-specification:sans-serif;letter-spacing:0px;word-spacing:0px"
       x="608.57611"
       y="538.50928"
       id="text8"><tspan
         sodipodi:role="line"
         id="tspan8"
         x="608.57611"
         y="538.50928">V<tspan
   style="font-size:65%;baseline-shift:sub"
   id="tspan7">3</tspan></tspan></text>
    <text
       xml:space="preserve"
       style="font-size:32px;line-height:1.25;font-family:sans-serif;-inkscape-font-specification:sans-serif;letter-spacing:0px;word-spacing:0px"
       x="516.86603"
       y="399.68726"
       id="text10"><tspan
         sodipodi:role="line"
         id="tspan10"
         x="516.86603"
         y="399.68726">V<tspan
   style="font-size:65%;baseline-shift:sub"
   id="tspan9">4</tspan></tspan></text>
    <text
       xml:space="preserve"
       style="font-size:32px;line-height:1.25;font-family:sans-serif;-inkscape-font-specification:sans-serif;letter-spacing:0px;word-spacing:0px"
       x="445.29883"
       y="294.11572"
       id="text12"><tspan
         sodipodi:role="line"
         id="tspan12"
         x="445.29883"
         y="294.11572">V<tspan
   style="font-size:65%;baseline-shift:sub"
   id="tspan11">5</tspan></tspan></text>
    <text
       xml:space="preserve"
       style="font-size:32px;line-height:1.25;font-family:sans-serif;-inkscape-font-specification:sans-serif;letter-spacing:0px;word-spacing:0px"
       x="221.96997"
       y="307.13577"
       id="text14"><tspan
         sodipodi:role="line"
         id="tspan14"
         x="221.96997"
         y="307.13577">V<tspan
   style="font-size:65%;baseline-shift:sub"
   id="tspan13">6</tspan></tspan></text>
    <text
       xml:space="preserve"
       style="font-size:32px;line-height:1.25;font-family:sans-serif;-inkscape-font-specification:sans-serif;letter-spacing:0px;word-spacing:0px"
       x="459.82367"
       y="777.12299"
       id="text15"><tspan
         sodipodi:role="line"
         id="tspan15"
         x="459.82367"
         y="777.12299" /></text>
  </g>
</svg>
