<?xml version="1.0" encoding="UTF-8" standalone="no"?>
<!-- Created with Inkscape (http://www.inkscape.org/) -->

<svg
   version="1.1"
   id="svg1"
   width="816"
   height="1056"
   viewBox="0 0 816 1056"
   sodipodi:docname="rational3.svg"
   inkscape:version="1.3.2 (091e20ef0f, 2023-11-25, custom)"
   xmlns:inkscape="http://www.inkscape.org/namespaces/inkscape"
   xmlns:sodipodi="http://sodipodi.sourceforge.net/DTD/sodipodi-0.dtd"
   xmlns="http://www.w3.org/2000/svg"
   xmlns:svg="http://www.w3.org/2000/svg">
  <defs
     id="defs1" />
  <sodipodi:namedview
     id="namedview1"
     pagecolor="#ffffff"
     bordercolor="#666666"
     borderopacity="1.0"
     inkscape:showpageshadow="2"
     inkscape:pageopacity="0.0"
     inkscape:pagecheckerboard="0"
     inkscape:deskcolor="#d1d1d1"
     inkscape:zoom="0.77367424"
     inkscape:cx="408.44064"
     inkscape:cy="528"
     inkscape:window-width="1920"
     inkscape:window-height="1021"
     inkscape:window-x="0"
     inkscape:window-y="0"
     inkscape:window-maximized="1"
     inkscape:current-layer="g1">
    <inkscape:page
       x="0"
       y="0"
       inkscape:label="1"
       id="page1"
       width="816"
       height="1056"
       margin="0"
       bleed="0" />
  </sodipodi:namedview>
  <g
     id="g1"
     inkscape:groupmode="layer"
     inkscape:label="1">
    <path
       id="path1"
       d="M 4500,4000 1500,2267.95 v 3464.1 L 4500,4000"
       style="fill:none;stroke:#000000;stroke-width:30.00000075;stroke-linecap:butt;stroke-linejoin:miter;stroke-miterlimit:10;stroke-dasharray:none;stroke-opacity:1"
       transform="matrix(0.13333333,0,0,-0.13333333,0,1056)" />
    <path
       id="path2"
       d="m 1500,4000 h 1000 l 500,-866.03"
       style="fill:none;stroke:#000000;stroke-width:15.00000038;stroke-linecap:butt;stroke-linejoin:miter;stroke-miterlimit:10;stroke-dasharray:none;stroke-opacity:1"
       transform="matrix(0.13333333,0,0,-0.13333333,0,1056)" />
    <path
       id="path3"
       d="m 1500,4086.6 294.72,-13.1 165.69,-7.47 106.2,-4.86 73.9,-3.46 54.4,-2.61 41.74,-2.06 33.05,-1.69 26.83,-1.41 22.22,-1.22 18.71,-1.08 15.98,-0.96 13.82,-0.87 12.06,-0.8 10.64,-0.74 9.45,-0.7 8.45,-0.66 7.62,-0.64 6.89,-0.6 6.29,-0.59 5.74,-0.57 5.29,-0.56 4.87,-0.55 4.52,-0.55 4.2,-0.53 3.92,-0.54 3.67,-0.53 3.44,-0.53 3.24,-0.54 3.05,-0.53 2.9,-0.54 2.74,-0.55 2.61,-0.55 2.49,-0.56 2.38,-0.57 2.27,-0.58 2.18,-0.58 2.1,-0.6 2.02,-0.61 1.96,-0.63 1.88,-0.64 1.83,-0.65 1.78,-0.67 1.73,-0.69 1.68,-0.71 1.65,-0.73 1.61,-0.75 1.58,-0.77 1.56,-0.8 1.53,-0.82 1.51,-0.85 1.49,-0.88 1.48,-0.91 1.46,-0.95 1.46,-0.98 1.46,-1.02 1.45,-1.07 1.46,-1.1 1.46,-1.16 1.47,-1.2 1.48,-1.26 1.5,-1.31 1.51,-1.38 1.54,-1.45 1.57,-1.51 1.6,-1.6 1.64,-1.68 1.68,-1.78 1.73,-1.87 1.78,-1.99 1.84,-2.1 1.92,-2.23 1.99,-2.38 2.08,-2.54 2.19,-2.72 2.29,-2.91 2.42,-3.12 2.57,-3.37 2.73,-3.64 2.91,-3.95 3.13,-4.29 3.37,-4.7 3.65,-5.14 3.97,-5.67 4.36,-6.28 4.8,-6.99 5.33,-7.84 5.96,-8.84 6.72,-10.04 7.67,-11.53 8.82,-13.36 10.28,-15.67 12.17,-18.63 14.64,-22.52 17.99,-27.78 22.65,-35.12 29.46,-45.81 39.95,-62.27 57.31,-89.54 89.31,-139.76 158.71,-248.68"
       style="fill:none;stroke:#000000;stroke-width:15.00000038;stroke-linecap:butt;stroke-linejoin:miter;stroke-miterlimit:10;stroke-dasharray:none;stroke-opacity:1"
       transform="matrix(0.13333333,0,0,-0.13333333,0,1056)" />
    <path
       id="path4"
       d="m 1500,4173.21 175.87,-15.89 127.63,-11.65 96.87,-8.95 76.06,-7.13 61.33,-5.84 50.51,-4.89 42.35,-4.19 36.03,-3.64 31.04,-3.21 27.03,-2.87 23.76,-2.59 21.06,-2.36 18.8,-2.18 16.91,-2.02 15.28,-1.89 13.9,-1.78 12.69,-1.69 11.65,-1.6 10.74,-1.54 9.93,-1.49 9.22,-1.43 8.59,-1.4 8.03,-1.36 7.53,-1.33 7.07,-1.31 6.67,-1.3 6.3,-1.27 5.97,-1.27 5.67,-1.26 5.39,-1.26 5.14,-1.25 4.92,-1.26 4.71,-1.26 4.52,-1.27 4.34,-1.27 4.19,-1.29 4.04,-1.31 3.91,-1.32 3.78,-1.34 3.68,-1.36 3.57,-1.38 3.49,-1.41 3.39,-1.44 3.33,-1.47 3.25,-1.5 3.2,-1.53 3.13,-1.58 3.1,-1.61 3.05,-1.66 3.01,-1.71 2.99,-1.76 2.96,-1.81 2.95,-1.87 2.93,-1.93 2.93,-2 2.93,-2.07 2.93,-2.14 2.94,-2.23 2.96,-2.31 2.99,-2.4 3.02,-2.5 3.05,-2.61 3.1,-2.73 3.15,-2.85 3.21,-2.98 3.28,-3.12 3.35,-3.28 3.45,-3.45 3.55,-3.63 3.66,-3.82 3.78,-4.05 3.92,-4.27 4.09,-4.54 4.25,-4.82 4.45,-5.13 4.68,-5.47 4.91,-5.85 5.2,-6.27 5.5,-6.74 5.86,-7.27 6.25,-7.86 6.7,-8.53 7.22,-9.28 7.8,-10.16 8.49,-11.14 9.28,-12.29 10.2,-13.63 11.29,-15.2 12.58,-17.06 14.12,-19.28 16,-21.97 18.3,-25.28 21.17,-29.38 24.8,-34.58 29.49,-41.3 35.73,-50.19 44.2,-62.31 56.18,-79.41 73.9,-104.71 101.7,-144.36"
       style="fill:none;stroke:#000000;stroke-width:15.00000038;stroke-linecap:butt;stroke-linejoin:miter;stroke-miterlimit:10;stroke-dasharray:none;stroke-opacity:1"
       transform="matrix(0.13333333,0,0,-0.13333333,0,1056)" />
    <path
       id="path5"
       d="m 1500,4259.81 126.67,-17.35 101.85,-14.08 83.68,-11.69 70.02,-9.88 59.47,-8.5 51.15,-7.42 44.48,-6.54 39.06,-5.84 34.59,-5.26 30.85,-4.78 27.71,-4.38 25.03,-4.04 22.73,-3.75 20.75,-3.5 19.04,-3.29 17.52,-3.11 16.2,-2.95 15.03,-2.81 13.99,-2.7 13.06,-2.59 12.24,-2.5 11.49,-2.42 10.82,-2.36 10.22,-2.3 9.67,-2.24 9.17,-2.21 8.72,-2.17 8.3,-2.14 7.93,-2.12 7.59,-2.1 7.27,-2.08 6.98,-2.08 6.71,-2.07 6.48,-2.07 6.24,-2.08 6.05,-2.08 5.85,-2.09 5.69,-2.11 5.52,-2.13 5.38,-2.15 5.25,-2.17 5.13,-2.21 5.01,-2.23 4.92,-2.27 4.83,-2.31 4.75,-2.36 4.68,-2.4 4.62,-2.45 4.57,-2.51 4.52,-2.57 4.48,-2.63 4.45,-2.7 4.44,-2.77 4.41,-2.85 4.42,-2.94 4.41,-3.03 4.43,-3.12 4.45,-3.23 4.47,-3.34 4.5,-3.45 4.55,-3.59 4.61,-3.72 4.67,-3.87 4.74,-4.02 4.82,-4.19 4.93,-4.38 5.03,-4.57 5.15,-4.78 5.29,-5 5.44,-5.26 5.61,-5.52 5.8,-5.81 6,-6.12 6.24,-6.46 6.5,-6.84 6.78,-7.25 7.1,-7.7 7.45,-8.2 7.84,-8.74 8.28,-9.34 8.78,-10.02 9.33,-10.77 9.95,-11.61 10.66,-12.55 11.45,-13.62 12.37,-14.84 13.41,-16.22 14.61,-17.82 16.01,-19.65 17.65,-21.81 19.56,-24.33 21.85,-27.32 24.59,-30.91 27.91,-35.25 31.99,-40.59 37.1,-47.25 43.57,-55.69 51.96,-66.64 63.11,-81.15 78.37,-101.03"
       style="fill:none;stroke:#000000;stroke-width:15.00000038;stroke-linecap:butt;stroke-linejoin:miter;stroke-miterlimit:10;stroke-dasharray:none;stroke-opacity:1"
       transform="matrix(0.13333333,0,0,-0.13333333,0,1056)" />
    <path
       id="path6"
       d="m 1500,4346.41 99.72,-18.33 84.77,-15.71 72.99,-13.65 63.51,-11.99 55.8,-10.64 49.44,-9.53 44.11,-8.6 39.63,-7.84 35.81,-7.17 32.53,-6.61 29.7,-6.13 27.24,-5.72 25.08,-5.35 23.19,-5.04 21.5,-4.75 20.02,-4.52 18.69,-4.31 17.5,-4.11 16.43,-3.95 15.47,-3.8 14.6,-3.67 13.81,-3.56 13.09,-3.46 12.44,-3.36 11.84,-3.29 11.3,-3.22 10.8,-3.16 10.34,-3.12 9.92,-3.06 9.53,-3.04 9.18,-3 8.85,-2.98 8.55,-2.97 8.28,-2.95 8.01,-2.94 7.79,-2.95 7.56,-2.95 7.37,-2.96 7.18,-2.97 7.02,-2.99 6.86,-3.02 6.72,-3.04 6.6,-3.07 6.48,-3.11 6.38,-3.15 6.28,-3.2 6.21,-3.25 6.13,-3.3 6.07,-3.36 6.03,-3.43 5.98,-3.5 5.95,-3.58 5.92,-3.66 5.92,-3.75 5.91,-3.84 5.92,-3.95 5.93,-4.06 5.96,-4.18 5.99,-4.3 6.04,-4.43 6.1,-4.58 6.17,-4.74 6.24,-4.9 6.34,-5.07 6.44,-5.27 6.56,-5.47 6.7,-5.69 6.84,-5.92 7.01,-6.18 7.19,-6.45 7.39,-6.74 7.62,-7.05 7.87,-7.4 8.13,-7.77 8.44,-8.18 8.77,-8.61 9.14,-9.09 9.53,-9.61 9.99,-10.18 10.48,-10.8 11.02,-11.5 11.64,-12.25 12.31,-13.1 13.08,-14.04 13.92,-15.07 14.87,-16.25 15.96,-17.56 17.17,-19.05 18.57,-20.73 20.16,-22.66 21.99,-24.86 24.12,-27.43 26.6,-30.4 29.51,-33.9 32.97,-38.04 37.11,-43.01 42.14,-49.01 48.31,-56.39 55.99,-65.56 65.74,-77.19"
       style="fill:none;stroke:#000000;stroke-width:15.00000038;stroke-linecap:butt;stroke-linejoin:miter;stroke-miterlimit:10;stroke-dasharray:none;stroke-opacity:1"
       transform="matrix(0.13333333,0,0,-0.13333333,0,1056)" />
    <path
       id="path7"
       d="m 1500,4433.01 82.68,-19.05 72.83,-16.9 64.66,-15.12 57.82,-13.63 52.02,-12.38 47.09,-11.3 42.83,-10.38 39.15,-9.59 35.95,-8.9 33.13,-8.31 30.65,-7.77 28.45,-7.32 26.5,-6.9 24.75,-6.54 23.18,-6.22 21.78,-5.93 20.51,-5.67 19.35,-5.45 18.31,-5.24 17.36,-5.06 16.5,-4.89 15.7,-4.74 14.97,-4.62 14.31,-4.49 13.7,-4.39 13.13,-4.3 12.62,-4.22 12.14,-4.14 11.7,-4.09 11.29,-4.03 10.92,-3.98 10.57,-3.94 10.25,-3.92 9.95,-3.89 9.67,-3.87 9.43,-3.86 9.19,-3.85 8.97,-3.86 8.78,-3.86 8.59,-3.88 8.43,-3.89 8.27,-3.91 8.14,-3.94 8.02,-3.98 7.9,-4.01 7.81,-4.06 7.71,-4.11 7.64,-4.17 7.58,-4.22 7.52,-4.3 7.48,-4.37 7.45,-4.44 7.43,-4.54 7.42,-4.63 7.41,-4.73 7.43,-4.83 7.45,-4.96 7.49,-5.07 7.52,-5.21 7.59,-5.36 7.65,-5.5 7.73,-5.67 7.83,-5.85 7.93,-6.03 8.06,-6.23 8.19,-6.44 8.34,-6.67 8.52,-6.92 8.7,-7.18 8.9,-7.46 9.14,-7.77 9.38,-8.09 9.66,-8.44 9.96,-8.82 10.3,-9.23 10.65,-9.66 11.05,-10.15 11.48,-10.66 11.96,-11.23 12.48,-11.83 13.06,-12.51 13.69,-13.24 14.4,-14.04 15.16,-14.92 16.03,-15.89 16.98,-16.97 18.04,-18.17 19.23,-19.49 20.55,-20.99 22.06,-22.65 23.76,-24.54 25.68,-26.68 27.88,-29.11 30.41,-31.9 33.33,-35.13 36.73,-38.87 40.71,-43.25 45.43,-48.44 51.05,-54.62 57.84,-62.08"
       style="fill:none;stroke:#000000;stroke-width:15.00000038;stroke-linecap:butt;stroke-linejoin:miter;stroke-miterlimit:10;stroke-dasharray:none;stroke-opacity:1"
       transform="matrix(0.13333333,0,0,-0.13333333,0,1056)" />
    <path
       id="path8"
       d="m 1500,4519.62 70.94,-19.61 64.05,-17.8 58.13,-16.27 53.02,-14.94 48.58,-13.79 44.69,-12.78 41.26,-11.91 38.25,-11.13 35.56,-10.44 33.16,-9.83 31.02,-9.29 29.09,-8.81 27.35,-8.37 25.77,-7.97 24.35,-7.63 23.05,-7.31 21.86,-7.02 20.79,-6.76 19.79,-6.53 18.89,-6.31 18.04,-6.13 17.28,-5.95 16.58,-5.79 15.91,-5.65 15.32,-5.53 14.75,-5.41 14.23,-5.3 13.76,-5.22 13.31,-5.13 12.9,-5.07 12.51,-5 12.17,-4.95 11.83,-4.9 11.53,-4.86 11.24,-4.84 10.99,-4.81 10.74,-4.8 10.52,-4.78 10.31,-4.79 10.13,-4.79 9.96,-4.79 9.79,-4.82 9.66,-4.83 9.52,-4.86 9.41,-4.9 9.31,-4.94 9.22,-4.98 9.14,-5.04 9.08,-5.09 9.02,-5.17 8.98,-5.23 8.95,-5.31 8.93,-5.4 8.93,-5.49 8.93,-5.59 8.95,-5.7 8.97,-5.82 9.02,-5.95 9.06,-6.07 9.13,-6.23 9.21,-6.37 9.3,-6.54 9.41,-6.72 9.52,-6.91 9.66,-7.1 9.81,-7.32 9.98,-7.56 10.16,-7.79 10.37,-8.06 10.59,-8.34 10.83,-8.64 11.1,-8.96 11.4,-9.3 11.71,-9.68 12.07,-10.07 12.44,-10.5 12.85,-10.95 13.3,-11.46 13.79,-11.99 14.33,-12.57 14.91,-13.19 15.55,-13.88 16.25,-14.62 17.02,-15.43 17.85,-16.3 18.78,-17.28 19.79,-18.33 20.92,-19.5 22.17,-20.79 23.55,-22.22 25.1,-23.8 26.82,-25.57 28.77,-27.56 30.94,-29.79 33.42,-32.31 36.23,-35.17 39.45,-38.45 43.15,-42.21 47.44,-46.56 52.45,-51.64"
       style="fill:none;stroke:#000000;stroke-width:15.00000038;stroke-linecap:butt;stroke-linejoin:miter;stroke-miterlimit:10;stroke-dasharray:none;stroke-opacity:1"
       transform="matrix(0.13333333,0,0,-0.13333333,0,1056)" />
    <path
       id="path9"
       d="m 1500,4606.22 62.37,-20.02 57.34,-18.5 52.92,-17.17 49.01,-16 45.55,-14.96 42.45,-14.03 39.67,-13.21 37.19,-12.47 34.94,-11.8 32.9,-11.21 31.06,-10.66 29.39,-10.17 27.85,-9.73 26.45,-9.33 25.17,-8.95 24,-8.63 22.91,-8.31 21.91,-8.04 21,-7.79 20.14,-7.55 19.36,-7.34 18.62,-7.15 17.96,-6.97 17.32,-6.81 16.74,-6.67 16.2,-6.53 15.7,-6.41 15.22,-6.3 14.79,-6.21 14.39,-6.12 14,-6.04 13.66,-5.97 13.33,-5.92 13.02,-5.86 12.74,-5.83 12.49,-5.79 12.24,-5.76 12.01,-5.74 11.81,-5.73 11.62,-5.72 11.45,-5.72 11.29,-5.73 11.15,-5.75 11.02,-5.76 10.9,-5.8 10.8,-5.83 10.71,-5.86 10.64,-5.92 10.57,-5.97 10.52,-6.03 10.49,-6.09 10.45,-6.18 10.44,-6.25 10.44,-6.34 10.45,-6.44 10.47,-6.55 10.5,-6.66 10.55,-6.78 10.61,-6.91 10.68,-7.05 10.76,-7.21 10.87,-7.36 10.98,-7.54 11.11,-7.72 11.25,-7.91 11.42,-8.13 11.59,-8.34 11.79,-8.59 12,-8.84 12.23,-9.1 12.49,-9.4 12.77,-9.71 13.08,-10.03 13.4,-10.39 13.75,-10.76 14.15,-11.17 14.56,-11.6 15.01,-12.06 15.5,-12.56 16.04,-13.09 16.61,-13.67 17.24,-14.28 17.92,-14.96 18.66,-15.69 19.46,-16.46 20.35,-17.32 21.3,-18.25 22.35,-19.26 23.5,-20.36 24.77,-21.57 26.15,-22.89 27.69,-24.36 29.39,-25.97 31.28,-27.76 33.38,-29.74 35.72,-31.96 38.37,-34.45 41.33,-37.25 44.69,-40.4 48.52,-44.01"
       style="fill:none;stroke:#000000;stroke-width:15.00000038;stroke-linecap:butt;stroke-linejoin:miter;stroke-miterlimit:10;stroke-dasharray:none;stroke-opacity:1"
       transform="matrix(0.13333333,0,0,-0.13333333,0,1056)" />
    <path
       id="path10"
       d="m 1500,4692.82 55.84,-20.32 52.07,-19.04 48.7,-17.89 45.66,-16.85 42.91,-15.93 40.42,-15.08 38.17,-14.32 36.11,-13.63 34.22,-13 32.51,-12.42 30.93,-11.9 29.48,-11.42 28.14,-10.97 26.91,-10.58 25.77,-10.2 24.72,-9.86 23.74,-9.55 22.84,-9.26 21.99,-9 21.21,-8.75 20.48,-8.53 19.8,-8.32 19.17,-8.12 18.58,-7.96 18.03,-7.79 17.51,-7.65 17.03,-7.51 16.59,-7.39 16.16,-7.28 15.78,-7.19 15.41,-7.09 15.07,-7.01 14.75,-6.94 14.46,-6.87 14.18,-6.83 13.93,-6.77 13.69,-6.74 13.47,-6.71 13.27,-6.69 13.09,-6.67 12.91,-6.67 12.76,-6.66 12.62,-6.67 12.5,-6.68 12.38,-6.7 12.29,-6.72 12.2,-6.76 12.12,-6.8 12.07,-6.85 12.02,-6.9 11.99,-6.96 11.96,-7.02 11.95,-7.11 11.95,-7.18 11.97,-7.28 11.99,-7.37 12.04,-7.48 12.08,-7.6 12.15,-7.72 12.23,-7.85 12.32,-8 12.43,-8.15 12.55,-8.31 12.68,-8.49 12.83,-8.67 13,-8.87 13.19,-9.08 13.38,-9.31 13.61,-9.55 13.84,-9.8 14.11,-10.07 14.39,-10.36 14.69,-10.66 15.03,-11 15.38,-11.34 15.76,-11.72 16.18,-12.11 16.62,-12.54 17.11,-12.98 17.62,-13.48 18.18,-13.99 18.79,-14.55 19.44,-15.14 20.14,-15.79 20.9,-16.47 21.72,-17.22 22.61,-18.02 23.58,-18.88 24.63,-19.82 25.77,-20.84 27.01,-21.94 28.37,-23.14 29.86,-24.46 31.48,-25.89 33.27,-27.47 35.25,-29.2 37.43,-31.11 39.83,-33.23 42.53,-35.58 45.52,-38.2"
       style="fill:none;stroke:#000000;stroke-width:15.00000038;stroke-linecap:butt;stroke-linejoin:miter;stroke-miterlimit:10;stroke-dasharray:none;stroke-opacity:1"
       transform="matrix(0.13333333,0,0,-0.13333333,0,1056)" />
    <path
       id="path11"
       d="m 1500,4779.42 50.72,-20.53 47.84,-19.45 45.22,-18.44 42.83,-17.55 40.64,-16.72 38.63,-15.95 36.78,-15.27 35.07,-14.63 33.51,-14.04 32.05,-13.5 30.71,-13 29.46,-12.54 28.31,-12.12 27.23,-11.72 26.22,-11.35 25.29,-11.02 24.42,-10.71 23.61,-10.41 22.85,-10.15 22.13,-9.9 21.47,-9.66 20.85,-9.45 20.26,-9.25 19.72,-9.07 19.21,-8.9 18.72,-8.75 18.28,-8.59 17.85,-8.47 17.46,-8.35 17.09,-8.24 16.75,-8.13 16.42,-8.05 16.12,-7.96 15.84,-7.89 15.57,-7.83 15.33,-7.77 15.11,-7.73 14.9,-7.69 14.7,-7.65 14.52,-7.63 14.37,-7.61 14.21,-7.6 14.08,-7.6 13.96,-7.6 13.86,-7.61 13.76,-7.63 13.68,-7.66 13.62,-7.68 13.56,-7.73 13.52,-7.77 13.48,-7.82 13.47,-7.88 13.47,-7.95 13.47,-8.02 13.48,-8.1 13.52,-8.2 13.57,-8.29 13.62,-8.39 13.69,-8.51 13.77,-8.63 13.87,-8.77 13.98,-8.91 14.11,-9.05 14.24,-9.22 14.4,-9.39 14.56,-9.58 14.76,-9.77 14.95,-9.98 15.18,-10.19 15.42,-10.44 15.68,-10.68 15.96,-10.95 16.26,-11.23 16.58,-11.52 16.94,-11.85 17.31,-12.18 17.71,-12.54 18.15,-12.93 18.6,-13.33 19.11,-13.76 19.64,-14.22 20.21,-14.71 20.82,-15.24 21.48,-15.79 22.19,-16.4 22.95,-17.03 23.76,-17.72 24.65,-18.45 25.59,-19.25 26.61,-20.09 27.72,-21.01 28.91,-22 30.21,-23.06 31.61,-24.22 33.14,-25.48 34.79,-26.83 36.61,-28.32 38.59,-29.94 40.76,-31.71 43.14,-33.65"
       style="fill:none;stroke:#000000;stroke-width:15.00000038;stroke-linecap:butt;stroke-linejoin:miter;stroke-miterlimit:10;stroke-dasharray:none;stroke-opacity:1"
       transform="matrix(0.13333333,0,0,-0.13333333,0,1056)" />
    <path
       id="path12"
       d="m 1500,4866.03 46.61,-20.67 44.39,-19.73 42.33,-18.88 40.43,-18.08 38.68,-17.36 37.04,-16.69 35.54,-16.06 34.12,-15.48 32.82,-14.95 31.59,-14.44 30.46,-13.98 29.39,-13.54 28.39,-13.14 27.46,-12.77 26.58,-12.41 25.77,-12.09 25,-11.78 24.27,-11.49 23.6,-11.23 22.96,-10.98 22.36,-10.75 21.8,-10.54 21.27,-10.33 20.77,-10.14 20.3,-9.98 19.86,-9.8 19.44,-9.66 19.06,-9.53 18.69,-9.39 18.35,-9.28 18.03,-9.16 17.72,-9.08 17.44,-8.98 17.18,-8.9 16.93,-8.83 16.71,-8.76 16.49,-8.71 16.29,-8.66 16.12,-8.63 15.94,-8.58 15.8,-8.56 15.65,-8.55 15.54,-8.53 15.41,-8.53 15.33,-8.52 15.23,-8.54 15.16,-8.55 15.1,-8.58 15.05,-8.6 15.02,-8.64 14.99,-8.68 14.97,-8.74 14.98,-8.79 14.99,-8.85 15.01,-8.93 15.04,-9 15.1,-9.09 15.15,-9.18 15.23,-9.29 15.31,-9.4 15.41,-9.52 15.52,-9.64 15.65,-9.78 15.79,-9.93 15.94,-10.08 16.11,-10.25 16.3,-10.43 16.5,-10.61 16.72,-10.82 16.95,-11.02 17.21,-11.25 17.48,-11.49 17.78,-11.75 18.08,-12.01 18.43,-12.29 18.78,-12.6 19.18,-12.91 19.58,-13.26 20.02,-13.61 20.49,-13.99 20.99,-14.39 21.52,-14.82 22.09,-15.28 22.7,-15.75 23.35,-16.28 24.05,-16.81 24.78,-17.4 25.58,-18.02 26.42,-18.68 27.34,-19.38 28.3,-20.14 29.35,-20.95 30.47,-21.82 31.68,-22.74 32.97,-23.74 34.37,-24.81 35.89,-25.97 37.51,-27.22 39.28,-28.58 41.2,-30.03"
       style="fill:none;stroke:#000000;stroke-width:15.00000038;stroke-linecap:butt;stroke-linejoin:miter;stroke-miterlimit:10;stroke-dasharray:none;stroke-opacity:1"
       transform="matrix(0.13333333,0,0,-0.13333333,0,1056)" />
    <path
       id="path13"
       d="m 1500,4952.63 43.26,-20.71 41.53,-19.92 39.9,-19.19 38.4,-18.5 36.98,-17.87 35.67,-17.28 34.43,-16.72 33.26,-16.2 32.19,-15.72 31.15,-15.26 30.2,-14.83 29.3,-14.43 28.44,-14.06 27.65,-13.7 26.89,-13.38 26.18,-13.06 25.5,-12.77 24.88,-12.5 24.27,-12.24 23.72,-11.99 23.18,-11.78 22.68,-11.55 22.2,-11.36 21.76,-11.18 21.34,-11 20.93,-10.84 20.56,-10.68 20.21,-10.55 19.87,-10.41 19.56,-10.29 19.27,-10.18 18.99,-10.08 18.73,-9.99 18.49,-9.89 18.26,-9.82 18.05,-9.75 17.86,-9.69 17.67,-9.63 17.51,-9.58 17.36,-9.55 17.21,-9.51 17.09,-9.48 16.97,-9.46 16.87,-9.45 16.78,-9.45 16.71,-9.44 16.63,-9.45 16.59,-9.47 16.54,-9.48 16.51,-9.51 16.49,-9.55 16.49,-9.58 16.49,-9.63 16.5,-9.69 16.53,-9.74 16.57,-9.81 16.62,-9.89 16.68,-9.96 16.76,-10.06 16.84,-10.15 16.94,-10.26 17.06,-10.37 17.18,-10.49 17.31,-10.62 17.47,-10.76 17.64,-10.9 17.81,-11.07 18.01,-11.23 18.23,-11.4 18.45,-11.6 18.69,-11.79 18.96,-12.01 19.23,-12.22 19.54,-12.47 19.85,-12.71 20.19,-12.98 20.56,-13.25 20.94,-13.55 21.35,-13.86 21.79,-14.19 22.24,-14.54 22.74,-14.9 23.26,-15.3 23.81,-15.7 24.41,-16.14 25.02,-16.6 25.69,-17.09 26.4,-17.61 27.15,-18.15 27.94,-18.74 28.8,-19.35 29.7,-20.01 30.66,-20.71 31.7,-21.46 32.79,-22.25 33.97,-23.09 35.22,-24 36.57,-24.97 38.02,-26 39.56,-27.11"
       style="fill:none;stroke:#000000;stroke-width:15.00000038;stroke-linecap:butt;stroke-linejoin:miter;stroke-miterlimit:10;stroke-dasharray:none;stroke-opacity:1"
       transform="matrix(0.13333333,0,0,-0.13333333,0,1056)" />
    <path
       id="path14"
       d="m 1500,5039.23 40.49,-20.67 39.14,-20.01 37.86,-19.39 36.66,-18.81 35.53,-18.26 34.47,-17.74 33.46,-17.26 32.51,-16.79 31.61,-16.37 30.77,-15.95 29.96,-15.57 29.21,-15.21 28.48,-14.86 27.81,-14.54 27.16,-14.24 26.56,-13.94 25.97,-13.68 25.43,-13.41 24.91,-13.17 24.42,-12.95 23.96,-12.72 23.51,-12.53 23.09,-12.33 22.7,-12.15 22.32,-11.97 21.97,-11.83 21.64,-11.67 21.32,-11.53 21.02,-11.4 20.74,-11.27 20.48,-11.17 20.22,-11.06 20,-10.96 19.77,-10.88 19.57,-10.79 19.39,-10.72 19.2,-10.65 19.04,-10.59 18.89,-10.54 18.75,-10.49 18.63,-10.45 18.51,-10.42 18.41,-10.39 18.32,-10.37 18.24,-10.36 18.17,-10.35 18.11,-10.35 18.07,-10.36 18.03,-10.36 18.01,-10.38 18,-10.41 17.99,-10.43 18,-10.47 18.02,-10.51 18.05,-10.57 18.09,-10.61 18.14,-10.68 18.21,-10.75 18.27,-10.82 18.37,-10.9 18.46,-11 18.57,-11.09 18.7,-11.19 18.82,-11.31 18.97,-11.42 19.14,-11.56 19.3,-11.69 19.49,-11.83 19.69,-11.99 19.91,-12.15 20.14,-12.32 20.38,-12.51 20.65,-12.69 20.92,-12.9 21.22,-13.12 21.54,-13.34 21.87,-13.59 22.23,-13.83 22.6,-14.1 23,-14.38 23.41,-14.68 23.87,-14.99 24.33,-15.31 24.83,-15.66 25.35,-16.03 25.91,-16.4 26.5,-16.81 27.11,-17.24 27.78,-17.69 28.46,-18.16 29.2,-18.67 29.98,-19.2 30.8,-19.75 31.68,-20.35 32.59,-20.98 33.58,-21.64 34.62,-22.35 35.72,-23.09 36.9,-23.89 38.15,-24.73"
       style="fill:none;stroke:#000000;stroke-width:15.00000038;stroke-linecap:butt;stroke-linejoin:miter;stroke-miterlimit:10;stroke-dasharray:none;stroke-opacity:1"
       transform="matrix(0.13333333,0,0,-0.13333333,0,1056)" />
    <path
       id="path15"
       d="m 1500,5125.83 38.19,-20.56 37.13,-20.01 36.13,-19.49 35.19,-19 34.28,-18.53 33.43,-18.09 32.62,-17.67 31.86,-17.27 31.12,-16.9 30.42,-16.53 29.76,-16.2 29.14,-15.87 28.54,-15.56 27.97,-15.28 27.42,-14.99 26.92,-14.74 26.42,-14.48 25.96,-14.25 25.51,-14.02 25.1,-13.81 24.69,-13.61 24.31,-13.42 23.96,-13.23 23.6,-13.07 23.29,-12.9 22.97,-12.75 22.68,-12.61 22.41,-12.47 22.14,-12.35 21.9,-12.23 21.66,-12.11 21.45,-12.01 21.24,-11.92 21.05,-11.82 20.86,-11.75 20.7,-11.66 20.54,-11.6 20.4,-11.54 20.27,-11.47 20.14,-11.43 20.03,-11.39 19.94,-11.34 19.84,-11.32 19.77,-11.28 19.69,-11.27 19.64,-11.25 19.59,-11.25 19.55,-11.24 19.53,-11.24 19.5,-11.26 19.5,-11.26 19.5,-11.29 19.51,-11.31 19.53,-11.34 19.57,-11.38 19.6,-11.43 19.66,-11.47 19.72,-11.53 19.79,-11.59 19.88,-11.66 19.97,-11.73 20.07,-11.81 20.19,-11.9 20.31,-11.99 20.46,-12.09 20.6,-12.2 20.77,-12.31 20.93,-12.44 21.13,-12.57 21.32,-12.7 21.54,-12.85 21.76,-13 22.01,-13.17 22.26,-13.34 22.53,-13.52 22.81,-13.71 23.12,-13.92 23.44,-14.12 23.78,-14.35 24.13,-14.58 24.51,-14.83 24.9,-15.08 25.32,-15.36 25.75,-15.64 26.22,-15.94 26.7,-16.25 27.21,-16.59 27.75,-16.93 28.31,-17.3 28.91,-17.68 29.53,-18.08 30.19,-18.5 30.89,-18.95 31.61,-19.42 32.38,-19.9 33.19,-20.43 34.05,-20.97 34.94,-21.55 35.9,-22.15 36.9,-22.79"
       style="fill:none;stroke:#000000;stroke-width:15.00000038;stroke-linecap:butt;stroke-linejoin:miter;stroke-miterlimit:10;stroke-dasharray:none;stroke-opacity:1"
       transform="matrix(0.13333333,0,0,-0.13333333,0,1056)" />
    <path
       id="path16"
       d="m 1500,5212.44 36.26,-20.37 35.44,-19.92 34.67,-19.5 33.93,-19.08 33.23,-18.7 32.55,-18.32 31.9,-17.97 31.3,-17.64 30.7,-17.3 30.15,-17.01 29.61,-16.7 29.1,-16.43 28.61,-16.16 28.14,-15.9 27.7,-15.66 27.27,-15.42 26.86,-15.2 26.48,-14.99 26.11,-14.79 25.75,-14.6 25.42,-14.41 25.09,-14.24 24.79,-14.08 24.5,-13.91 24.23,-13.77 23.96,-13.62 23.71,-13.5 23.47,-13.36 23.25,-13.25 23.04,-13.13 22.84,-13.02 22.65,-12.93 22.48,-12.83 22.31,-12.75 22.15,-12.66 22.01,-12.6 21.88,-12.52 21.75,-12.46 21.63,-12.4 21.54,-12.35 21.44,-12.3 21.35,-12.26 21.28,-12.23 21.21,-12.19 21.15,-12.17 21.11,-12.15 21.07,-12.14 21.03,-12.12 21.02,-12.13 21,-12.12 21,-12.13 21.01,-12.13 21.02,-12.16 21.04,-12.18 21.07,-12.2 21.12,-12.23 21.17,-12.28 21.22,-12.31 21.3,-12.36 21.37,-12.42 21.46,-12.47 21.56,-12.54 21.67,-12.61 21.78,-12.68 21.91,-12.77 22.04,-12.85 22.2,-12.95 22.35,-13.04 22.52,-13.16 22.7,-13.26 22.89,-13.39 23.1,-13.51 23.31,-13.65 23.54,-13.79 23.78,-13.94 24.03,-14.09 24.3,-14.26 24.59,-14.43 24.88,-14.62 25.19,-14.8 25.52,-15.01 25.86,-15.21 26.22,-15.43 26.6,-15.67 26.99,-15.9 27.41,-16.16 27.84,-16.42 28.3,-16.7 28.77,-16.99 29.28,-17.29 29.79,-17.6 30.35,-17.94 30.91,-18.29 31.52,-18.64 32.14,-19.03 32.81,-19.43 33.49,-19.84 34.22,-20.28 34.97,-20.73 35.77,-21.22"
       style="fill:none;stroke:#000000;stroke-width:15.00000038;stroke-linecap:butt;stroke-linejoin:miter;stroke-miterlimit:10;stroke-dasharray:none;stroke-opacity:1"
       transform="matrix(0.13333333,0,0,-0.13333333,0,1056)" />
    <path
       id="path17"
       d="m 1500,5299.04 34.64,-20.1 34.03,-19.74 33.44,-19.4 32.87,-19.06 32.33,-18.76 31.81,-18.44 31.31,-18.16 30.83,-17.88 30.38,-17.61 29.93,-17.35 29.51,-17.11 29.1,-16.87 28.72,-16.64 28.34,-16.43 27.98,-16.21 27.64,-16.02 27.31,-15.83 27,-15.64 26.7,-15.46 26.41,-15.3 26.14,-15.14 25.87,-14.98 25.62,-14.84 25.38,-14.7 25.16,-14.56 24.94,-14.44 24.73,-14.31 24.54,-14.2 24.35,-14.09 24.17,-13.99 24.01,-13.89 23.85,-13.8 23.71,-13.72 23.57,-13.63 23.43,-13.55 23.32,-13.49 23.21,-13.42 23.1,-13.35 23.01,-13.31 22.93,-13.25 22.84,-13.2 22.78,-13.16 22.71,-13.13 22.66,-13.09 22.61,-13.06 22.58,-13.04 22.55,-13.03 22.52,-13 22.51,-13 22.5,-12.99 22.5,-12.99 22.51,-13 22.53,-13 22.55,-13.01 22.58,-13.03 22.62,-13.05 22.67,-13.08 22.72,-13.11 22.79,-13.14 22.85,-13.19 22.94,-13.22 23.02,-13.28 23.12,-13.33 23.23,-13.39 23.34,-13.45 23.45,-13.52 23.59,-13.6 23.73,-13.67 23.88,-13.76 24.03,-13.84 24.21,-13.94 24.37,-14.05 24.57,-14.14 24.76,-14.27 24.98,-14.37 25.19,-14.51 25.41,-14.63 25.66,-14.77 25.92,-14.92 26.17,-15.06 26.46,-15.23 26.74,-15.38 27.05,-15.56 27.36,-15.75 27.69,-15.93 28.03,-16.12 28.4,-16.33 28.77,-16.55 29.16,-16.77 29.57,-17 29.99,-17.25 30.44,-17.49 30.9,-17.77 31.38,-18.03 31.88,-18.33 32.41,-18.62 32.95,-18.94 33.52,-19.26 34.1,-19.6 34.73,-19.95"
       style="fill:none;stroke:#000000;stroke-width:15.00000038;stroke-linecap:butt;stroke-linejoin:miter;stroke-miterlimit:10;stroke-dasharray:none;stroke-opacity:1"
       transform="matrix(0.13333333,0,0,-0.13333333,0,1056)" />
    <path
       id="path18"
       d="m 1500,5385.64 33.29,-19.74 32.84,-19.47 32.41,-19.2 32,-18.94 31.59,-18.7 31.2,-18.46 30.83,-18.24 30.47,-18.01 30.12,-17.79 29.79,-17.59 29.47,-17.4 29.15,-17.2 28.86,-17.02 28.58,-16.84 28.29,-16.67 28.04,-16.5 27.78,-16.35 27.53,-16.2 27.3,-16.05 27.07,-15.9 26.86,-15.78 26.66,-15.64 26.45,-15.52 26.27,-15.4 26.09,-15.29 25.92,-15.18 25.75,-15.07 25.6,-14.98 25.45,-14.88 25.31,-14.79 25.18,-14.71 25.05,-14.62 24.94,-14.55 24.83,-14.48 24.72,-14.4 24.64,-14.35 24.54,-14.28 24.46,-14.23 24.38,-14.17 24.32,-14.13 24.26,-14.09 24.2,-14.04 24.15,-14.01 24.12,-13.98 24.07,-13.94 24.05,-13.92 24.03,-13.91 24.01,-13.88 24,-13.87 24,-13.86 24,-13.85 24.02,-13.85 24.03,-13.86 24.05,-13.85 24.08,-13.87 24.12,-13.88 24.16,-13.89 24.2,-13.92 24.27,-13.93 24.32,-13.97 24.4,-13.99 24.47,-14.03 24.55,-14.07 24.64,-14.12 24.74,-14.15 24.84,-14.21 24.95,-14.27 25.07,-14.32 25.19,-14.39 25.32,-14.45 25.47,-14.52 25.61,-14.6 25.77,-14.69 25.93,-14.76 26.1,-14.86 26.29,-14.95 26.47,-15.04 26.67,-15.16 26.87,-15.26 27.09,-15.37 27.32,-15.49 27.55,-15.62 27.79,-15.75 28.05,-15.88 28.31,-16.03 28.58,-16.17 28.87,-16.32 29.17,-16.49 29.48,-16.65 29.79,-16.82 30.13,-17 30.48,-17.19 30.83,-17.38 31.2,-17.58 31.59,-17.8 31.99,-18 32.41,-18.24 32.83,-18.46 33.28,-18.71 33.74,-18.97"
       style="fill:none;stroke:#000000;stroke-width:15.00000038;stroke-linecap:butt;stroke-linejoin:miter;stroke-miterlimit:10;stroke-dasharray:none;stroke-opacity:1"
       transform="matrix(0.13333333,0,0,-0.13333333,0,1056)" />
    <path
       id="path19"
       d="m 1500,5472.24 32.17,-19.29 31.87,-19.09 31.56,-18.91 31.28,-18.71 30.99,-18.54 30.72,-18.36 30.46,-18.19 30.2,-18.03 29.96,-17.86 29.72,-17.72 29.49,-17.56 29.27,-17.42 29.05,-17.28 28.85,-17.14 28.64,-17.02 28.46,-16.88 28.27,-16.77 28.09,-16.65 27.93,-16.53 27.75,-16.42 27.6,-16.32 27.45,-16.22 27.3,-16.11 27.17,-16.03 27.03,-15.93 26.9,-15.85 26.78,-15.76 26.67,-15.68 26.56,-15.61 26.45,-15.53 26.36,-15.46 26.27,-15.4 26.17,-15.33 26.1,-15.27 26.02,-15.22 25.95,-15.16 25.88,-15.11 25.83,-15.07 25.77,-15.02 25.72,-14.98 25.67,-14.94 25.64,-14.9 25.6,-14.88 25.57,-14.84 25.54,-14.82 25.53,-14.79 25.51,-14.77 25.5,-14.76 25.5,-14.74 25.5,-14.72 25.5,-14.72 25.52,-14.71 25.53,-14.71 25.55,-14.71 25.57,-14.71 25.6,-14.71 25.64,-14.73 25.68,-14.73 25.73,-14.75 25.78,-14.76 25.83,-14.79 25.89,-14.81 25.96,-14.83 26.03,-14.86 26.1,-14.89 26.19,-14.93 26.28,-14.96 26.36,-15 26.47,-15.05 26.57,-15.1 26.68,-15.14 26.79,-15.2 26.92,-15.25 27.04,-15.32 27.18,-15.37 27.31,-15.45 27.46,-15.51 27.61,-15.58 27.76,-15.67 27.93,-15.74 28.11,-15.82 28.28,-15.92 28.46,-16 28.65,-16.11 28.86,-16.2 29.05,-16.3 29.28,-16.41 29.49,-16.52 29.72,-16.64 29.95,-16.75 30.2,-16.89 30.45,-17.01 30.72,-17.14 30.98,-17.28 31.26,-17.43 31.55,-17.57 31.84,-17.72 32.16,-17.89 32.46,-18.05 32.8,-18.21"
       style="fill:none;stroke:#000000;stroke-width:15.00000038;stroke-linecap:butt;stroke-linejoin:miter;stroke-miterlimit:10;stroke-dasharray:none;stroke-opacity:1"
       transform="matrix(0.13333333,0,0,-0.13333333,0,1056)" />
    <path
       id="path20"
       d="m 1500,5558.85 31.26,-18.75 31.08,-18.62 30.88,-18.49 30.71,-18.38 30.53,-18.26 30.36,-18.14 30.2,-18.03 30.03,-17.92 29.88,-17.81 29.73,-17.72 29.58,-17.61 29.44,-17.52 29.31,-17.42 29.17,-17.33 29.04,-17.24 28.92,-17.16 28.8,-17.07 28.68,-16.99 28.58,-16.91 28.46,-16.84 28.36,-16.76 28.27,-16.69 28.17,-16.63 28.08,-16.55 27.99,-16.49 27.91,-16.43 27.82,-16.38 27.76,-16.31 27.68,-16.26 27.61,-16.21 27.55,-16.15 27.49,-16.11 27.43,-16.06 27.38,-16.02 27.32,-15.97 27.29,-15.94 27.23,-15.9 27.2,-15.86 27.17,-15.83 27.13,-15.8 27.1,-15.76 27.08,-15.75 27.05,-15.71 27.04,-15.69 27.02,-15.67 27.01,-15.65 27,-15.64 27,-15.62 27,-15.6 26.99,-15.6 27.01,-15.58 27.01,-15.58 27.02,-15.57 27.04,-15.56 27.06,-15.57 27.08,-15.57 27.11,-15.56 27.14,-15.58 27.17,-15.58 27.21,-15.58 27.24,-15.6 27.29,-15.61 27.34,-15.62 27.39,-15.64 27.44,-15.66 27.5,-15.68 27.56,-15.7 27.62,-15.73 27.7,-15.75 27.76,-15.78 27.85,-15.81 27.92,-15.84 28,-15.88 28.09,-15.92 28.19,-15.95 28.28,-15.99 28.37,-16.04 28.48,-16.09 28.59,-16.13 28.7,-16.18 28.81,-16.23 28.94,-16.29 29.05,-16.35 29.19,-16.4 29.31,-16.47 29.46,-16.53 29.59,-16.6 29.74,-16.67 29.89,-16.73 30.04,-16.82 30.21,-16.88 30.37,-16.97 30.54,-17.05 30.71,-17.14 30.89,-17.22 31.08,-17.31 31.26,-17.41 31.46,-17.5 31.66,-17.6 31.87,-17.7"
       style="fill:none;stroke:#000000;stroke-width:15.00000038;stroke-linecap:butt;stroke-linejoin:miter;stroke-miterlimit:10;stroke-dasharray:none;stroke-opacity:1"
       transform="matrix(0.13333333,0,0,-0.13333333,0,1056)" />
    <path
       id="path21"
       d="m 1500,5645.45 30.54,-18.09 30.46,-18.04 30.37,-17.97 30.28,-17.91 30.2,-17.85 30.12,-17.8 30.04,-17.74 29.97,-17.69 29.89,-17.64 29.82,-17.59 29.75,-17.53 29.68,-17.49 29.62,-17.44 29.55,-17.39 29.49,-17.35 29.43,-17.3 29.38,-17.26 29.31,-17.22 29.27,-17.18 29.21,-17.13 29.16,-17.1 29.11,-17.07 29.06,-17.02 29.02,-17 28.98,-16.95 28.94,-16.93 28.9,-16.89 28.86,-16.87 28.83,-16.83 28.79,-16.8 28.76,-16.78 28.73,-16.75 28.7,-16.73 28.68,-16.7 28.65,-16.68 28.63,-16.66 28.61,-16.64 28.59,-16.61 28.57,-16.6 28.56,-16.58 28.54,-16.56 28.53,-16.55 28.52,-16.53 28.52,-16.52 28.5,-16.51 28.5,-16.49 28.5,-16.49 28.5,-16.47 28.49,-16.47 28.5,-16.46 28.5,-16.45 28.51,-16.44 28.52,-16.44 28.52,-16.44 28.53,-16.44 28.55,-16.43 28.56,-16.43 28.58,-16.44 28.6,-16.43 28.61,-16.44 28.64,-16.44 28.66,-16.45 28.69,-16.45 28.71,-16.45 28.74,-16.47 28.77,-16.47 28.8,-16.49 28.84,-16.49 28.87,-16.51 28.91,-16.52 28.95,-16.53 29,-16.54 29.03,-16.57 29.08,-16.58 29.13,-16.6 29.17,-16.61 29.23,-16.64 29.28,-16.66 29.33,-16.68 29.39,-16.7 29.44,-16.73 29.51,-16.75 29.57,-16.78 29.64,-16.81 29.7,-16.84 29.76,-16.86 29.84,-16.9 29.91,-16.93 29.99,-16.96 30.06,-17 30.14,-17.03 30.22,-17.07 30.3,-17.1 30.39,-17.15 30.47,-17.19 30.57,-17.22 30.65,-17.27 30.75,-17.32 30.84,-17.36 30.94,-17.4"
       style="fill:none;stroke:#000000;stroke-width:15.00000038;stroke-linecap:butt;stroke-linejoin:miter;stroke-miterlimit:10;stroke-dasharray:none;stroke-opacity:1"
       transform="matrix(0.13333333,0,0,-0.13333333,0,1056)" />
    <path
       id="path22"
       d="m 1500,5732.05 30,-17.32 30,-17.32 30,-17.32 30,-17.32 30,-17.32 30,-17.32 30,-17.32 30,-17.32 30,-17.32 30,-17.32 30,-17.32 30,-17.33 30,-17.32 30,-17.32 30,-17.32 30,-17.32 30,-17.32 30,-17.32 30,-17.32 30,-17.32 30,-17.32 30,-17.32 30,-17.32 30,-17.32 30,-17.32 30,-17.32 30,-17.32 30,-17.32 30,-17.32 30,-17.32 30,-17.32 30,-17.33 30,-17.32 30,-17.32 30,-17.32 30,-17.32 30,-17.32 30,-17.32 30,-17.32 30,-17.32 30,-17.32 30,-17.32 30,-17.32 30,-17.32 30,-17.32 30,-17.32 30,-17.32 30,-17.32 30,-17.32 30,-17.32 30,-17.33 30,-17.32 30,-17.32 30,-17.32 30,-17.32 30,-17.32 30,-17.32 30,-17.32 30,-17.32 30,-17.32 30,-17.32 30,-17.32 30,-17.32 30,-17.32 30,-17.32 30,-17.32 30,-17.32 30,-17.32 30,-17.32 30,-17.32 30,-17.33 30,-17.32 30,-17.32 30,-17.32 30,-17.32 30,-17.32 30,-17.32 30,-17.32 30,-17.32 30,-17.32 30,-17.32 30,-17.32 30,-17.32 30,-17.32 30,-17.32 30,-17.32 30,-17.32 30,-17.32 30,-17.32 30,-17.32 30,-17.33 30,-17.32 30,-17.32 30,-17.32 30,-17.32 30,-17.32 30,-17.32 30,-17.32 30,-17.32 30,-17.32"
       style="fill:none;stroke:#000000;stroke-width:15.00000038;stroke-linecap:butt;stroke-linejoin:miter;stroke-miterlimit:10;stroke-dasharray:none;stroke-opacity:1"
       transform="matrix(0.13333333,0,0,-0.13333333,0,1056)" />
  </g>
</svg>
